<mxfile host="65bd71144e">
    <diagram id="s_B1LCXh2aNPAuWiSHEV" name="Seite-1">
        <mxGraphModel dx="521" dy="617" grid="1" gridSize="10" guides="1" tooltips="1" connect="1" arrows="1" fold="1" page="1" pageScale="1" pageWidth="827" pageHeight="1169" background="#FFFFFF" math="1" shadow="0">
            <root>
                <mxCell id="0"/>
                <mxCell id="1" parent="0"/>
                <mxCell id="9" value="&lt;font color=&quot;#ff00ff&quot;&gt;You can search for everything (top left, underneath: Verschiedenes/ Erweitert for more)&lt;br&gt;and then you can adapt on the right (Style, Text, Anordnen)! :)&amp;nbsp;&lt;/font&gt;" style="text;html=1;strokeColor=none;fillColor=none;align=center;verticalAlign=middle;whiteSpace=wrap;rounded=0;" vertex="1" parent="1">
                    <mxGeometry x="40" y="50" width="320" height="30" as="geometry"/>
                </mxCell>
                <mxCell id="12" value="Mindmap" style="swimlane;startSize=20;horizontal=1;containerType=tree;fontColor=#FF00FF;" vertex="1" parent="1">
                    <mxGeometry x="14" y="130" width="400" height="80" as="geometry"/>
                </mxCell>
                <mxCell id="13" value="" style="edgeStyle=entityRelationEdgeStyle;startArrow=none;endArrow=none;segment=10;curved=1;sourcePerimeterSpacing=0;targetPerimeterSpacing=0;fontColor=#FF00FF;" edge="1" parent="12" source="17" target="18">
                    <mxGeometry relative="1" as="geometry"/>
                </mxCell>
                <mxCell id="14" value="" style="edgeStyle=entityRelationEdgeStyle;startArrow=none;endArrow=none;segment=10;curved=1;sourcePerimeterSpacing=0;targetPerimeterSpacing=0;fontColor=#FF00FF;" edge="1" parent="12" source="17" target="19">
                    <mxGeometry relative="1" as="geometry"/>
                </mxCell>
                <mxCell id="15" value="" style="edgeStyle=entityRelationEdgeStyle;startArrow=none;endArrow=none;segment=10;curved=1;sourcePerimeterSpacing=0;targetPerimeterSpacing=0;fontColor=#FF00FF;" edge="1" parent="12" source="17" target="20">
                    <mxGeometry relative="1" as="geometry"/>
                </mxCell>
                <mxCell id="16" value="" style="edgeStyle=entityRelationEdgeStyle;startArrow=none;endArrow=none;segment=10;curved=1;sourcePerimeterSpacing=0;targetPerimeterSpacing=0;fontColor=#FF00FF;" edge="1" parent="12" source="17" target="21">
                    <mxGeometry relative="1" as="geometry"/>
                </mxCell>
                <mxCell id="17" value="Central Idea" style="ellipse;whiteSpace=wrap;html=1;align=center;treeFolding=1;treeMoving=1;newEdgeStyle={&quot;edgeStyle&quot;:&quot;entityRelationEdgeStyle&quot;,&quot;startArrow&quot;:&quot;none&quot;,&quot;endArrow&quot;:&quot;none&quot;,&quot;segment&quot;:10,&quot;curved&quot;:1,&quot;sourcePerimeterSpacing&quot;:0,&quot;targetPerimeterSpacing&quot;:0};fontColor=#FF00FF;" vertex="1" parent="12">
                    <mxGeometry x="160" y="60" width="100" height="40" as="geometry"/>
                </mxCell>
                <mxCell id="18" value="Topic" style="whiteSpace=wrap;html=1;rounded=1;arcSize=50;align=center;verticalAlign=middle;strokeWidth=1;autosize=1;spacing=4;treeFolding=1;treeMoving=1;newEdgeStyle={&quot;edgeStyle&quot;:&quot;entityRelationEdgeStyle&quot;,&quot;startArrow&quot;:&quot;none&quot;,&quot;endArrow&quot;:&quot;none&quot;,&quot;segment&quot;:10,&quot;curved&quot;:1,&quot;sourcePerimeterSpacing&quot;:0,&quot;targetPerimeterSpacing&quot;:0};fontColor=#FF00FF;" vertex="1" parent="12">
                    <mxGeometry x="320" y="40" width="80" height="20" as="geometry"/>
                </mxCell>
                <mxCell id="19" value="Branch" style="whiteSpace=wrap;html=1;shape=partialRectangle;top=0;left=0;bottom=1;right=0;points=[[0,1],[1,1]];fillColor=none;align=center;verticalAlign=bottom;routingCenterY=0.5;snapToPoint=1;autosize=1;treeFolding=1;treeMoving=1;newEdgeStyle={&quot;edgeStyle&quot;:&quot;entityRelationEdgeStyle&quot;,&quot;startArrow&quot;:&quot;none&quot;,&quot;endArrow&quot;:&quot;none&quot;,&quot;segment&quot;:10,&quot;curved&quot;:1,&quot;sourcePerimeterSpacing&quot;:0,&quot;targetPerimeterSpacing&quot;:0};fontColor=#FF00FF;" vertex="1" parent="12">
                    <mxGeometry x="320" y="80" width="72" height="26" as="geometry"/>
                </mxCell>
                <mxCell id="20" value="Topic" style="whiteSpace=wrap;html=1;rounded=1;arcSize=50;align=center;verticalAlign=middle;strokeWidth=1;autosize=1;spacing=4;treeFolding=1;treeMoving=1;newEdgeStyle={&quot;edgeStyle&quot;:&quot;entityRelationEdgeStyle&quot;,&quot;startArrow&quot;:&quot;none&quot;,&quot;endArrow&quot;:&quot;none&quot;,&quot;segment&quot;:10,&quot;curved&quot;:1,&quot;sourcePerimeterSpacing&quot;:0,&quot;targetPerimeterSpacing&quot;:0};fontColor=#FF00FF;" vertex="1" parent="12">
                    <mxGeometry x="20" y="40" width="80" height="20" as="geometry"/>
                </mxCell>
                <mxCell id="21" value="Branch" style="whiteSpace=wrap;html=1;shape=partialRectangle;top=0;left=0;bottom=1;right=0;points=[[0,1],[1,1]];fillColor=none;align=center;verticalAlign=bottom;routingCenterY=0.5;snapToPoint=1;autosize=1;treeFolding=1;treeMoving=1;newEdgeStyle={&quot;edgeStyle&quot;:&quot;entityRelationEdgeStyle&quot;,&quot;startArrow&quot;:&quot;none&quot;,&quot;endArrow&quot;:&quot;none&quot;,&quot;segment&quot;:10,&quot;curved&quot;:1,&quot;sourcePerimeterSpacing&quot;:0,&quot;targetPerimeterSpacing&quot;:0};fontColor=#FF00FF;" vertex="1" parent="12">
                    <mxGeometry x="20" y="80" width="72" height="26" as="geometry"/>
                </mxCell>
                <mxCell id="35" value="" style="strokeWidth=2;html=1;shape=mxgraph.flowchart.delay;whiteSpace=wrap;fontColor=#FF00FF;" vertex="1" parent="1">
                    <mxGeometry x="30" y="310" width="100" height="60" as="geometry"/>
                </mxCell>
                <mxCell id="49" value="With + at the top even can add images" style="whiteSpace=wrap;html=1;fontColor=#FF00FF;" vertex="1" parent="1">
                    <mxGeometry x="210" y="290" width="120" height="60" as="geometry"/>
                </mxCell>
                <mxCell id="51" value="SS &lt;br&gt;f(x)=ax+b &lt;br&gt;SS&lt;br&gt;&lt;br&gt;--&amp;gt; mathematische Formel oben bei &quot;Extras&quot; aktivierem" style="text;html=1;align=center;verticalAlign=middle;resizable=0;points=[];autosize=1;strokeColor=none;fillColor=none;fontColor=#FF00FF;" vertex="1" parent="1">
                    <mxGeometry x="50" y="400" width="320" height="90" as="geometry"/>
                </mxCell>
                <mxCell id="53" value="" style="shape=image;imageAspect=0;aspect=fixed;verticalLabelPosition=bottom;verticalAlign=top;fontColor=#FF00FF;image=data:image/png,iVBORw0KGgoAAAANSUhEUgAAAggAAAFQCAYAAADayYZkAAAAAXNSR0IArs4c6QAAIABJREFUeF7snQecnFX198/MtuxuCqlACJ1QQpdeBAQUrNQAodmFUJQmAgIBUUQFFKRYwFdFQUCa6F86Ciq99xBCCzW9Z9vs+/ne+/xm7jz7zMwzm00oO8+HZbMz97nl3HPP+d1zzj03093d3W398Onu6rKFixb0w5HXhlyjQI0CNQr0Mwp0Z23g4EH9bNBLP9xMfwYICxbOt0wms/RUrNVQo0AfUyBjGfPIPcTvfNrz6bZu8+V9WZXyf/NGoY7kGgp1qo7KwwnrLW6j8rvLu0S8r3G6Lu/+LOf24ltAkSOJLCJNWCZNd5PaKHoviV8yZuxPE0Ww59SeayBNZ5IWSQ0g9IZyNYDQRwBBorg3k1DpnYprr1IFMTUTFu8reJRshsrm1Vy+ze6MWYbSH5zhqic9oUIliajv9XaBcuVo6EoHr6SmN3zZzX8FEYnIdO/HuooRUADBlVAjRQON/ojq7SGUg7JpQEJPQJLmrYDzinFPCg7uXRGa8VwYwaVovXd3d+UrdOzo6Eo5TzzBsyLtVWqRV7v4Q9yWxHYxBmXJJK3ZIk5MoKfnveiLcH4jFukxh5G+hutCfqJ9x2MlZKXoF3JAHqSGfRcW8Kztubk756kdteGnIeN/Iv6Pr1f1JalPft4SZEvNgtCrBVQDCH0AEJJUXWpFkGLaProAQYo3LuBKA4RqaVktbRJhCcLIstIS6AknEMuL5cK3laxQuRxCsCD4Ukx5ETiIl6e9UDjyb/1dqS9eZ/QU9svb0xi2l6bPqWhWRaFcrsvNswMFmh9UVhY+SF69PegWKXqNJc044nTOK2LJoRAUBjyouku1UWn+8n2MgFAST7nP4KXoy/h4S/GNA64OXPVcXR68ejqXehwQCL4Wf1eazqRyvhq/3oqeGkCoRM7E72sAoQ8BQl+CAs1WtQqzFBcU6ilsL/3uqm+e+AbG/e00bWgq9G1lnFkxUVXnjeLh+Cvu0IMhpJmD4g0c26kAHEQ78NIgIbnflagowV5KkMc3/fTI7a0C/oyDArUZVxrldnuV+plUZ1wBVlJGYR1L05c4iKhGEVcap0CbB1c5yzo2yFrG8ULBopS3gCeCxvKtVAIM+Z13bJft1oibf89rIe9UqnNp6F1yNEWmCg8woR8/2WzW/ST1K9+X0Hohi1gEftIAnjRjzuUiWrlfuZ7ypQYQKi2JGkAIKUCQYq9jECKUn81k86bLOv07KeZTGqkXUyRF253zu768vqgytjQJIEgQ9aJbeSsefUKQ5aKdgtuL8xl/Z+vyAq6rix1bZL5NCRBicqlEN3v66kuBhFC1uymJzJj1DY2RYvAUoZsy5RftzkM/fwKwlALL7+a1E02DWmKjk+U5zdw4usZ2s6FiSVNH2jKVgE5YT9zSkbaNonUaKJK+Vn5YETo6OgzebKivt4bGRm9JcmDAq2i3tXV/e2WYBI5K7XgrKTYPlot3z/nPnKG8JxhNU2cSnauZt/j7cSADMIBunZ2dVl9fb42NjflX4oAW2i5atMgaGhqseUBzREsPMKDlggUL3Drk74EDB7pyPLzX1tbmfgYMGOB+koAwddCPjo5OR7G82yK+AakBhN4sPzZzVWqaXjXz4XtpqQFCd7fV1dXZkrY2y2QzfpF0R6hfZjUNeykAQsEb6lVGXV3WLaa8bzE1aWUCLN6r5nVXOm2cbw3A0pVDsDY4QdaVy7kFDDjQQzcRurAYAsXtNPiyLwFCdzYyTxbMik42lFDKRZYO19estbS0BMKn53YOentwlk7TFwCCp0TvbA6pJ9aDsF62k2YHp54kCejqeulLV9Nmb+pP845X6l1u/XZ2dFpDQ701NQ0IGEcU9b81p0lWHCk4/UYu9PpZKlmRrtW4Ek/3lkCzV+YobhRzU1OTAwnvv/++LVy40FZZZRUnF2VVQNHPnz/flRk0aFCejnzODwBBD9/HAcKSJUusubk5ESAImNEX5IvWQaJ8qQGEtNNcVK7fAoQcxxwrnWKIdg/JQS9m8xfMt6lTp9qQIUNs9dVXL/KzpVMl5edMvr2ubhB7p1tcAARn1nN+855+v2iPnuwPLCyhvDop6mdMOLn6S0QZOzNjV85mzZ5lzz77rI0ZM8bWXmcdr0jdlsvs7XfetUcefcR22mknRyPt2Nk2+XZ77pFQ8xh54y6LorGGYIY5wj4sIS6NnAIguPC1TKYEQEhWCvEZk2UEoSgg0auV+AG9VK2y7q1yCYdXbZvLgjQCCG1L2v1OuLHBmhqbgqYKkEuKH0WEQozTgHlHCbLLpczgwYNTg8keY8NUnjdhLYuR93RbpW3FW9V6AgTk0SOPPGIzZsyw0aNHOzqMHTvWgQKeOMAWPVk7rBu3scj6jY9oy5zw6Psk91INIKSdud6X67cAwZm+IoBQpBcVLZNBQRDpnLVHHn7UFs6ba50d7ZYdMNAwqo9YYbAtWrzIbrj5b3bAgRNss802s2w2Y/V1PhSYvTJrfUlHu0PA82bPtoceeND5u7ON9bbqmDG26qprWH1Dl2Wz9eaDqnEj1HsFm+m2+vqsdXVhijO7/7//sTvvvMv22utL9onNN7e6unq3g29saPRm0lyX1WfrnLDTo50MC48dEmq5o6vbofTOzjbLdbbblMkv24svvmgjV1zZtthiK2tqrLO33nrLXnhpsrW1tdsWW3zChg9bwSP7XLdRe1NDvXV2tDmz/D3/+rdde91f7bDDv2zbb7ed1WVyVp8x6+rssIcffdxOOf0su/qaP9uKI0f6QKbOLntp8mR7+JGHbf7ceTZs6FDbaeedbKXRo52Q4MlmvEXCC4h66+zqdKDB0alb8KHLgZd8hHUURpC1OhcZzfxapt4sW2c4gjLmo9bD8KVMxu/0sCDwvP322/bWW2/bKqNH27Dhw/IC7pVXXrG11lor3z8P1OpcG9BK5lJozw5KSgQBKT9t0hJNa5FwnFHGZxv31YflvUyP4FgsOLGvTfa9F0PJb5Yy5/dVO7gN2pe0W0dnh7N0YQWkzaeeesrmzZtnm2++uVN2zDO8+cYbb9gKK6yQN6tDV+aYeZ88ebJTjvAQyhEeaG/3a7+qeXYAwY+wmvf6iibl6nH84uRaTwvC9OnTjd0+64Jy0KKc1Y0yIUCIt+vWbwAQyvE07RbknqR5T0sgForaUx0F+jdAiCVK8uZvBax14lm3d999z378o5/Z4RPG249+/CPb6pN72NBBrTZ/1ru29dbb2FXX3WDnnvcTGzlsmFkmZw11GetobzPLZa2heYADCHX1dTZv5ky78le/sWnT3rXDv/EVu/df/7ZVRq9le+2zm9Vlm6w+m7XOzg5ramwxdGMmm7Ncd4fV1zVYzjL2n//8xx577DH70pe+ZGuuuaZ1dqIgUfwNzolJX7s6c1aX9WicBcPvhoZGa1uy2NkaMvUNlsvUud15V3ub1We6bNqbr9tpp51pzQOH2IknnWTrj13TrrvuOvv9VVfbIYceal/4/OestXmA1dfX+bjChkbr7mq3hmy3tXd22bXX32j33v8fO/74E23dtdexOuuyeuu0XFen3fr3f9opk861J5581LLZnC1ZtNjuuuMue/DBh2yPz+5po4aPsD9ddZXtP368jdtkY+eqyeZyTsgghDD9orydnxEhnWmwbKbe6uoZ32I3/rb2TqvDf9xQb+0dbf77jN+1WF2jdRN0luu0OhAYnwfrIwQItPHCCy/Yu+++a8OGDXMmUx4UAJ+1trY6gcZvHhTH4sWLnRJgPvj3yy+/7Cwl7CLXWWcdGzVqlK2y8ugo5q0vbEq+85dddpnjA6w25Z4rrrjCRo4c6crGFQ473iOOOMKuvvpq910cgPD3P/7xD7vqqqvsyiuvdP7hj9vDGNuWtFlHZ6c1YkFoanJg+/77/2MzZsy05uYB1tTU6Hzo66+/vqEEBQgwp1MWfoDG8sdTB9+xm1577bXzgPHjQLsQILQvabOurk5raGpyMkggWXwmsJ80bvFaEngWKFJ92uQkgll/DtLalixxc1h4JMOLnXs1gFA9F9YAQqgwnKSMjPSZbqdw7rj9Ths5ckUbM2q4feFL+9jpPzrfNttoffvb9VfbRhtvZn+49jrbbrvtbN6cOTbh4INszCqr2PXX/sWuueY6+/Zxx9kuu+1i3bkOm/He+3bOpLOtO1dnZ5xzuv36N7+zYSuMtk/uvJn94+932vgD9rM5s2fa7674g11w4S/s1Vdftl//5jJbdcxqdtiXv2J33XWXzZw507bcckt7+umnbY011rIHH3zA2tvb7JxzznG7n7/d8jf7+6232mc/+1nbeuut7Y9/vMree+89O3jCQbbqmFXsyt//wV57Y5qdOeksW3WVlS2b67B5c2bZeT+9wO64+1828aijbNMN17ebb77ZHn78KfvOccfZ7rvtYv+573675ZabrKuz3c796S9sxLDB9t47b9mvfvUr+/s/77BddtvdTjjhRHvn7bfslptusnenvW5nnXm6/fzCn9v/nnjZ7r7r79gu7MknnrDvnvg9++Qun7ITTzrRBtQ32C0332yf+MQWtsKIYXbxJb+0h/77XyeMTz31VPv9H35vb017y4YOHepcLF/84l52z93/stGjV7bdP72LnXPOj+wnPznf6uvq7cc/Pc+5OrbdZhs76shvOgvFzbf+09ZYe2077OCDbNTwFdzup8u5NzTHBQsCAuiZZ56xl156ybU/Z84ct4tECSDwAQ0IQsACSoKdJA9Agp0m4OH55593CgPlsMMOO9jKK69sQwYNtmwdgW99BxBok/bpzx577GHXX3+9Aybxh37QV77feeed3c6WcSK8GdtXvvIVu/HGG+3++++32267zU455RTnJ/7BD37gym+66aaO5wBA5QR+9WLnw/EGtFiyxPvSBRAAAc8886wNHDjIMhkfAAe9x40b5wAk9Nh4443d55SFL6Axc8EPwAt63XHHHW4NrrvuuiWj/D8cVEjfizxAyOWsnRgEAEJjoxt3qMArWT6c5S86CSEXQtgLWRf4LOl7le22LreWQ4DgXZHJa60GENLPtUrWAEKeZt7nGLJWVydRzu0ueOmxhx62b3zrCLvuln/Y2quOsUXz3rOrr73J7nvgYdtqi03tttvvsCOPPNIef/wx22D99e3ef91vixcvsit/9xtrqDOb8f50+/KhX7VsfZONHbemDRq4gn3tK0fb8y89Ylf85k929lnft1v+dpPdfde/7K4777LPfX5PO+HE79i1191ghxxyqD366KNOWR1++OH2k5/8xNZYYw2nlG644QYHHo466ignmDZYb3278YYbbOdddnGKrbGhyVZaaZQ9+dhjtsPOO9vV199g3/nOd2zbrba0uu4OmzVzuj32xNN21jk/tq222sq++fWv2I03/NVuu/NuO/vsc+z999+1m2660S7+xc/thG8fa92Ng+xnP/mRXXThz+zAgw6yW279p7W0ttqGG6xvt9x6q+2z33j77a8us++ecIz98hcX2og1NrVLfn6eWXe73feve23SWefa0cd+x/Yfv59ZZ6ej95x5c+3U00+37518sp3/05/YW29NsyuuuNK+e/J3rbWl1VlqbrzhRptw8MH23HPP2bPPPGOnnvZ9O+P0M+2KK/6fHX74ofbna/7iFVxrqx2w/z527V//YuM2/oR1duVsn72/ZKuvsmL+rHU+hMEFqmWcUsdd4gOnOp1bw+9gvL0But9zzz2O5uutt16RMOQdLAcANOJQ5FZAaMq3mmgqDxMaVVi38fcxY48YMcK+/vWv2/nnn+92sElHzfQe1g2sTyh8wON9993nyhMgxthRdg888ICzgnzqU59yO2Y+D6PT80K5ipjmcoqilMskiValyFMqaLJUnERSeQXbMV9yMfi4EuJTvCVKyg/ABSiAB3SiQXWG/vnXX3/dATiALfxQaUylxhG3+iTNQZJ7qdR7SzuHooOCFOUGiI9P5UqNW7EDSxPP4gORI3sgXhkXhyQJXrMgVA8Fkt+oAQRHFw43eTO9fzBd4cv2QYC5XIf9+U9X2c8vutwefPRRG1iftTdem2ynn/NTW2OdsbbNZuPsmmv/auM2HGf//vd9NmLkSjZz5hz7+QU/s402XNs62hfZtDem2V57H2h777ufbbfjJ+wn511oh0z4pi1cMsNu+7977Qdnn2Y//emPbcUVV7Gf//wXttFGG9qA5nr73imn2g47fNIuvfRSW3HFFZ25GIvBgQceaG+++aZhRv7zn//sPt97r73t2WeetiOPnGhvv/2WXXjhhXbQgRO8IvnZT+yfd9xln99rbztz0iRrZcdT12VPP/WktbQOsYsvvdyeevopO/47x9orU6bYX2+6xc499zy7/PJLbZVVRtukM063I77+NXvtndl28EHj7aH/3WdnnfUDu+zXV9hqq61ibQvn2HMvTLHu+gG25Sc2sy8fsr/t9YU9bb+vnGBHfm2CZTsX2r333ms/vfAS+/YJJ9vnP/cZzjLZwvkL7ayzz7JMQ719/7TT7PBDD7HVVl/NTvneKQ5w7b///jZ06HC77bbb7cQTj7f33nvbfvazC+zk755mDzzwoE17+2174cXn7JprrrEJBx1im266iR16yEH2wx/+wF5/8x37zvHH23777uvAkBMiLqFL6JcXQEDAxHce/jiWAhAdZ0Q78FDYKriq3Hnw+PJTMGmp0xblhDlxD4ACKTQAzHHHHWeXX355vhnt0hQQBqig/PDhw52FaPfdd3eWD2gMKAAc8txyyy1ulww/0Ub4VFJ0SSImCSSUUmrV1l9OwYRxF/ndUMyK41wMUTS+AEK5AEq+UzyClFy+bq+VHdgSzfmd9kRDWlAjHkw6Hlmgf5BxM2FSekvnHgChs9MfZ67ihI/6n7SW0ii1otOLAATXftYI5PaPP5mUl+NBpTULQhoKF5fp1wChcIpBygFvf7S/7K43l3uAs8/WZied+F371/0P2/8efshardNeeel5+9Z3vmcHHnqoDehus+deeNHW3WADu/76G+34k06yTTbZzFoHNNvgVlKGdtjUqW/YIYd9zY497gQbNnyAnffjC+2A/b5qc+a/bc89PdmOO/5oO/2MU+2A8RNszTXWtBdefMEWL1lg99//XxcbABDAZImV4He/+519+9vfdtaDGdOn2/dPP9323Xdf+/NVf7LVV1/NXnppsv3rX/9y0dSU2WjcOFtjjdVc/MGNt/zD/t/vf2dj11jdFi2Ybffde69tt+PO9o/b77R77r7HvvfdE+yGG663V157y7kNULQo3aMnHmHbb7uNnXDK2fbgf++z2TPes6OOPtou+uWv7Auf28NmvPuazV/caYd97Vve3N0xz7742T3t/F9fa5/cZpzVdyy2hx551L572tm29/4T7IhvftXeeetNe/H5F+yKK6+0ddZfz4459hjb50tfstNOPdW22GILB2zOOusse/31N2zyS1PslFO/a3PnzraTT/6e5XJ19tOf/MQOOfxgW2HoEOfOOPSww+yQgybY4MGDbMqUV6wjl7XBg4faEUd83YYOanbCLC9G8oF7IUCILY6oDABAQVDsCMPz8BK2Ep6lTPGJVoQUboek95588kkX40BcwIknnmjnnnuufe1rX8vHE0j4Pv74484SALg89NBD7U9/+pNzHyDQ4Y358xfa/ff/23bYYUebPXu2rbHG6nkFp+NmcZHSW+VSCmgs1S4ylkQqbKMagIDS13n+cgBByZUquVs8eCifO6E4H3aQ3ySMB4lAR9IclAMIaUz86VSFXHGRuo3AQN6CEOVByEbHOkPwHLocQlDgh+SBltuWucBkZG6pw8AC7Qk5IRytfC4L1nYBINRcDOnmt3KpGkDIC5nCAUFZEHzUfM7mL5ht3z3pZJs+Y4794ao/2aABDTb1lZfsh+ddYId9+cs24+037Mmnn7Vdd/+M3XTzLTZn7lwbNmykTZz4DdtgLAGFS+ypp5+ziy6+zI455hh74aVn7MEHHravf+1oe+jh++2mG/9hY8asaDNnz7BP77q782s+8tij9o2vf81uuOFG+8Lnv2iXXn6pAwgIlhdffMGO+Oa37Pe//707aXDsscc48zoBc9tvv701NjY5C8Kuu+5mc+bMtikvT7EZM6fbPvvtZ3ff82877vjjbPjQIS5u4o9/+H922OGH2+Qpr9qjjzxiB0+Y4ABIZ67bKdybb7rRmdA/u+cedstNN9oPzzvfbrnxr3btddfasGEjbEl7h+22y842qKXRbr71HzZipTG26mqr2oQD9rETv3OsfWHfw+zwQ8dbQ6bTFi9ZYjffers9/sRT9undd7XHHnvUxq61lk199TW77/77bdXVVrOpU6fYLjvvbHvttZddcMEFLhbh6aeedoFj3/zmN23MqmMcoPj8Z79g66431q743RXOejB27No2/f0ZtuGGG9paa6xpb77xpq26+uo2csVRzk9fr1SwStbkMub5LDW4SCoJVQVUxXeOXi4l76LSKNO4IitWmL7u+ENg4a677upiHOJtlFK4sijIyuHfKxzlS8qkEJqC04xF/UzqQ5LCjpevpo2ktpLEneYn/p3GVs6CEJrKVT6u+MJ+FPc/pG1Sz0LFV7hCqzDb3YVko95/EfFrpKxLhLSk4Z/KaqEHtaIPPJ+HAKExClIEQHOagOBdudlUVgAstMBQdtas2TZi+Agb0BweLy3ddqk5LD7FUCiVv5fBxZVlarc5Vj/x/TdREkxbnAfBM5GYyv2V8UfZZs2a6XZWZF5raRlkgwYNdMcQZ8+a5XZiKL558xfYsGHDnZImqAl/NccUMTEuWLjQZs2aZfXZehswoNEGuMQfzW6XAfpFiQ8duoLLKdDcNMAFilEexkcJEBBE/Y0DBlgjRxQ72m1AE1H0i5yJdNSoFV3/CEjkeB47y3lz59mcOfNs+Aj/99w5c2xJe5sNHTrM5VLgIUkM+SD8aYcGd28KQm5J2xJntsMkzXf4pqkfv2qum9MEGbfjbG7mhIFPQzCgqcnmzZ9n2UydDRzEUVBzY+CKVYL08pe3RLsQgrmgLacUyGK3YP5CGzxkiMtuyY6kOTpTzm9OM0AnjowRrJhx9Zk1NjU6ehNrwRjbFi92c9jS0mzzFyywumydDWguzsBWiD8gQBGLEcccmc+80d/RxperJORVJlmR92I9Vv3Kq6++6qxKPRRmkNO/6kqX4oVKLoWlqLrCq2GW0SRYVQy0pPBZY1JgSTkOlr6/pXfAydm8knfK6kelpFtLY5GpPFZP4xAgNDU2ulNE77z7bv6Io/IfUN+CBQutrW2Jc48qWRoy0x+19pkY3SqK7hdJ7kMyDUOQp0yKhfeJJwuoVUuUVHl6E0r0cwsCaT6LqaI/Q4WmHaJPJyyzm5SHfNo+7bJTFdHxQ6J8+YhcBi7wjb/xS9YT38BC83ng+YOFsnjxEquvq3PRwa0tLdbe1u785r6l4vvllEsFBc0RP9rQuWKOCCJ8ADQy//n2OD9JPgEPEPhbQVQAAxIfkcvBteXytfhESYAcHZsERXDk0R2zdB3rNlJOAxrcjXnOhu+jlN1xy+7Ih+9MihzBzDhQYlFWRZ8gJTIx0keX9yi6/CWKdCb/Qv4kQLTx5T3GK/M/wt0ZBJT1kHFEffP08E9BZBCE5ndpHiB4eOjK5HkiDUBIv+4y0U2WlYR82ho5dXHeeee5GBQnZL2kLQw0yhPRk8P7qgc9e7psFVQ5yiSb6f0bPecxrQUh7VyUV2zFnFcoG7fglCpX7JAo1ac4OCtYNNLwcboycYBAHpaGxgab8sorDgAQv8Lmh3UOcF+4cLE7ej18xHC3mWHdckoIN2RooSmVxrowfz1p0xMgiDJBLJnWRQ0g9IqV+zlAWOiUhJ641c7HIPjMgGE2MJlrec8xNso22hl7kOADZ3QzWv5ugnxDUU73IEuhdFhdXcYlPWL363Y2WTKNRV4659fk3zkXVBkuKh9M5/vS5RRj8Y1/zrzX6a0FLh9AlLGNci4Ir8tnanTiNEtWwEjPRB1TpjOfBwqzgcaQc7EaPAAHTgWoLyhm2mHH75V11Cd/fDkPVjRO3tMFNT4Xgh9w0e7CAQhfnwLCBEYcPbo0ZwWfZJivMf8pwIRMbtk6a2lujQBCwAmBni0lpIrNzeV2inEOS1bQxSK6cn1//etfXQY7TrWEVxYXEEIIiJJs0qHftrRyqk6yFAfI9cZtUF17npE8OBLPVgZAcQuCghRdNWFiqagzlWsscEk1ZTXWwvmpmKXDdyhIrR7+O7oqIrbWi+intRad0AprL961pwMIjkuiREld7nhoo0u3PnvObCdb2lxyKE7A1LsTH758t7MUshlhrWPtSzohU+28h3NYSJQUjiOSxa4T2ZqLoVoCw3r99S4G52JYtLDIDJUkQkvRtOA19AmD0wqF0nNUwoxWQkD16KtcyqXCfdzFRKGHs2dPZKmIMvsEBUIQ5ZGDTPBFZrwSg4vTJkkUVVaH6bg7zRw6UkW+VHIotLS09rhFMmxNY5Xi9Zkuw+swAuJXDLZKVsTF4w9HkcxZxImQ2e+0005zwrac+i+orjgNi9RFmUCxdLQvbmfpV0Tizr/HeqhMq6TeF/nSuawpOuYYL1uJL8PvK5UtVbfniPIcUIqvK1O5sKppRxuZNDOaYHeJgi+7nGvP5Y9oaHRuz3wCWgeuojeDq6PD9spZmeJtloYtBSsjLowwg6zWaWG98q+sDaxlUkwz7UVl+jVAWBRkUkyjWJIXeGRad1+WryVUpj3tFt4sz24hv8S8JgtEov+3/39p0dAzUUg5MVKoPwQIhSjp+BLtedd6Jdp59dlTfPbsVXmQ1FNpFz5JEtSlVoPfV3gFjzUCP2phLx25dIJB9QgEJJ2zHpeSO+H++RKNcwKB5ES777a77bzzTqXhRGBlKeasjP356j+7OJe//e1v9n//938uMMyVSZjmgrskzp8MMAJ74eViRbsRYJU8AAAgAElEQVTnJPFc+KzgcPMAOQxqdBwaANKCUiie43JBlsoQ6nqecO11GGhZSpEkwQe3vqIbR+WmYvcrd1vSOMoqtbxbp3gCqrfPeLeXs5oFssTXk7Raet7F4hkhkhDxS+Ming/dqklyKGDtwN0WHjbwmU3pE3TzN9km30rpel5CQCTFHSTdw6L1WrSknLvOo/RcrmD9FCjw27bQNZN1sV21pzoK9FuAgHk5BAhFqiZaNeGxnTCKuQeJ8wugsBKSVLIDCHGpUbCLFmu7fLkE1ee+K6H0nTuieEWW2+WHOxevYKK7jsNVXaR5SrRbCYP4gIWAdFEfiw82K4rDy7noDVcyXn9c6IR0rbCtkuAQcMEdlHcNxWinux7yQrMI7BTEkTqYPO++XEd7h3GvA0dYn3/uefvUp3ax7XfYIXHFxqGSaPHbK65wLqH99tvPHW39+9//7gI64+pflSYK1yLq+pJ5Ggd0dW3GBlRk7c4rbkBSYOJPGFGh2hCQllBw+fdLqf2I7t7f5vsP3yccGxV75d0G0Rp0ACHGVEk0CIdSbm5duSSAVrQadY94UKtkjWvcjze8jTTKJpzMI8XehmL5ETKAiwkKvi53vDZyZ+bHE/JDOL5oMyPm0fyHbjf6np/BgKGluhPEZk/56PgqmU963Oicv2uEhuOTUbMgJDJRhQ/7LUDguueFsbsY/KKAbX0Qn0+1yhlpdozet1758UtCuraofOEelvjHRX+XANxRmfJC05m+450s0a4LOCoSJKGMiSpK2pZGxXpgnQTipClT1IX4li8abnmaVJ6VZAkb3TydEMSWp2ECECnVl0pzTgAXJ2JIefzKlFfsgQcfcDkIwlMIxQqp2yZPftn++Mc/2KabbeYSPr3w4ovuZAtHYbmfg9TQ3JmAFWTPPfZ06ZN5OCWCpaG+ocGBCaWGVv0ElPEeWRU5Sjpq5Mi8EkkCJ3GdUi6hYg86RB/4ekujtzj40P5PcUJqs7ACqEtJcXIeIARARc0lzlePdeI/cCG6TvH6txy4jhRx4k44v7a8ElPwsNoO97HlVm5R3QGCLVKiFYFvPsy2igURySt/P1xhhhKIVkoUJPG921yFYDvGVOFcCxsV5pdPfIdcvJfWZ1SHQIib+XDP5YKbI8tVrLPkXGitWRCq4AtftN8CBEyLixfO75kjPzoz64gTBfPBkJwu8IKiWOUVmUgjVO2Y2lnAYqss2vHwecEq6ZP3hAsqROHaeMfXa2GBEfjnj+s5YaRMgYEo9sut54rnvQJAiMyarqLgjfxr/mREKIH92KN9eOKuxH+nJZ4HAhKq9JVUtgHb5gVl/kMvAUKaObkgYRbcUCi6FwkmgZn8vEUSJTopAR+UCqRTffFVVVS/E2C+M6JGcfCiF7z+WO0Cd3mWv+HPHwMlfgDgedFFF9l///s/68x1ufTShxw8wfbeex+X9pj7H/Cfjhzlb8QMHzIkznh/JjGjLksi4IEyXPzF0TMS0ZARMTx6pvdJHcxx1dVWW83u+/d99ta0aXmAEWKmslaDaDLyvm1MviUQFKc4fPf9HOSpFiwpR7vIySbF4AFCcaUh78n/HM6DxugO2LpGC/NeUDp8GoB+XE5a+NGaDMdeZFTTF9HcFrtTelpe9L1XhoWxuDXIGnCfFScNKrJ+uCEUNHieZC6WBh6WvPHWggJJNfboGmlHSQKV/XrGO1Y45eNp4WKOIzkgy5p4vkAPrftC+bgs9EHJkXUnmhBZRFQPv9vaO9wNrJGfKj//XqJFAC22CN0JrMjyR5AkfL/C0KEeUFBXHCB0Z611cM3FUC1C6N8AoaQFwS9ghPr3v3+aPfbY487X5nOPewHmlUFycKJL25wgJL3wK6hYyUonUEOTXZlZzAsaF3RIQYSKzxfvHk5dRKsvLyRiypb28ruFKOd80c7ODS5yTAQAodhc649FQgF/bDIGHqLz0vgnC8DA77CcYMrv0ELZ74GVHh3wlOYtAAlPeSeiog+lOOlRQTaosuKtlwLUJKuT7EIS5HHwwIkN8j7kBZ+rugAQHECLjoa6qO62Nmus46ZJf+kTO3kPIPwoqQ8BPWfOXHdenJqIiyDXRmtrcIOiNsdR/a5f4S5XArjcbjeBr0S3RQsXuSu6ATCc3HE5MKK5yyvj/E2nQUURE/sDOfyRs+7oiKmvu6D0spHf2Atxp4ry12YXd80rFs8pkeKLdpPJ6yQAxiF99H60vLzL0BOec0D+Kcy+h8WFpwBW/PHb8HSD+uZwR34+i08OxcmdxxRFsRn+/QJA8JZL8YYI4e6GcI1CO88M+cDAiP/YJhR4X3DV97QALB2HRXV5ZinA+IgnA6uJ5J2TMnkQUuB5/ctbT/z49bhW3JwX07kws/5t/4p/3/3L/V1Yu0V/RpXTTkO2zt3iyK2pp556mu2ww3b5unq4GAAI5Gcp516JT1jt735uQUgECCwFL9QQ7scee6y99967tuuun3JHdeSnL/LzR5eG5HV0dARQC1g7Si+AXDYAsXkR0g0xwoABrS6NaDWPU44Zf/wxjJlwu+/iNZ2vtocfNlpAdVlyG3jXSvETCR7uc8912SuvTLUlSxbbJptsmi/Guy7YMr/gixW0CoYbOycSAr8wfvZ8SlvnUswjgaLuhIBJwoZ3yQ3hhFPQtN+N+A8cTaLvCvMkIkV9j5SJFAfHR3m8aVOfFuqUD5y6ycvALoeTBosWLHDZLW/9263uhkz0brbbJ4/yBztjACavFIvQUmznGbyTK+zMnYmbvBTRvRNhwFoSL+UFZrTtdPTMZuymm26yHbffwUaPHp0X+sW0Ls2ZkCbkQQ9YRTfPUt7iYHb77Xe4S6QATi6XhdOBnv7cFJjf6UaAPBu4y4ryVURz5RVMkNlSOTbiXJygKNyMOvbudsl/+HGQJ8rNIfCXrwpaRceFPTz2qlagxlsqfF6PUo8DurHvtYY5gnvP3Xfb/Hnz/JXdeddHcX1wUVFgYgUl6K85DzYV8c5Fm4y4MnV07bEMC30JTzK4+XfgKQTpyXIgkS/9IvXD8kxdUP7RHNdlyCr7kp15xiT74Y9+ZLvsvFNEo54WhNoxx2o0SaFszYIQp5vbJXkF3t6+xI4++mgbMmSw/fjHP46u1A2FdpQkKXSEuTd7LnrH75Hgzy+TaPfh0bffhWec2d+j/KLdTYKS94LFv6NgOm+K7ymQQmRfbA7tWV6IvqDIffxFeIOdbrm7/777bNbMmbbvfvv3VHSx89lx07v+Lm1+jZR5EaLwf8R39lL6ZZdBaHvN15nsFZcFwSus4khs37aHen62cz1orkueuIKaS7W46fHGG29yxxLDnaoDmm6+CicKwrGU8gsXgy+fF6Lgq/dWLgnX+Hwn/h3t4tzIIv755S9/aQcccIDboZV6euyqUeBR3osiPoxcB/m2I5Dw29/+1j75yU/mr0WOtyN+9laHYnAnQBzyaY9+6r1oTPkddgAoQg9GXqlrbiN3YSmrYD46szQGyPNr0rqM81a8/9f+5VqXafWb3/pWqiu3k9ZYSB9tcJAypeREqV22s8BELsyikxbR2OPqX2ML3R+9U1PBYg3AdK6zy13B/fWvf8POPHOSOxWUd/RhaYle85ujWh6E3tC+3wKEMEjR83cUKZvfGWasvb3DJh55hLUObLXzL7jAhg4bmqdxb0xVPRRiL81daZVjKCzi7yTt7lXGJTeKfJucd3aCIcq+yL8xPys9LZdC4UtHkcSfpR1vXJH1hsGX5p2QfkoTK7qF899DSQbAiGyHAIS11lrL3ZR48sknlzVzxgX80vS/1Ltp26Dcww8/7C7OiscwCCDK9ebdbwAVn4xLl1qFfQgVvD7/9a9/7e6VWHvttYt4LHyvnCVKlrI067HUGohQXtHBOG/dKrbthG0k8WZS/QI2SrQmQIEbxyUGiwKfRa+uLtZaYfR/+ctfbN68eXbEEUfkLSNO3wWxN2l5JO078XWbNBdJbaatv1R/FQ8Urwd+CuWPk9bRGnv+uefs8MMOdzfc7rTzznk7TlGfI6RA2vfaUx0FagChh1bT/i7j7gA4cuKR1tLcYudfeL675+Dj9oTnwBmbT13c5QDA9Onv2+TJk92QV1ppJZccZcSIEe6HWwJZpPfcc49Lr5oEED5OtFLWRk4HQCPGL6VZ7krfp59+2riemVz03MjJzYpplNmHhXYIa6wgG2+8cVGXpPgYy4IFC+ydd95xF4dxtwF3YXAyA5dcpec3v/lNHiAsT7pgfSgOZlXgZHinQ2mAUA58SYGpjL/Hxac1Fx95AJ5zQaJkFiRRE0CbQNP6+oZ8XAsXkQEQuJb74/7AU9CHwFzcu6wr0SbpBk3KT37xJZtwyMH2wx+cYzvtsnPJgGNoV8uDUD0H1QBCOYDQ2ekWZl8AhKVF19VPbeU36BNKn5SoCCaEO4F02gGSL72zvcPdTjl33lwnxBD6lOGoHs9SAYQygZlp6JVkTl1WSgYLAkILZYkQ47plQFOlfgog4GIgNfIZZ5yRn5ikvkJbwEe5J2knXk5hxU39vqz3mocR9aojvjvGzXbJJZf0SFYkgc5lXvAQpy0Q7vDG0BVWcJdvlXJ5qa0kC0LkyvdFgqA35RwnqDNuyalkrYp/j0MHH7ZnQXeJhy1cuAj/SP6UiXtHMTiJQYqF8/nQAIWGdS3OE4BtfubMmeN+u4vRurvdJWjPP/+87bDDDi7+grU0btw4d6pEz1VXXWVz5851sVDxJ0z/7klVMPI7+nCiJIzHiMpQrpTCTbKGUbfueSm15lw4Bne/BJbGsL9J7cXHw7pCHuE2IPkX9EEucfFdKXcIG5gJEyY4C8LOO/cECJ7L/aZv0KDy66qyxOx/JWoAoSRAMKcIAAjcWnjBzy9wZ8/1oCzYGbLY2RmwwIfmj9lECzBaoJiZeReFy01moSAOBZeEqXYX8vlr4Yd/5wVvkaMtHQOrTRYjO+IXX3zRXaDCLhAhv+WWW7qFilLkfP1LkycbGQARXJiCaXu99dZzi+7ee++1mTNn2Pjx44uimF977TXXGXYAtIGCzMcwRN2MXPkuedAqq6ziwIeEnjuGunixUQ9Ckz6jfJgT6qSup556yu1s6Y+7uyG6qInqXaCk04OBc7gaWkXmZepkh+xv3ZzjdiG099xzz9kuu+wSNVHsgA6FqAACV04rLoH6CF5E+PFv+AbeYEwohMMPPzwxCyE0Ya6on6A+jnYxbu3mJfgpFzeHU47PX5482cauM9adVGAM4zbc0NGK45A8ch1I4SjY8PXXX3eCWg9gkp0tD7zCOmBNAG4AOZyKGDiw1bU5dNgwR7ckJQFAgI6ACh/M54++Uscbb77hlDWuvrHrjnVivosjgcH9HIxL64Xf8IcCXMUPoo9oxTw+/MjjNnrllRzIGzlymDsW+vCDD1vrwEG20cYb+YvGuG0wW+/G2dXd5dYwdcILrg0X7+PvNnniiSdcQCeWIiwBtMm86qIzPps6dapzNcHnZMJEfmyyySaONlLAzC9rTAGbIUAo6H+/FriGnfYAZxtttFERXehb25I2F5vE3IR8EoIUmeo13/zNehWPbrXVVo6+zLHuT9A6LgIl3eayK3IfjGgXrkf6IJkVApnC6SfPWbQLLbfbbjt7/PHHnYXl05/+dCLvUB95QEoBhAgC58+y1ABCOv0QlqoBhDIAgctIjnAAodnOv7AYILDg77zzTre4WTgoQN2DjrDn+zVXX90ydXUO/X/5y192AgJFwY4AQcr1zCwWKTydiUfQcI0vYIIyLG61w5l2r/d8cGE8Ej8NC0iRsBtGySCsaIvFSTv8zQ/fMRb6xUJFQQAiHn30UZfFL5upt3vvxcUww8YfMN41rcV/9dVXu/cR9PxGGSLU+M2DEOHfCOvLLrvMDj30MFt11TE2ZcoU1xfa2GCDDezf//63feYzn3FCGbCAQKdvuDn47pBDDnG0ArAgcHkXGpUz+6ehkZQlQg4/PPNL/QhPdjf0f5tttikZOCYFLYCw55575puFN/70pz/Zhhtu6JTPqquu6pQrf+Oq+f3vf+8UBvRinCgAAgXhE/IlUJ752HrrrZ3Vh/eYF5QKvIUwhgba1SLcmVsU04svvuBcAcQV3HzzzXbYYYfZ9PffdwmVpBw0b9CS+ac+EjDRLykL+BLXEt9rPvU3cw7PMJerjRljAwcPduAyKReDAMK6666bB5idHR32xJNPOrDKfDNWFCC8gtKlfsZCoqhPfnInI58DV59DF0AP65U+o9DdPRWZjD9NsmiRc2fQ9xO/e4p96YtfsIGtrbb11lvY4kUL7YH/PWijVl7ZBUy+OnWqKz96pZXtjTdetw023NDRkHlizOSfYE7gYeaQWBzoBphlQ0B/GT99AQTAo8yfxgnN4Gmld4afBM6oT5uRP/7xj25OjznmmCK25XPAAYCDtQLAZvysDeph3NCLPtEH5oY2oB38BF15B/7hoU3Kc6KEdcb4RC94Ht6ChtBAx5tlUWRuGQvlKMPa22yzzeyBBx5wYIc2oRPruafFraDG+Y7+AHzoD/xLvaydJHBZHiCEpyecxHSAdVlZGNPKlI9auX4MEHK2cNH8nvMVJEryAGGiNTcP6AEQWEBXXnmlU0wIaJ4HH3zQ+V5hahbHcd/5jg0aPNgdUTrhhBOc4OB77aZQOAgIFhgCZPPNN3fvIQRZ4PygxFlYLBgWr9+5Fx4foZuc77yHyTF6TTux//3vf054IWjZKaBkWPSY+FjQCBCUIcIBZYHwQbkh6BgHu6d77rnXZgUAQSDhZz/7mXsXJYYQu/OOO50A2WLLLdzOAEFJ9DqZ/BB2J554kk2Z8rITKOzcuK9AoAplh+DnZ5999nEKGwGM4oCGLPovfvGLLu3wF77wBUfPvhAECiLjvgN2NCisadOmOeWNWZh51A42zkilAIJ2s5wQgK6ADBT4XXfd5axVkyZNsv33399ZCP75z386hYPQxFICHXlPlgPM0zvttJNTRMwfddAnduOAUYAmbTz00EOOb6Djmmusaaec8j370Y/Otauvudq1zwOQoQ2UA4oGRcB30BLhjFUJRUT/6a/M5fQTQQ5d+A7lSf9QpFgd1lt3XZsxc6ZTeD5BVPFZeQDCpz71KddnWQLmzplj1153nQOh1AcAYJ6Zf9Ya6wxFD604/w5fTpv2pqPFHXfc4dqi//QJGjCOa6+91o2BtYjiO+vsH9q6Y9exMWNG2ytTpti4DTZwvD95yhRHK3axtHnQAQfanXfeYZ/9/OedYoXm1MctmtBJQYaUh3dRvI89+qhNPOooF28CsGStYO2Cn8OMlvCRgjwFslCwKH7WDvTAgsDax80TPtCGa77pM3SGjgcddJD997//dWOnb9SBcoaHuLdD/eOirwMPPNCtadYStJdJHzM97VEP8gfrHmuVOtgQ0b/NNt3M3n3vXfc+/AX4ACzRJjyLHMMF94tf/MK+8Y1vOL7ca6+9bNttt80PobA+oxDxjHdjwFsE9d52221ujqkfvq8WIHBU1p+wjI5lO4BQy4NQLUCpAYQ4xWIA4cgjj3KC7WcEKUanGBCECOXzzjvPKSSYF2Uq3zy7wzFjxrhFwSI75ZRT3EJh4fEe1gMEhQ8EnO4AAIKNRXv77bc7RXfhhRc6IYwCpY1bb73VuQE++9nP5s9VFyzmhRzvxea74sFpURJXwFE0hBaLH0EowU+ZxYuXOJAy7c03bYNxG7jxI/ARzCh1BIOsEB4gzLQDDvSnGKQAjzrqKGc6ZgwoHp8kCFOuV4YoQUAIwg2aIETZHXPsjR2eoudRPgg8FBi/P/GJT7i+IIygHXTCr49ixNzI55QJz+EXAaoSuRlK+TiZI/qC4KdfABOAHoJsxx13LAkQtFNKsiDwHTwi8ykA4Fe/+pWdfvrpTvGg8LbffnunYJhzTKzQil0zfIIwBiwef/zxrgxWFN7/xS8ucnOzxx6fcXkMUO4oKJQ+44Mmn9tzT/vhOT+0H593ngO99AWliXXgc5/7nANx7OBQrAho6gAEIfjhPc2xzND0i3+jJOBp+B1BDEhGsbP7pQ4+V9BiyKMhQKB/vAevwO8oGuaV/gOk8dGj/OFN1swf/vAH12eAD2AXkAj9qIc+8D38yvhQipwEAHAAmF555VUHxvfbd293/BQLCbkz/hIBCXietQhvnXnGmbbzLju7tQJdaRNFCWAUsGFtANJQwrSF1ZB2ANTMF4qO8UBXt58NXF8AYmjCvGMVQ9GrjFwMsiAIYAE2Lr/8cgemAULEiAAaAD+AGMZPf6CLgDh8xkaF1NrQiod02+zQ6Rc8zhzSB2iIkmatMkd8d801f3FrefTold2cCBDSNrIOnmWzAcCBDrTzve99z/ET8pF+xMce0kEAgc2XrB/wFnOBPI2v0VIWhPydN3nPnz82XrvNsVp40I9TLXs/Z2ULwpETj7LmAbgYzs8fc4SR2dljVmTRg7JlRmeHw24Foc5CYXE89thjzk/GDp13MBtjrofxUZAsRpQP6J3FSf0sWFA77yPk77//fqdE2QUp8UoeIFR5XFInF2ibdvgbkICvl5MLXZ1dtuaaa9kzzz5jK620or/WtbHRCQkFUEkB3nvPvTZzVuEUA58DhAjIQ/Ag6NlxoSg2HLehvfb6a85agoCCbggyBUoiIBEEtMFukZ2DjhdSBsWBoAU0yNSMzxZlieKAhnxOHUlP3C+fBBzCzySwEIYoXgQ+FhfogUIgVkCunlJLLwkgUBYaUD+8oN0xVglAD0IeQU27KD/ojpJBWMJDCFu+ByzAZ+zs4LupU1+1hx560A4++GAnYAFS8CD9ZU74e+w66zgLzjbbbGtPPf2U6z/1oexQ9swf/WFemAfoCkCA/tBeyh2wxg/fM0fs+ngfhU45vmOMMnXDt+x2BTBEL04xKAZBn7Erpz/Mcz55Uibj1gp/y4JC/awNykMzxgHoYryAcL6HfvA4/fMWsWZ75ZUpNnjQYHv3nXds+IjhDsistvrq+XXA2HkfEAAQASAq9gYgJBcMNIbXoCtzA/iA/5AN9Il6ADb8VvwMClY0DPkRiw/8hWkeUKgnKUiR8RETBDjRqQiC9RgnNKaPtK94CFl5mBPax0LIPNE3+I33mCfkEXMNYOcd1iPfM3dYA3bc8ZP2wgvPu40MYAP+5R36Dm3lptRcANY0FvgHusUtAXGAwJwDwKGDgCd9VQrxsHwSQHApmz2XFS3JjNVZS83FUDVC6LcWBCdUygKEjFOUHHMMAYLMoCw2FgILCwGpHRq7DhYLPl6EDDsI2pJbgQXHotJi1L3qlGGBIeCok/pRCgo4QzlK4DDLboesdRAkfUnLARKqWBEQANOmveUuBlpnnbWio2qtdu1f/uJcAggV+ovQkEk1m61zaYLvufcedwFReMwRgUn/6S+/dbyLnQGmy89//vNOeCEMoBvfK0iL8gha6gj9swqC01lpfSdhi4kUoSXXTDUAoZQ7QoGSCG75ehHIKAF+s5PUXMTbK2dBoD3q1sPcUh7lJ7+0FKkCwvQd30MLxgnvINChFf0BTAK62M1BHwXTiUYKklQdYUCoIuvDvvFvBZdp56e6ULgoYOhC3wQQmFfqZUwADXiYeQfEKcgtBAkhQBDYog3oo/4zRv7NZ2F+BT5j3hl7kgk6HuXv5wpei9ZrlPskCWiLDgq4gw7iL+rR/Il3FASo93BLsYMXPeBr3oce8VgMch+cfPJJzgLAO/peLob4KQa1rTsoZC2TbIJ+Co4M+VNj0WeUU1ta17JQQFuXbjubdXyGJYJ2AasofY1bbfJbvBtfTyEgEp3E+3GAgPzDagFohH9oj3cAenGroAcIL9uECQfZOef8wG2wvEch4S6GGkBIqxqKgVV3OZt0r6r8aLyU3oJADEKLnX9BzzwISaRjVyG/fTzaN8lEJmpJoahOmfCTFI+EdRKlwz6VUnwqw4Jn98ROFcT+/nvv26uv+V0Xgg1zIQqAMgAeTMTym1I3CxcXA0GK8TwIGo+UAeURkNode0HkEU64C096L06bJOGSZtzVcqYsCChCAB5BfQRMXn/99c6futtuu+UFZdjvUAGyG0LQhUGK5QRovJ5K8x/yi4CCfK2hYE7z71IgJ4lu7OYBBbhzdKIBesE38AXuHu2iAZfMO7ttxSFIeZMbAsHuTjGEGYJiyYDi8xvfhcfXohSdaJ1IV58QM/UT583wxXh7Mo3rdA1lsUhAK/zzUuLQDNfH/vsfYDvuuH3+rD5rgxMBClJMOuYYrgu1H66NUjSJ9zvk11Aeubs4ogvqdARR8xfycHx9JsmdSnxNuwAMLF24SLBGYSHDiopbD77SJizf/25zJ6w8QPDHHP1NVT2ve+a4astAfwKp9qSnQL+1IHR3FYIU/eVLYWJ+z0QEKR45sTRASE/m5VcySSjEW2dHoJ0BggwAwM4THyECADM2lg98j7hE2A0i0Nk545MFDAj8+GOOH89ESbLeMEYAEnSBBghtBBgnANiBhQAnDviUarkcQFh+3NF3LaHsBBC0g1cOAO1wAVYENrL7xAoDb7FDPvTQQx2w4AEg5I85xgBCtb1dFiCx2j4klZdLDz7BHK/AZP6+7rrrHG+tttoa1tjoeQlR5K948LEqpfIg9EXfkuoo0DFIGrWsGgvqhY+wIDBmLAe4dggOxrISWmjySt4BhJdczMZZZ53lAHtJgJDJWEtrDSBUO401gBCnWDxIEYAwoMXO/zlBih/+TIqVAALfAwiIASDymoWHC4E4AXbF7JRB8kRIE/xEIBRKETcEux+EPG4CBWfh/6Y+/N4ftweBhWkYny2R7ShFdsb4pTnGiYsBNxJxKLL4xHcoH1eAAGAkDTCnVb761a86pY+LjM/xXSPgAZ3HHXeciydBKaII8XfjYgIoQDtOAiHY2VUnuQmq4anlCRDS7Ii1M5fVjd0xIJPfgE74CqsKFh/AlAAX6bj5DFqSSbEUQEjbhzQ0LN4sxlgAACAASURBVGUdWZ47bsaLNfPcc8+1iy++2LnOaB+Xo/oXt1wQe+EBwg9st90+5d0LsfgDxk8MArc51p7qKFADCCkAQl223i665KL8Gf7QrBs3dYa+OSVtgfEl/Civd3T2GYXMox1YX5zhL8UGtI3vn8huAvx0Dlrl5eejT5TFraC+E4OAqfOb3/ymK873AghE0vcgJYmiYmPXWW+5KErtYESnUGmEdOO9MBFLaGLVu6KjyulzfqOwlOAnyQJA/dAACwqAgN+AIMyfBF9x3BLB74/YTXNBgShATlHQZ7UdBwi0LX9vnObhmFySnsg64QRcdDwwTNUb77fGJx4MffBqMxS0jB/A19uHuhDiBOFiCaBvBOMCpqAHQZzsmHWUDwAB0ORUjyLa4zEI6ktc2etvxVFQThae0DctftM4k2ig/mj9uaOqnqG9aonM0FoDip0IeVdzUop3QpryHhY5Ao0JYOZkkoAl77NTJo4D0IS7gaPB9I2fUhYE9SWki95R30Ja0k64FrV+VSa+fsK/l6U8itMJAMWJmpNOOsm5pZhjBb4m8SkxCB4gTLLddtu1ZAyCu6xp0KCqXEq9XRcfp/f6NUBYsHBeT59UjzwIR7rc6BddfJGLeNbCUhIPBU1JSIWLkgXJwkdwKggPgapobu0spBgoW05x9hXjSbAqtwAKjl0KY8BaQCAVfQe5o/Awp/OjiHL6IRcDAAEXQ2hBUFriUAExLgXH6V2ZokNBrTGGwXpx5aiEUmGd9JcfaKvgrdAvLOXJu7hMiBMR/UX3OH0Zl04wyJ/O0TjogmUB0zgAgJMnCDHM5vhL+V6KIwkgQBeZneN5FJgHaK05krIX/wggwH8KIlMAXRxQ8G6cxoxDig8lFQYOVstfIdjRXHBCgh0gQIpjqxwF5jN2xPiI2R3rGCrtcaxVMQiaL+plly0aMj7RQ8pKJyuYR9aUgIMCGUNlroBNfqN0BjQNcP59gABzwQ9AGLAML1InfQgDJXV9dwhKqS+keSn6iTdDsBuCOH0uftRc0wcseaEFQYCAz9S2jkkqoFSBhwryVPvxAEHNn4AFfYKv4Qnq5Id4pOVlRYD+yKK7777bWeeguXKwJPWB/hcsCHIx1IIUq13H5crXAEI8aCUBINTVNdjFvywABBYcx7AwObMDc3cWdHbmd3kwNUIHwcVRMY7f8SCQCe5CGEnJ8Vu7eI5SsYjTCJ2lYYK41SOMyNZCpIx2seGOS8JLO5I4QJBwx7yss8zQAdCBf5GxoUwlmLXTo4x29hxdY+FDJwlrnYRgJwaI4X1+83eoNKALSoBHkdwIOT5TpkgAAv1nPjCFlwIIjJX3UMbMM7cxIrDpE0AA/yi7Ps0Z9RCxz5Es9RsQxpzrxIN2k/CPIvPhAd5ljNAMS41OcdBP6KBTIYyX73gox+e0R31SWAKrKAwpWp0EoH3mVcfSdOmW5iG+c4/zWVguzkdSOPCzEvYAkAjUBBRgdVEwoviMXAUc79RtjrJKcNRO4xSAhEbMCfMBcGW3SW4CLGHiD8ajflCWsTLHgD0BKawF0Iw7RojBEY2l/GmPuYFPmXed0NBRRfEVfCq3I22WcpGoPxqzgI9ATNxKpp0+5ZKOOVIfwBXXHuPH7UWftDZ1sRogQmCW9UKgH58JMGjzIksaNIS28C7j5wgudYWbH83/0sifUu8SzMsJBqxOgGTmWMd8PWCDdzvcukWe8JuxF8cg1ABCX85NDSBUAAgkSsrW1dnFMReDUpaGAlUTw2JFmLAQOQUAKuYzFqTMZigF/s3iE1JG4SlKmLpCZR3+ncQAlRZuKMzjZeNjCM2LIXIPlYN2p6B9BBWmZfUR4cJiRzgr3S+CFOXHIwsKY5dgR7ih/FB6+Kml8GiTOvgcwYUC1tFShAdma9rSkUmBBSlo+kAZlBbKlPoEzqC3zvlLaIe0jStNFD3Ahd+4HZQAh76zQ6Y+XA7hPKIcEXi4dHg0Tsoxdh2d03E9CW/4QDtA6KU0wzoux/fKCwGPAUIR/igB2kDoUz/lBeakPOE7gKtSRsuqQHntxENXU2jxom7RH1qrXBKvCozwDrRMSpQkgMAYpHgpL/6RZUKgm3nme3hEQAFeYbwCj4xLgIjPUZIABOgF3XhfoFG3BjI3yvMAHQEH8Ibeow7qoj/KUIjyVNIwgUjx39LsusP1iIuBuQ9TLSuvBeuO3Ch8zzwwPh76pKPXjEmAWOBKKc51KkkWN1mWeIc5ph7Nr44Vy7IQ3tRZbqxxEFlOeRETBR1xWUF/jmCz3gAKPB0dXbZgwXzbfvvtbLfddreNNtwwfZBi7Zhjr3BDDSBUBAgTLVtX3wMgsCjfe+99J1R8TgN/uYtMnCwaCScJaSkq7Ry1g5C5GyWj/AilZrOUqU3lSy3WSjtD3k9TJuwX/QfxhwCB7xFIWAt0CQ1/QxsUjfIZMFZZKRBC0Iq/UWLsekPhJaWOQo4DJe36VL++D8cS/3e4Ywt91GloqLp4Dx5QymHmFsGrnZzMvXGAQBsoIBSPTLnMGfOu3AaABt2loDLUJ6EvfpIy0t0eskwhZGX90QkUvhMAYPxKQqRduiw48LN27IAyWWj0OW0pbgEFSr/i7jXRMQ6w4iCCcpwIIQMfAEHAlL4DqkUXuRjoo0ClXDT0ATABrzEnuoZbQEvjgo5YApgnZQblXXhNO3yBc7mgGDN8zE6az6iLuZHFUJdT0U9AF4BBKZJ7JY2jlyoBBPoA6IQujJd+wgvMaRhnIJpgJYFejAVgJYBDWQFT2gwBEF0RyBT95ebhN2MNLSKlxlsNQJBrEoDA+DSHtOPBKFaSThcUPHz4SHd3y+S0pxgsa63EINSeqijQrwGCy6QYPxabcIrBBSkGLgaYHoExc+Ys6+ggTSp+Xb+7QGhol4LQcBe/vPpqPgMcO2AWAouPxSkQwSJXMpC4Xzqc0Q87QIA2yrKnHZuSQSH4RRspfegV7iwZOzRC2fIewo3vlQY2NM/GFVEpa0coNKWEQitJHHSUA1mqK/T7xsFVCEDiAIH3UUpYEKRo+Ux1MH5d4CS3gpSy+EZn7HkPvqE8yh/rAQ+ghTHIggCtAWR+F+YTLaEsdNEQbfKZ4hooD++iQOUqQxFph0/dKFydTZeFQuOWdUl/h0pCZUXzJICAAiKhGMCTOlDQigcQmJYy5G/Gi+KXaw668h5zJLcAPMS/xT8CTLzL2AW2vCnbZwiU0kTRuhsdo0RNOmHA/PDQFvSAXmGSo6okcVA4BAiKQSB1uR7mHbBDv+ANaKCgWwFUygDwtB6l/PkMGujyJoEIxT/AH5o3WdpkjVFiKmgXBrdWsiCktabQZ/VDfMJvB0Cjwev6anfRQqbb3U564IHBMUe3kJISJWWsdVDhJt3ezk1/e68GECoBhCOP9BaEX15cFKQ4eza7x9k2sHWgNTY1OmBQV1fvfjc2+l2V0rIiqFhsEthaCAoQkwlXu2YWpKwLLBCdMw+Fa2j6U14D7Ya1UwwtF2kXaTULILQgKEhRAhYBTx8lmFEwCHUpIoQ1Qoa+ancKoEBgYS7XrY8CGUoNG/avnMUj3L3q31JK8Z1tHCBUooF2nHHfrN4LQUgcIAhculvxonS80AVBD0CEPlLKKD350fktn7H4AMUgsCCzP3VCMx0NU3wJ9YqnoDllcIXArwh+6lbWT+ZMJ2v0nuJGeJc6FTejOsSjlFcZuTqUpVGWCcXrwBMcF5UFQbEu9FMuBvoHOJSlQnNO+7yv8atuza3+hs5yhdAfxqYdKSAJGuoCpXDeQpCjukIQJx4Q4BBQqMQ71XxPGwAEwEkcICjeIFwD6l+S2yfO8/FTMqX6xXvUx2/VsSxkSTV0UVkyuU6Z/LIdcOCBdvZZZ9uuHHN0T3KipBpAqJ7K/RogpDnFQKpl0rPGAcLMmbPt7benOQEjodjY2OTusp83f577jN0Ji5udFsoQwR8GWsnnKVOlIoi1m2ERK4UwwlA+Z/muWbgINwQdCpcy8hFKSCPA++r64zh7IcjjMQiUYcwoGHzDGiN95UdXxwKetAtBEWrnI9MxZaEL/Vfu/erZ+4N7Q8I0ycWg0xHauaK0sJoIIChWQlYWBY1BE0XvS6krZgAFDr2l/JRymndQpjoVoh0uvMjOnHgK6mdXrJMszBmfMY/y1StlsoJDmUfqZe4EgGmD/tAGpmyUPDzL3wAW3qE/1M/fjFsAQUGKMiuTNpp3ZUaHV5S2W8qKvmGJkTUu9Lcz86ErTyBcMS+6vRDXhqwrHxy3lG6ZGIQ4QBA40akE5oGxh09oxUpat+W+/zDSIbFPOSwIUxxAyB9zLAUQCEoeWLMgVDu3NYBQKQZh4kSry9ZFLoYRnv2iCH8FIso3545CdeVswUJ/VIhyMpFrFyIzrZC/dlcILiUG0a5EAVR8h4BEGFKPTL/8m/dRDAg57SK1I6YtfR7udqtlklLlkwCCzLII51CgC/RIsSHUtBMOacD3CuBk3IAemYyT+hFaB/pqXH1RTzmAgEKDNsyJ6CHTbhiNrpgD6KFYAZl95eqIxxVot8z3UopSlJTVbpDP4A2UMJ8pCE07Rj4DPBDMSF0oc8rK/M4YxGcCLrI6UAfAAcWGdQTLBABA/E0fGQe/5WIQQFBAo9aWlGDoxpBLRkccFYUfWg/omyx1Ai0KsJS5nbrpZ7gjVmCoFKjcCuEOWuNWG6G7Sq6n8PhoNTvuOD8rD0J43TNliN6XSwXAyVzSZyxvAL94m0lWs3AcfcXzYT1JfaimzUpr21kQXn7ZDjgAgMAxx12j5pMsCGatg4b0xTD7VR01gJAKIGTtIudi8AABoYGyVtCTfKQCDwggdvY6085OSj5N+XsVdMY72oHphjTeBVjwaCdIXQhNBIGEpgKuZC5U+1qYofmzGiFVbgXETZrxIEWBItwE9FW7X5nI9T2CGOsAv2UpQYFASymcpHGEfYv3pdIY4+XLCbNqpECpeulP3ILAZwpS1FFGxq+LuMLTLTLlKwhNZm+5qjC9Yz2CV0Q3mfUpq8BPReXLehBeyxwqt/DfjF+KN+SjJEUjuoffSaELTDOueDna4BQDx0XJpKj2oQtZBpWkS750AAc8z/f0jbFi2WB98YTujRCQylogN4VSZlNGwEdHXVG2fCZLDf/W0T/6xxplTFhs+K01K+sgcwFfMx49S8OXSS4G2uKWUFmgdNkXa4njq0T9CyhKJpTi50p9K/VeubVUatxJ75RqPyxbrswrk1+28QccYGeddXYFgFCLQahGpuXnsN9e1uR2+ukSJbHYvIuhYEFAWEkwabeGIENgyG8uFwOLVv5fCI9/Xn5P7ex1/p2FgUDnN6CCHTRKQMKMv3moLzxv39cCII1goI9JLgb6yzl27cIQZDJz61ZL7SYBPQIKjFe5IOLtJwmJjyJAYFzsqAlc1YmOkE6MUy4nHYMFQCgmg3d1QkJXEnPVM/yDcgMEyC0Vxh/wOSCEeeFiLp0IWZam5jTzA0AgBiGeBwEXg5Qx7gj6D1/B8yhCgR74iXUI3XQTqqws8JMUuMAGvAZAoB7VAd2gJWtKpx5kZdBRR4ELufRk1eI384Q8ULwGdYu+zHclJVxO2ZaKQRAoYKyyYNJngRsBpA8LQCgHopNkTRqAwIUVWBDGH3CQnX3WJNvVWRB6Wg8cDSybvwirN4qyv77Try0ICxf5XXrRk3iKodiCQHmZU0PTrASBgrAUbCgQANPL7KndnHyu2jUr+EimSkUO864WvXZn4c7uwwIQ6KcikSW4pITiYw9Nwhp3fBerMkuz0xBtPkgLAlcwq/0QLPKZ6KOjmjpeRr/1neZcAl/0UF3iMQWqUq9+5N7iHcWqKCakkvJaGsGYFiBgQRBAoD3GzzFHlLGsB6ITfIJLTbdGSgGjMOViY4zUQRxE0tyLpnJnaV1qPcnywhqVC4cymhdZ8Kg7XOvqY3xdVqJxtQABEEMiMgARAEYBojrpE/LMsgIIlepNAkbVWBDC+kttDjLd5q44P/DACTbp7Em2666fskzCTY6OB0i1PLh2zLHa9VwDCKkAQvExRwkxHZuSwAgjg+UjlhlSpxgECKiDnV48uCi+8CoJl96Ur5ZJSpVnLPfcc4+ziChREmWVzAahLdrIdy1faTiuVLuFFJ1WPWlolqK61EWS2hWwCV0MUti6Hpm/paS0e9UxPhRTeNa8B5t2+2uy1U7qzqYs2Be0rAYgyMWAEoYWJM3R+wQjsvMnkFMJsBi7gnpRmJThPYAFbgjM7DrS19f80Nf8mqRMNU1JxxyRM9wHAjiAl/gRv8AzegRU+nr8cdC1rOpPYtU4T5FIiWOOZ58duRhKXPcMQOCypuXZ15RL7UNdrH8DhKXIg4B5klTLmD99PEGntbf7FLgSYgIHCD1MxAgyBT2B8hF6mEiThH+4yCtxUF8JrErtxL8vFaSIH1YJhBi7LB/QijFr9xoHN+UEZZq+fRB0KNVmKYAAzQBQ0EhWKGXShFaKVYFPUHClXADLeqx9VX+lesIYhNBKAI0UUCnTvXbrAtnwFbQDKOAigJ7wndxvoR8+Df+kLVNpTGnqSQOeqCcJIPA5YEkBrfCM6CWwwIYEOcR3ClZN069qyvQFiKymvSR5obsYJk2aZLvvvnvidc/uAi7LOhdbDSBUR/F+DRDSxCBMnOgzKYaXNSGAMHMS5S3LQEd7h9XV1+czKipSWz5N3mFnw7EqKY/wZEG4E6xWAFVbvjoWKV1aAAELQpgHAfCEAJNPnHEiyMldjyAPzdtxl8LSLOAPgg6VAAKXFmEGVaplyhPAyQ8WFgQ6gpw4An4nBfNVir9YGpqVmt2+omWleuJBivQHvsKnH7pP4BklBGK8Ag8CCzoJo/b0fRo3XLXroa8UYyXalAIIjBn3gs+50piPndDJED6HHvxNTIJiVqodZ6XyfUWHSu2E3+fbjC51njzZ3+Y4adKZJQGCe79mQaiGzPmy/RogpMuk6PMgkEmRSHGhWHYtOtet7IAsSAXj6Yy/TijI1A6D69w2Ak+75hAgxD+rVgEsr4WbBBDouxL/KFGTjmXynYSY8uWHIKlXHPwhfUnzSVAgFzYJINBdAg2VK0LpfaEDVgMC3OI0UV19EYfxYSNX0ikG1hCuGR3v1OkE4g60BrUOFcujvwU4l2Xw5fKkYVIehHj7y2u9L89xp2mLcScCBHdpt7cb6MnUUi2nIWmPMjWAUCmTokuUVHyKAcWIkMeKAABQJsDQagCllfSHfytKOkzRK4AQ3/3ouJ/MzdUAhLSmy15xS+wl6MBtjhz5POyww/LfEptBmlxZT3T7oi60oSA7G90dUM34+qLfy6OOcgABOvAjIKhgTh0FVRZEfZ8XcvEjudEXaXaiy2PMvWkjDhDgKdYIrgIpf8Yn94MUP78pp9NAIY2WhdWgN2Pri3fSAIS+aOejWoe/zXFCYEEgbXkxOHDryOpcDELtqY4CNYBQESBMdH6riy/5ZZEFAesBihHBBTCgjHztfKYjZjrJAEBgZySffHgMKTztwLuYngmy0u6ymildnsoCYX7HHXe4IMUQIKD8MIEqt79LIJXL5YPKBBCIvwhN6tWMM21ZRIWbYrepyJm99ZbNeeUVa1/S5r5oam2xIRttZN0rDO1xLUfaNpLKlQMIWA84aheCBJQd9ABcEXAHP/EZfAPAklm9VFtxMLE0fV+e74YAQVYUxk2OkfByJvoUnvbgb+UIcdMbBW0CtsM7EZbnWPq6LcaUdMyxr9v5KNen656LYhASLQg1gNCbea4BhDQAwcwuvvSSHubNYoJTkUeuSSbh+M4+abK0ky6n5KsxJ6YBC2nKlGKsUgChN4zYF4ovkTbz5lr75JetYbXVLTNimNlb02z2K1Otva3NAYKm1lYbsuGGZi2D/fQNqK+6+0nthgDh2WefNY456gEAYoHSfQYARH4ACLqaVztkrCwEuH4Yd8WVeLEUb4WfX3XVVbbtttvmEyXJgkDwmSwqfKYskALN1MG/lSUyBAgAKlkfloVbZmnWTBrmCutPAxCWdX9K9bnS/Fd6rxyoTTsmf4rhQKsUpJi1rLXUghTTsF9RmRpASAEQ2Gpecukl+cua4lT2zJyxEhbgomuUw0WRRoDGBVw1izLNIosDl2rM/ZUAgvL/V1NnSNtqxipg1m14G80WT33VMvPn2YB11rTOd96zulGjLDPE52KXATI/9eS+IHNlW5vZSB9nUs1TCSDgT997773zVQIMsB4ozTEKTVnxlMcgCRD0lo7VjKWasmnmJ4kHw88woQMQyIPA+OSWwyrFo2PAfAdtAFGKyg9ppNgDHS/WOMoDBDgh69atLE15i1MZQqRZV9XQMVme+E9rAKF0oinmwedBiAGEBAtCLUixdxzZvwFCykRJDiBcdkk+m12pBV1JgGuXk2aqSgnfNEK5GiW7NMKuEkCYP3+etbT4a4KXy4N0X7DI7L13zIYMccqmbsWRSBg5Gkp34733zGbPNlt//aq7Wg4gIMAACPvss48HJ93dLj4D9xRAIdwRQ0/uPkAJipek+JKsS9RXieeqHkwVL6TlnSS+17txgACo5DviexTMi8tBeTToHtYVpYEmqJPycj9UBXhz5m8NRqG4BDueTxxIiG8cArpUuwarIGlRUdrRMcfwLobe1qf30s5bUjvh2JcnHUqNuSdAKBWDULMg9IZv+jdAWDivpySIZVKceNRE6+7O2C8vLcQg9BYg9GaCPszvVAIIc+fOtoED/U2Nbo8W3eHut/DeJZPjyJpcM1EUgBfRfMu/cpbtzrpX+TRnOavDWhOLGOC7zukzbNYtt9iKBx1IVGh5KR8QNkci1oWLzBZ3mA0fkvq9cnMjpRgCBD4TQFDOfwISw9gV5UTQ+yEAiCs/tb80IKEvlMXSABW5GLAg8MBTgAHuYuDfuvRM2QIBT8RoyIWgnCPlTi04ha/A9vY2e+Pyy2zMVltbdputzerrPSDwSMFyGbMsl2n94/9s4IYbWvc6a5tle/Lb8lqXSZc1LW3bH/ScV9v/cnzP+jrA3cXAZU27JeZB8NKGREm1TIrV0r6fA4T5UQRbuD0o7Da7OjutBhBKs1RVAKGj0zqnvW0dbYssM7DZpr/+hg1qara2JW02ZMVR1jFjjg1ae4wten+WzZ89x6y90wYNHmgto0bau2++aQOaWqwl02Bt3W3W0Z2z2XMX2CrbbWUDBkaRyQuW2JuX/txW/NZR1ji0mlvbuq1rzkzLTHvbssQiuK0jToqle8oBBILvlPRHwa1xs3loQUja+YW9+7gABLkYGJtOMYQpyflcx2SVmjytspt97Q02dKcdzVYcYR3cZ9E80KxlgJvveMx7pjtnuXkLLdNcbwtvvMEGjp9gtrysYDG247ZLglqPOeaYpWPIUMQ5l6h/quWd5WU1CAdbCiBQhpTT48ePDwBCFIzsEGE46Fomxd4wUP8GCClcDAIIfeFi6M0EfZjfqQQQ5s2bY62tgwouhlzOx2MglHO5yIZglslm2Tq639pls76d8Mp637P2cLItuGrq/ekR93R1W659oWWbBxbqyBAX4tMRFwnEXLdZttu6u8wyuBaGDjdrqDerX3pgEFfmCDDFIKgfWA+I0sdygJtBF1cpzfLmm2+emIKbupOEZbVCvi95Ksl9UE39WBC22morW3fddfNZRnEfcAETl5wpBiE+h2mBgXV2mmEdasqaNbXAbNV0z7rb223JLbda8/j9qnqvrwpzyoPEY9/+9rf7qso8D/WGbz5IgBC62bSuWV/77w9AKJ1J0RGOuxiwIJRxHfUZgT9GFfVjgNBlCxbO74mgS7gYygGEjxE/VDWUqgFCVbVXWfjdd81GjjKr8/5pMhhyTwTHUXUcjjPzC+cvsLXWW92+sNNnbM5frrbBX/tGwV7Qh8IjyYKgHRvxBxwD5YQCfQUkYDoHKAAa1lxzzWJAUyUpPkrFQ4AQugkEFN1nEcALAwn1WWGsPkg4H0rgNpJdlunIOJ4wDqcEgQU6hqw5KemiaO8ymzLVbNzYkmQNwUoImKTESsVFJIGruNLGggBAOPbYYz9K07rs++pcRt3udtLx4w+0syZNst125zZHhwYin1LIHXXWirWxD9f4sh/kB99CvwUI7FgBCD2eGkBIzZXVAASEIcoQwUwgmgRhX+WKdxdlPfqIdW+2uXW0tRObbt1YJKzLstZl3XWNRvjSvOtusJHrrWudW25j7R2LnUJmHGEcgP4Os1/KJcA4lCWzHKFKuRh4ByAAKNAti5xm4DOOM7JjVgIt1d+bnV7qSfyACwogjB07tiiYNQQIbW+9a13vz7AFXR1Wz2mGzk7LcUyV+W3rtEXWZa0Dmm3I0GE2d84sa2hsdCkvGufNsQVYloYMtmGbrG9NLd4dBe1/+9vfutz8mO/HjBnjgkg9GFF4TJflOjrstR+fZ6uffqZLoV7qYRerq6MBfwROwi9cnEQWTSUIY24BqwIjpNsGJBKHApDFYhLeQEl7NYBQgup5gDDVxo/f3yZNOss+/endrZuJTwIImYy1tg6uAYQq13s/Bgjdxl0MlQDCkRMnOolRsyD0JFU1AIEEQAhLds78VnDZLrvsYuPGjauSbUsUb19suQcft6kPPWTZYUN9TOTcudZAqOPYsfb6gCZrHrKCLV6yyFYZPcbtPrAqAFwQ0vi76R8KG2FNal8UCH3HJUAZ0kd/5jOfqdhf7RppI36KARcD7eiyJlWGApGC0Pv0aVknk6o4mGVYgCC8Lbfc0pIAQh64BS6i7uhMolzM3YvbLDOgKdo44jrSmcXIrdS2xHJz55oNG2rZRsoRKOpdNToSiTLnZ0BDg3XNnmv1Axot09Vl9u57ZmuvY7mG+uhsg8+OGp7KAbzBL/AQgEMxE9QHr8Dn4nVZLWg7ft12CFJDci8LF8MynM7UVZeyqqSvQBYEAMJ4Z0HYvRxAsIy1DqwBhNT0jQr2b4CwgFMMMZLFLAjLkR7FgwAAIABJREFUGiBU8imXi+ANe17KN1guwCfOLEkR8+V2rwII8VTLMq3Onz+3KAaB8sqOh3JEiCoJjhLkIGARwATtoZyVh5/PZYXgN59TFw877/ChbnZkyinALk3vyOXAd/xQlrr8jZwdecEdKmh2gLTPZVtpn3IAgT4IINAHytIG/aQdFAk/fI7rAaCiREFJ7afxx1fis7Tj6qty6g/H+AAIxCAkuhiwGBDUuXiJT0DW0ICWNuvsMk6fOGVbjwLPOMtB2+Il1ggNsxmrb2i0TGODTb/pJhu57TZmK69sNmeWLZkz1yl0kAL7zaYhK1hnS7MNrK+39+6+1wasMMRs3HrWYVnL1tU5YIjVgbbgESlzLEkof4AA3+t2SfiSuYR/eQfgp6vgoR+fMb+hVYp55h09og8WltDF0NlJ+92OH9IGssbX8NLwQik5k4YvqpFFqq+c/KG+qS97gDDpzAgguBkt4WKopVpOM01FZWoAoQJASBOkWDXVoxfSKP9qy6QRBuX6m3TevtQiLQUQVH8cICCUEXYoAnbl/OguCwQv3yMkEaikGGb3zW92Zghj2tMtf3yGkqVvG220UVEsCQKbmzbl08fUi0BGCPM5Al8nCSjL59THThAhj/ANwQWmYL5fY401Ukd9a94wPz/99NMuUVIcgIW01n0McXcHZSrdTNhbgMA8fRDui7C/5QCCo0W2ztpmz7ZF0993c9jaMtDaOtqtM7o6va4zZ9khrcZB2oGDh9jM96fbwNZWd6yxfoWh1sCJFiU57eo0e3GyzX72GZs/d551ZzPW0t1tbV3dNm9giw1cbTXL1dfZosWLbQEXas2abStvsL6ts+22NmP6dGvv7LJFCxc4PsWqgyuBtM7wFJkx4VGSXmEh4rtXX33V9ZnP4HXAhE5qwH/hldbrrLOOqyu+/uIAYc5cLE/tNmzoiOWXX6S3Am45vDdlMjEIWBDOst1230051WsxCH1E+/4NEFK7GMwuuezSkomSlmYuygGAcog7abefJPCrQe2lwEWvAcKCeU6gy8+PcucH4YgwRTHr9kuEJbt4rAGABBLlIFDZbfM+AILfusCKsUqp6spbzsfzUCdWDb5H6AJCeI82tGujDOCDz5TmWFYNmf7pH8ft6Af91ln9NPNdCiCEgWv8uxQgi2cELLdzi89xqflKWy7N+Ja2TBoLQsHFkCMBhj9+ms2ZO5mQbfDBAlGKjbTBZzgeOp55zhqJR1hzdbM5M23+U8/YolkznfupaegQa8jWW9usmTZ35gxbaYftzVZa2ey9GZZbeSXnagjnQvMZ0iO0FoQWAcoypnCdxueqEkCYO3eOtXcsseHDRhVZXJZ2Pj6q7095eYqNj04x7Lb77lFAawkLArlRcEHVntQU6NcAYeGCec5PXfQkuBgwX/6yTCbF1NROWfDDJMjLdRlhl3SbY2hBaIkAAsoa64EucUI54/9HQQMY2GGh6FHyKGaOuWFJ4B129Oza+C13AYJULgHK6apk2qYuLkNCUI8aNcqVoz0+1ztYC3Q5EgABqwLfyZJB/bgUlNCIfm+wwQYpZ7BwHHHq1Kn21FNP5TMp9tWuvZTVII01IfUglkPB8BRDXFkWxSAouVYmZ9bRaVbX4E8lpDq16JN0zbjrHhux807WxlXSgwZaZuw6kXXBmxhIzCWg4WIcMt3WaRmrx/LwxjvWveaqiTgEHsGCoPgDxSgIaMqVJheSQCrluL66XIwJ9AGk6hSDBwhtNnzYyI8EQIAfNX7WMH9X46qrxIJYGTnmOGnSmfbpT3+6TKKkOicDagChEkWLv+/XAGHRgnkuc1o5gICLASlEJsW4r7s6Uqcv/VECCNzmyG798MMP7zFAXAwCCAh73UGA8gYIIDiwFKDc+ZsFjNDEaiBgoCuhUe66FZKGsDbwGeV5lzp09S+Ag/flF6Yd/g0IQBjzvVL6yoIg8zBCTLEStKFgMn5zPwC3bNLn1VdfveyEag4xMz/55JM1gFCCWmkAQimfeWp/OFGJixfb/CeetkFbb2XWUJe/UI1ulVtvyrvRfuOt1rjvlxIBArzGj4ABvCIAS/2KJ4F/KSPLF+V0D4fIEwdJHweAoPs1tOZY50lWLuahWiumBwj72xlnnGF77LFHeYBQO+aYXglFJfs1QEhjQZg48SgX9XzJ5aXvYqia6h+TF1Ckt99+uwMIX/7ylxMBQnNzq9tZsfi1O8dcz+6d9xGsfIfQkAAVkECAotB5H6WuemhIVgUEiurS8UMAAYpf1gIFI1I/Sl87GtrV9dt8rtsBJdQFDvhbwAWBDoDhd7lnaQBCasX3MeCjcnkQZEHQKQMpcz5nvqRQ4JFyz/R/3GYjN9vEbPTKzuqggFgdYy3KgUDMh8uX4C0KmY4O63riCWtrHmgtG5c/bROfN/UvCYCUAj3xccSPOZK+3FsQPjouBuJ8pk2blr/eHNAvEAWoxwKjI9C69lwxQswRa1yBn7j5wmPAAghnnnmmP12ka91jmRQzVsuD0Btx0a8BQppjjhMnHu0EyqWXX1ryNsfeEP7j8E5FgLBgnjUP8JH5CEQuKXrttdfcAkcgIBwUqIhgQNDzGcKEyH0JbgUvIigUzY+CLqUYABgIJdrUhUiYNd9+++18sBj1A2z4XNYFhBBjkikU4IHpmN9SUrRP0GOlpy8AAm18EEGElcbWl9+nAQgcMVXuDOaB+dHJAIACNGI+wxsy+Qy3EDwycNrbtvJmm1t2+Aqu6+xoOXqqPBRSQMxZS3OLy6HR/MZr5Hu2d0avZPVcIDVkaN5NRQAil2rpeeONN/KZMcXH1E0f4R9+Y73CAskaEH/RLmCZ9bDFFlskBh3GAYIPUvxoAQTmDpeejnmGV3HLosd3WOiIGWJO5XpkfTIvAoWsxfCYaQ+A4EI8crUgxT5apDWAECdkj0RJR0UA4bLl5mLoo7ld5tVUAggLFiD8PEDgQVAorTCLXqcFdNQPoSprQaj8KSuwoMC+8JhXfKDUJ7OudqEIFe1SlMef79QHBVLSlpQ7nyHwtdNU8FmlHat2uvzGxfDEE0/Yvvvum+9mJaX/UYsjWBpGu+6662yzzTYzovjjxxw1d/BMSJM4ffhbgaoKAqRP8vWTB6O+qd5mX32DDRrYYg177mZtnWadmTqrz+WsaeF8W/zcs/bmo0/Yiuuvb63b72CddRmzrk5bQmIj7mGIeJD6aQulr3kME1+FZnLGE8Yb6Cht2H/4lHKckkkChB8HgJBkLdFYtd6gga6Hdyo+WsOsPVkbkvispwXBX+kWf2oWhN6t0hpAqAgQJkYA4fIaQIjRqhJAWLhwvjU1NecBQu9YtPq35KKQ4GZ3iaWCR0Ia4c7OjSOMCCmCxRRzIJeEjrNRFgEuq0SaICsJRYIU//e//9mhhx6aGiCEAKMSmKieOh+uN/7617/aJptsUhEgoEh14kXWHKxN7NCZG9w+SlQE6JMLip1ra0uzNTW3WOf8BTaoucWspdEWLFxsHe1d1jKwxRotYx1LllhHe5vVD2iyhmYfzEZWPp080FHTULHxnT6PnzqRksOFxq44riQFJMJTEPp3OOcfdYDAOLHUcRQUYKV8EgRebrzxxi4YWZlEsbKwBvmbNYuVEOuMTjCtv/76+TgjcXFPgFDquuc6a63lQah68dcAQiWAUHMxlGSqagGChGS4ywoFZdXcW+KFUBgrMRNCF4UPKNBOFUUDQAjT22rHF5pBw/oYs/IluKjoCn3oLUDoK1p82Ou5/vrrbdNNNy0LEAABKFqZ7xUPgsn+sccec+9i9qcc/mwF/ympEfPOnMEDmPKZT7J58jnAkNiTF1980X1O3SiiyZMn50nH58w1ih73V2vrQBu18mjrznXaqLen2Vv/uM0WDxxogzYYZ9PnzLGmBQutedprtvL661nThEP8VdMOWVQ/G6UAwrChI33Ao3VZXXQEtCubs7ouTmL4G2m7oszRfM3xzPqoH5zKiiIsdHajT644r7QWSsVixLNTJoEnlYnfmVEDCNXzVDVv1ABCRYCAi6G7FoOQwFXVAAQFJCKIOfbHKQDSGbPrwy97ww032CmnnFIx+C+JuUPAwfcoBiwGciXIJUA5KXf6o2RL7GqwCihIknJ8xt8ADH7jExUgoH5dO1xJKNYAQnlxhAWBnSSplku5GOSCiu/mw117/khkQnOhy0hfyxUR7uBD64DKqU3t6t3fXV0254H/WufM6bbiXvuYZUjG0PNxORfefdPevuY6G3PUUVbf1FyNbHZlywEEXB8ZjmDO49p60EDO2hcusc72NmsZMcxySxa79NKL5syzliFDzAZwvbU/von7xL8TXWbVFKWrrrqHlV+IZ43UeuVzxRRB1zCzpHhB7kXNYdy1SCKy/fbbzwpBijULQuUZSV+iBhAqAYSjai6GUuxUDUCgDqUQVjphCd/wwiQFCaKUEQr8LeEcKpBQcKOwQ58w7yFslEZZsQS8r5TG8muGVg2lbta5dNoAvGDqpA52jxxzTPMsrYshTRvLvwzpjeu4KTt/qZG772IpOpIGICjBFjQl0JTcFrh7sABgRWDeCHAjXbOSaslypIA2yuooLTxFPfAAJm3l2MCSwGdhnAw8RNQ9gNFlciS51ksvWfuLL1rr5z9nTU0Fi5TcIPAiwXR6lrw8xWb9+34b/Y2vVk0p7qrAenL00Ue7dxWkiAXBxUZwY+XsudbW2ekuruJp6+xw7pHujk5ram6yASutaNllCADKDYo5w51AoGm4lqEVYB3Lj+KAsOZh4ZMbkDUM0OcyLcpjHSJrakjbHgChXJBizcVQNf/1a4CQ6pjjUaWCFHXtW+ECOKhf+NT/IQFa9HlxqdhLVc/hB/ZCtQABPzHCAgGv/AMIP3zJSqWM4H/55ZfdBU4SKPlgs4YG9xk/2t0ril1pbCEG32NuRrjTlnaL8QAyhI/OZOvoY9y1oKDIal0h1QKEYv74wKY0aDgyQi9ZbIveec9aVl7R7UAdHbrIZsjZT3fe1CzXbV0zp1tm0CDLNle3SwYgIPST7mKQVQCeQUEoFwZzzgkF/kbBAODgG+aQsoAGgUvxFe/DEwA8QADAj/fldmKeFUQLEQAWgAIe6kMRKYK+e/Yca1y40LJrrWkjR42y1197zd0sSZ+4Zpyx7L77bv6YJGLg/fetY/Jka9xxx6onthxA8MGzEh/FOQScN8HdbJj9/+y9B5icZ3nuf8/M9iKterEsW7KKewHb2MYFCMYN27hgAgHTArENIYUQErA5OUn4558TcpIrIQEDLgFCCy5gY0yxcW/YYMu9yUXFliytVtrVtmnn+r0z9+rdTzO7s6sVGJgBeWZnvu/93vo899MDgpsIiHMNCWtX0K7tii8Mc++05xYGPMex34XXzE7Bjlyx1iBpXqCN1c88q3POPUeX1BLmWAcIE95/v9MAYfxESXmRBwFC5TDHcOSyeamYVXZbrwYp8BOIJJ7zBVFtronUwLmcprVP02A+pxbSwqaK2j6wXW2d7Rru7VO6saFUKGba9FA8prmhSanpOEdVVldCzDhoqMU5ODDW2FPfjnRcByGDiFpqNxOFeEIwIQAcQg6eGS1SkpnvWLb1eIfVAhCamkoSAS8TYJ4ZiuUw/ubmkXAzCISlfn5nTLEK0sQEycN95x4zdfeN72LNAN9zL0yEcRtM4ABFuBq/2QHOBXMc9VCtSNJ4BLNmgFC2C5Owq2Q5Lr9CBcMEWXdNgRTMm18nQvYnQBuKBWXXvKjM7NlK92zViz/4kRafdrI0f66KQZ0O60urWDaupwYHNXDH7dK0WWo55EClJiCt1gIQ2Av2J2AUlvLZy06GZcfRGATGNu+kKYH7DEDse+CoA/8dmxWssQq/9fapsGGDCjM6lcYJd/oMZXPZkkQvhX3W2dmubH9OQ88/o6b589Q6rVPDZVOEJWbvS+frqBQdMz5AKI4UQDMjpn1HRUxg1UcuxT/DpjXoyWte85pwRgBg1rw52VOyfUf6GMTbrEdyNM6W14z2+Bw7LnLmXDabdk3zXMgqWQada0Z8EC4hD8KJO2oxJDrGfm2PtDqTmZffxXt+pwHCuBqEfEEXXnihCvkdAAHBqWEoKxWH1fv8WvX1bw9qxnwuH4qoKN2gluYm9Q0PaPG8hdqO7bqhZN/b1LNZsxbM09aXN6qxtSUA/I5Fe2jL2jWa3tSi9KIFuNlX3Ieo1zi0xOBzcGBuZrImMEjLSElIVZaMnWCEA0kOAqQh1H0wZqtCkexRv9KO0xPXchjGAwj9/X1qbCwlJ4JQ0G+IJ8Scd4iNwYwZgJ2RGAeSIc8wk+Z6fneRGwiGw8SSYZGOubZmgN+535kSaddAKGYk/sx8MXe+z4wntomOBRJqBQiogZHI86iI2Vs4mDWSN4JYbiAADmVRPoQ0EmExqJaDdBhuahjBEpW0JUkpLdlvZ7ozkOt/5ikNP/6kZhx1lIpz5pbrD5DWGGAMMODJZXBiHNPfq8FHH1PTyv2UnkDVy1oAAoDQdTQsebJ/0DwBeuMy2bXsW9YGz3qn92advdes2XJab5vF7AdhYD3U26vs00+rffZstS9Zoi3PP6/M0LCyw8MaIJ3wsqUa2rpNm276mYYOO1gLF++l7NBQ6DNtMyb2JkwSzQMOkJwBnCbjVxIgOFGSnRTplwG/BQfOBTQgBszjAdr4Wp9Fxko/DTYMxhySGPsJuH3mkufThkEb37FeTlLGswziOYNeX56DqYh3AwjWiGtZn7japfv77DPP6JxzztVnLrmklCgpbEvbwKKZLKbVMW2H2aeWfVK/BlITU8ffpRkpFDVuoqQAEC5QIb/DSTFE2fb2aai3TwN9fSXptVjQdKrMbX5Fg91bVBgcCgQ/jRRIPLUKIWV8Hps6X2UapJYmNU+fqfa9l0hs3HFyykNEbFc1QbAExMGB6XOwOEgQHg4natRY1QoR4qByeAEaAAaIq5E6oUVOV1zLVpgoQLDJAEBCH3kW7yYWDjO0vRdCY891rnGYIXMOYXUCJlfKi/0KvK0NCMzoDYJ4J6wq+TKD5T7+QcBi1SbrQL/j2OwYVMSEls/jOSn2rVmvFMWHKOLTkFEK8NncoGImrQxVJQeHg7yezedUzOXVEuLvi8pns2pobVMhm1PrXosCmGBMMD7nezDRNrjhd+Y0WZfCoWfsCfbIlh/eoJblK9S2fHkAaEh/9uMw4Arhfbm8Ooez0ratGlZeudkzlUtTOrtpxOGMCphjvWoBCLXsxYlcw3wwZpsQDBCcgpt9yLg5T/ZlYU4Zs/MtBD8Fohs6OtSC1uD555Xf0h1AwKy9lmhrW4fyrRkVs2jFSvfSFgCAttmztMFasK8B99jgsbePDRBKxZpGohjy+XJkRanwGGfCUjzr7RdAnL1hc4zPg1OVJ/e46Qb7ATrCXnLSsFjzwnXxnnClVGctZXwGCDyTf+5XbBKin8w388IYDAjtW0T/4gikEYDw9DM695y36zP/C4BwYjC5cD5KmTDrAGEi56LStXWAkJyVOFFSHhPDHwVh7fNfpJrjTKXyKRXuvVcvPbRK7fssUevSpRpMpzS9vV3ZTZs1sKVbhaGsCrmcUsRRI/Wmi2oopJTDcQj7JqCiuUlN07rUvniJ1N6i/vvvV9tei6V5c4MWIqk9RlJKAgRLswAEHOh4jwECWocYIPAbaJ0DChggNtkAgUMPkarENKttMtq+8cYbq6ZajjUIlhp4jwGCpRWrJK0+ttbBEQMmqvzOOCFsMOu4v3ZIM/H3bzyPcTJ2gFOSuccStsfKXNM+GhebaJAmH3/88WBjTmosuC+W0mrVIPRtfCXY8BsaG9TYkNHwUF6pQl6FDOaVjIYHYUSlEM1CIa8W0gpjQiHdcFur8tl8yT8gVTLhQMx5j1XANh3xHWNhDpzB0tIgcwfwgSEUNmyUAEabN2nDL36hrdu2qnP2HA1SBnlztwYGBzV3+XK17LOPMoWiUr3b1N/ZrnzwUVCYG/uNjFezohaAwD7GBwD1My/AIWNhTSmgRUiigSYMibDJsV6sDW2ZUaEhzBfyYU5Duu4QJrhjPbneGTd5jrUM7WWVOd/19pWqjg4ODKq9rV3ZQj5oE+K+xip6t8E9zJc1Y+NrEHYGCOQS4EwYQLPGMFlrFPgN5goNcbGzGCDwzGoAAZrBnuL3OKuo84rQjve6TRt2+uQa1p93ns35oG/WWHEvfbfPCFpMnsE1nGGey/zQB9rknT0an7NnAQjnnlfSIJz0lnL67VIkQx0g7Co8qGsQdp7BJEC46AJ1DQzoY289Xfv+wTulpnYV161R38svqxOGjkowaAlSJc1WibKMareoglIYmROlRssF44K6eODZ1WqdPUvq6Zb2WlZyAIteHH47+tgXgcPDd4CDpUuXBgnEAIBDi/SG9AejhEnwTjtmDhALDiHShZ20OLTjEXV3i2dQi4HnVqrFkAQIsSMgY6BvPNvaAKtzzbRQN9IXm1IcXWCJ2CGLSdUjhNHpmekrxAbi5bTLjDWpHnWb8ZyjqXEFPgMcaxAMRsYCT/w2ngahiBc62oNgn06jwVcql5cy5RA0B9EX0O4H8Ugp1FBlz7NierQnQjWFoLU3BpXV+j1KFf3KJm1bvVoNLS1q7mhVMVvQ8MCghrPDmj5/vlJ7LFSxnGWQ9vwMM9da1Nq1AAQiDtgrsbrZ5cEJj4TJlLRQBaXTmbBn7Alvadd7x+sIaOQsNDc2BQ0h+QS29pR8c6ZN7wwM1WtM267TwR61NgGAYonYe9EaL2zjjpqwuYs+A8DsQGszYBxOmwTo4/kgeDwWBAwCPfc804DN2gXb8pN7JdY4ud2k74a/p93YR6hSVJABOWvgs+39Z4HAWhzajbUL/M39NgVaUOA87gwQ3j5iYiiR4J1TLXOw6iaGiQOGugYhMWdIaxBfjAKDDz6oT/zNxUrN6NLffuKT2vPww0v23p1e4/mgR+EMVdeo7HHc0yM1dUptoxECRMlSEk3YuS9IL+XiQRwoq9S5BqmH7xwyaOdAM2pXRDTxtP2/Vi3CRAGCCSXEhIMPgebZcQZD+m2ihpQHEbVUgdbDBMpMyOpUTyvEA0bCvbTLmJMOW7QHoXZbtGH7O8wGxoC6HcmVOYTJUyQmjnAY76jVqkHY/PwL0uaekMGvvaVNA6miBvr7lBscUnM6o4bmUt2KoeywChmpFcaVK6tQkXybGzR3/wMCXuA6mCmg0WDS84sEB5FlPukb35NgaDwmPjQ4qAcfWqWuGdODtqIQnCelrunTNFiuXQHRdjpkAy2YEHkuxmu/FoDg8FOvl6VQ/k6uSbzH/DmTKiqdaSqXdi5KD/5SL9xzj/Y65lhp5XIVGppDVdfcwKBaerdp0513aeZrD1V678VSqtJ5H736Zs7ek7yz/6zp4m9Lzc6pYebqe6wRSc7XeACB+0jnzdrSD6RsgDV7mv1A1IYdcL0nkMIxN/CydgwpHr8F2iCKiO8RHhgD55FzQLucDWsd6asZtiMNoDc+d5whnsVccG+8T+wsbPMm9IA9wzWcT16AMvpskyntJqtfBg3COW/XJZ+5WG95y0nlhakCEHBS3E1+vePRg9/U3+sAoSJAkHIPP6Jcsag//dw/KdvUqM//5xdGHIissuXgmeA6JMeMptqG4N5gvy0T2hHVXjEfEpes/eIXtegDF0oVCtRxD88BELj6IQyNg81h5R+HGX8E1OCVbOOxJIlURhZBF7lB4omJ3HibeiIAoSThJUKxqvxtoGLHMKtmx5rb2EzA/V4PCJElQTsdWsqLHfos5Xh9DKZYY9oGZFj6GY/pxSBmPA3CEOCgKG3r3hIKBTXO6FQef4MCGQdKa4pqv5grqLG1KTgwUm0w5LpJFVVIp9TSMS1orwrFQiCoHos1JdbIWJqmf3xXS7QKc4XWxKAOxoJK2tKeo06YGxgSpbBdyAiCP16IXC0AgX3KPqd9O7XSB0IKAbNmMjAjGAzng2tZs1K/85rd26euLduUfvMblOnr00DPVrXOnCV1tAetTID4YPR8TrnN3WqY1iFt7ZHmzsNpaMyj4PLk7DuXfgZQOqoApkk/2IcwPfrMmbMWhHlCW8X6wNBjjZgBwkUXXRT2wtato00M3EM73suckRis0badC00PWDuDLtMfvuNarnHWSdaWPjMOp642nbEJy74VpoV2QrbPgPNMeA8xNjsW06YdRU13/Bz+ZkzWHNgvJNbscA0AgURJl1xysU466ZQ6QBiPaE/w9zpA2AkglEwE6UEIrfThj31U8O5/+8J/aPackocxm/r2228P8dsOWeLg8w+CyqFiQyO12dGO34Lac3go2CYbWlrV2IA+Oa10Lqf1X/qK5p5zNno2NVQoJczBtUTEZwg1hIbnxxoADjDE0TZyH+jkvjATsTRmX4CkCi++rxKDx8QAU7CJIWaeSRODiRgEjbE4MY2BjZ2QDIQwndjJzfcaCDDPDlO0tOG+upojDMIx9DAPgJMJsIk3a2UGasmav2Mth5O38OxSCFvJJDPWy8QYxvazn/2sai2GYGKAGObQWaWVa0qHRETWY+GgaOYVnugoBn8P8HLAI1auMvAcr3+10gkDO18fa2xiFTXPY41ibQz3OKY9qb52e06U5DwI3mMGh9xvx1KDN9YUSdKMxv4OjrE3Q25rKwGELVddpa5jjlILERntbWE+OcMOq0O6XblyZUmLVEogEPw8tPp5CS1CRa3hjhn0XvK+ZayWsmHE7HODtVjFjuQPKLdfAHuF/B+xP0AMEHji1m1ogoZGnBS9BsmzOda5Tf4WA994TePrOLMeR7zHvD+8NrzbeThec1/nsfk3CyzVTBkel3+P54b+YcopAYRLdNJJJ5VPxSjvg5FhdHRMr2sQaj345evqACE5YSGzUUoteIk/85zO/5tPK9vWqc9/8QuaVQ5BMnNN2qHjTZ7c8CMbHMZCopk1a7Tx+hs06+ADlTn2dcoVUmqgQAwOipEEsBU9AAAgAElEQVQ91wyeg+JDaGLs9+ShqfTsWvbFWEQmkM0KEv/1118f7MMf+tCHRh7hw1/JSTEmaLEfADcn589SiokO1xh02fkrSXDcT/c11lwYZFXSRCSJXkzcYqbn6+I5r8SU/R1zc9NNN41ZrGn7s88Hn5NUhmiFknNVU2uriuS+YF4yGbU1NivT3Kze7b1B45DPFdTR2ant2QEVGzJqnztfuWw2gDVnAmQMOJ7uSky8CThMFMLP3NlsZWc05of1cNgpz+U6e80bMFdiPjFAiEGN97tNCPG9leY73js7mIo0fM99Si2ar/Qee4bQTF+X3B8j/gbBwJhV/w03qfGII9Qwu2SKqgS44vNQqX8+EPEZTl6XHHOSpuwEELb2KJsbDRBYjwcffDA8zsm/WHM7PgJokeBZE9aJ6CU+Y7IDgFP6mnWmBgVmoXvvvTf8zfo5XBFgjdbGORLcPmYqgLxNVmh1ME1gwuN6fudvvrfjJOCJ3zkbmBNe//rXB4dpp0e3htb+HgaCtIWvVewgjPMqlVIBCCeffHI5OVQdINRC72u5pg4QKgGEsqGKnOsXXfBhHdI/rN9bvIdec/ZZ0uuPVa6hQRteflm5fF5beraob1ufGjINIVkKIU2ZdEb77r+fVj/6qPYu5tR97y9VWL9GDdO61LNsqXJLl2j2ggXqaGsPBw5bN4eGON5bb711xHYIMTnyyCMD6uUgPf3EU5o3d446WjtUSMMgpmntCy9o5eLFWv31b6qzd7tefu6ZwGxaOqerbd58zd5rTzUvnC81t5Uc4XID0tY+ZbdsVu/69dr8wotBozF38V6afexx0sEHhRDMoHZFugXQpBpC7DtSVZKgTQQgcPAd3oUESFsQD2tfKjH7WjZx8hqeYybJvBrQ2fOa+eb5qNj5zcwMzQMSnZ3QIEzUjaDAD9qaalL5rgCE4d5eDfb0iuwXqcEhDQ0OhPnPNGWUyUnFTEqZhkZt29JTqlaYJja9V+0zZ6lx7uySRqH8QspDoqKfNhs5S6VV2ozPDnXMh0NEYfKYBmwecJvMI5Ebti0DAhwdAzNB+o0zHcJw0OzAlGAqceXLyQIEJG18K3g260UfV61aFfYNbcLESObz5JNPjiRU4vvZc+eoOVNQY3ePXhnKavtwQccef7xwGr77nrtDyKgKaXXNnql0Jq2+xx5T59PP6PmuLnUdekhgquwRGB1MFeYN4GJ/2N8HhsWz2B/MvUOLGbe1c7xjeuA61gPbPN/h3ItpwYAVpokmI35V1CCEFNNzRkyVBj2lPFr8Dy0UEVOFoFsqlPNpjHWWKoGz+DzahyIZAUSb1hK5fZudqp2XyZzpavc41fLFF19cBghl7c9IhazynXUnxUlNex0gjAEQOBQXXXCh8sPD+vyXvqjZwUZfUHaIw1dUOlVUBiaaL4YYdlS9QwVyHRTVkMoo3ZQO4Y6NlDkdGAxJZpQuqeBQHOfIvFjWDDg0ib9D+tdytsFmbICDQ8pQOXDDS9p0ww3KZAuaceqp0qJFpVTOQfdcqtnGF6X0zuW/gzw6OslCyaWy7BQ5kva57EgZxKUgqqv7mmvVMme2Wt/4plLzHSVVqV/0dSyAMDBAxsOSE6Il+1iqSjIMq6+ngrAk2+bv2PcDMBBnZos1BtVO0kT6FWsQfvrTn+o973nPSLNuJx9s0xmlmlukwpD05DMaeuzRUujiipXSIQeW1o68GZ72kWyKY593a07Ccpb9U2Jtyk7bPgJ/yTV2G5bkLDlbo+W19X3+HnOMtRdJrZafT5GuONWy5y3WIHAe+DuWHOP+x/3i2XbU7Qx+I6X9nH/0ET3/3Ws1Z/4cde61NPhxbFu7VhvWvKj5+++nzre8WcWuLuWLpdRU/A5AgNHbTMBzAEMABjsM0yeYvCMa+ByboGItw0T2j8eXBAjbyDkxPDQCEKA1OXwQ8FNpalSmqUmZwWFloDe5YamlTdnWFmUwm7Y0h0yvlV5x3+yf4DXgN86ONXqVzgrzwlo7SVKcswDA4KgHmwqtmTLAsO+BTXs+r15bgGglzd+EAELdSXHCIKEOEMYBCGRSzA7n9J+X/meQLtm4bEpX+3MiFZz9OAiub47kQdIT1Gio7u66667wJGd94yCgmuMAII0giSAZQdxQFx792sP1xM9/rkP2Wqzue3+umWX/hF+LF25B6vnWd9V13hkqNDSNwA0OOQABtfaHP/zhnTZfEiBMeHf+Bt8QA4Sf/OQnOv/888NoAnkmx3+xqM0/vUnFfEGFQw5SvgVpVlqwaI/yqIvSQK+0aYu0CG/62tyv2T/sTfaX92jMwCHuDgG17Z6+2nzAPRBiM+NYFR8vR8z4qjGcGKQlzUdJgFCpmqOd4xyVYYBnRuVkPDAnnmXAFz/Lvi7WItkBkDOXBK32d7CU7HY41zzLoIDvmR8n8amkGRmPCdeytWn3v//7v4P2ASdFXvgg5IeGNH32XDX0DkjNab14//3K3nuvOo44Stm9FmnN+nUixXnQ+pBUrLlVK3oH1LbfslKelTFePBOtph0nDZIYK2YmOzM6xJrr+Yy2yNFBaHeCPwBayGIxmA9+/OMfB20TY2Et6JvzP6CVgVbyXCdystMjGhlA2oknnriTdoVh1AFCLTtp8tfUAcIEAQKXg4Yda88mt0rbIUBcw+8cAtSghBBxMCDMluaMymMnQbdFe9N6t2l4/Xrl9j9A06ZP19aererZ2hMOFW050QrOXRwSXlbnOgMg3tX0yZI5hBYVMNfz2SmM6aPD/vw+elpCEL706CMqHrh/yMPPqw4Qqh88Mw1U4xDH973vfaX8BtSgeGWjCg0NSu+xSN///nV6ecMGNTVkNDg0qAsuuLDkJ5fPK9W3TepsVyHdGKIavGcshSV9T3gmBBV1eEj4IwV1Nn2AUTqcFEAHaHX4qLNKIhkDcFGDJxP2TJ7E7LjTcxJLq1dddbUOOOAArVhRvdwztnDMFq6hwb5m7xK9w9m65557wv7lO4cLOncGZ5CIAqfzBYjwfMqOW0K2xsMMzD4TvHMfz8Oc4ugIPxuhYHe+DBAAQK7miAYhOzygjv5BNb28UWkysc6ZrWJ6JPl1smRcyeESneG131P6rDPH7TJzGIMe7zO+N2irBBY9n/ajiP1HYqDpzyOmkbKGKwnYkh2tpIEJPghnna2LL/mMTjmZMMdqJoZUMMn+WgSscWf81XtBHSCMARAIj4JgJzUI2GAd2gRThgHDtGHetlVDWCDMEFrq3bORUT+yye05D8FGHelUpLQFseZf5333qunUUzTQP6glS5aEbHHEJ0O8sXWC5kH173znO3XttdeGAw3zp30ICgQN5E6fnCCI79/61rcKxzD6wm/8w1kJ72left8xLQWpf1Datl3dt9+imee+feSQ8czrrruuqgYBVSgqdBOKV+8xmPqeVQIIhZc2KLV+vVKHHzoCspzzIQBHshKSf+OpJ9WyYL6KmzcqtXSJ8soEB0QItR296LFjz/nM/VavW9L2Ppuoanui109k9pKahxJA2H/Mao7VJHSYFWOMNQZuPwZRDpOtZD9336tpROKIoJiBGehPZOwTvbaSBmHbth5tf+pxtb/Src6TT1a6mNb6DS8HX4ntfduVacgEVf9InZGQpC0vbenT4ONPquXYo8btRlz7wqDMmtI4s6mBhKO3HG5pLYPDpu0Pw3UWrugjdMn+PgBZ2sYvg5fBrEGHM1lCL2NT03PPrtZZZ52jiy/BB+EtO6JQkj4IIZVzPYph3MVPXFAHCGMABA5A0sRgImGVZRwSB9Gw+tNqW97Z9E5CEtve+Gz7HAfaOcgbMhk98c3v6NB3nKXeJ57StMNeo+F8XoVCyQ4bQiWzObW0NGlwaDjEv3d2dIbDZ/uhkyG5djr3bScxUXNL0FaTwreZQjHd3cGfIpNpVEdHe0g529nWpiIJdzZtUsvSJRKS7+YeaZ+lo0oOMjb7IFQyMVSSGCe6QX9Tr68EEAZfeknZxx5V86w5SqHG7+zUwNYe9W/eooamRk0/YH+t3dqjoTvu0dwjD1duzswAEGnLRNEOYHauZL9BbB3VAQjkN6tvHcvO3nTWOq6HCXCvs2zazs9vY4W6TvV61KJBAMx6XOxvgDFAGZCO5gAgzNmxySH2ZeF8OkU548eUx8saCQMJJxZinmxi4T7mwo61zqbI3LImzBlMMHbEnOr5wQeBsX/0ox8NTfds3aLcDT/VrNNPVQon23xejz35pObMmqnuzZvV0NSkmbNmaOaM2UFTVezdqvTcBdwoLVhINbBRXUyeUf52mDBzwvgttFi44Xv2jnONsAbsJ/7Z5MCcWAuFL4qrNLKW3BdqfpTry9Aumh2ei/DDi7V0CDnPwgzBvbxbO8Z1z69+Tm97G1EMF+vkk04qJ1gmTjgRyVCsaxAmszfrAGEMgMDhuyDhgxADBOc8sAOPk4a4SQgNBwa1LTY2PscH0oeMg2VGzuHhYKxdt04r5s9Rz8OPqevII5Xf1qvexx4LzkgdCxdIc+Yq09WpgUHK5BQ0rWO6+gdKBWAgegYITlQTAEJvrxqbW0NF6cHtg5rR0qLup55Q99PParBvu/Y++CA17LVYLbNmqvjiGg1v2KDmlftK0yur5sYDCJPZkL8t9yQBwnvf976QrS+1eYtyTz+jVFOjmqZ3ae3qZ5Tbsk0dMzo185DD9OTmDWpv6wxZCp3kxhoCv6PBYr/AJPFjQYWOqt0SGGvP7/a2dzY6+gRxZX/wDsG16px7edGOI0x+FWuBk+L++x+glStWKh1Slpdesboa5sKY6bedS222451kVJwZ5ssJnCyB2heDdwA0Jjle3OO54G8DBD5bs8azDKZsEzdAsVnR2QJ311xVAggZKh7uuUxD994dkmgNNjWoo71d/d1bgragdeE85ecv1Kann1X7cFbZPfdQ68xSZVTnY4n9Npg3awqYd2cQddihfVqsPfC+ZH/ByHnZORGaxgvw5lLqNk1YM2WNDtofzEeALJvAeL7biIUvPidDQA0Qznrb2QpRDKecXKav9VTLU7Uf6wBhDICwQ4OQ1ReIYijnQTDxr6SWrKaq5HsOGGi6sp2/FMMMcRpRyQd6Wcq1n+/Zqu3Prca5QW2zZ6uBss8UrGlrVSaVlnIFKTuo/IZSOtRsf78am5pDdAXRB9nBYTV2TVeOxEBNJS1CiL7o3qQn7r5b2cEhHXDkEcEuriYnjLFXXeXtNp4PwlRt0t/EdnYCCO99b7l88+iY+mCaamhUU3MIdFQulw1S4BBFmsq2Wd7NwNkf+BnYY5zPMPQ45I9nO/Mc9znVLsScf+xB7nHyG3uYmzmOlw10KtcDgBB8EJavCKGGlQCCgXXsPR/br62VS3rX/yrMAFM5F5Xa+trXvhak71EahOFBzZg1T9mHHg7VIwewu6O9HBhUKp9Tvr1VhVmz9crWberqmqHmlqYQSUUYKL4nMHMAEtojCyZxhVKYNlpPTI8OYYQWsk/8sknLvlCABVeCZb/RLvdzHdc4/BNGz/4CJHAdYMS+HABW+mTBizatGWMPsG+psxFnmhzRIFz8aZ18yil1gDDFG7IOECYBENjAHCA7N1kFbPWaY6Q5IGxwNrq9qdnkHJJQKKZc7IV3Z4sDJHCgnHTGcekcJlRyPJND20672bxyuSE1ZBrV1dquwb4tyuSl7FB2pMZBKpNWqrlB/Xint7ZIDVTaK6qxpUmpdEb53PBIEpWJSo51gFD9NFYCCGZgsY3fBYh8PXuDvcA7e4B9wtojKbsehzM7cg97zbUzrPa2FsogIcDMMtiwTd3aq9iPwXvr1wIQVqwYlUEw1iB4bjwOg/D4PWZcSbX5FNPMX2lzlQACmRRnzZw7Ml+spZmq9wCdZD2daZXv8VtiH5n+QJucSpk19x6hLRxYXTnR19isakdFm614t2M0n7kfABtrDLzP7UdDG3YktbO0nbrpq7WxsaMj5yBZi6EEEM4qmxhOLtfLq2sQpmqT1gHCOADhogsv1PBwTl/40o5aDGxgmHhMuKz+srTHb84bzsHi79imFqvZfADpCt/Hh93ORnZAMygJzyOjXj4XpIeGhkbl8lk1ZvDkLhGG2GOXSnclApsW5W1L0lo5tUrZ9GGHr1o3V93EsOsAgbWOX5bM+M4RKPbMZ+3NxO1ZHmd5hOBiW4cR0I7Bhhk+xBVTFx787A/UwE4Fjm2XUDXfV+se2NXr8EHYf//9QghbpaiM3ekwuat9/1XcPx5AYG+gGbA5AGED6R1mC0Pld9YcCZ715jfTI/tXsAdg6JibeCH8kJac351UzIWT7H9hoca+K2hXeQZt8xltgM05dti234yZvusyuEYKmhJACWPhfvYrL/Yv/YtBh+e+BBDeNpJquUTSdvZBwPm3nTwI9deEZqAOEMYDCBddqOGhHQABpkh0AtndIF4QVjY6RJnDaHWuQ6bsIIWUxwZHncZ1pDflN+xvHGC0AzhbcYA5ICFtaPTi0BK+xsveweRYOOyww4K6kL5wL8+w/wGHF6JAn1Eb8jcaCdrn0JLi9Be/+EUIheNvO3ftt99+NW0iDvwNN9wQCMoHP/jBUYCppgam8KJqpp0pfERNTcXmJ24gpNBhjiWAVls+g5oelrgo1iBYBW9pzIDDNQJivxmbJKolIppMX2q953++813tu9/KED1jCTYG3uO1U2k+471g80Q89/59d67FeP2O+8W1SXDEd1xDHgSYpYs14aQYaxA4g5xnO6+aoVpDxL2YNL03nI3Sz/RcOESbv2HUbge64SqqsSnHjooGDDBxhCbGgfYBQAFQoF3ojn+zo6OTWdnkYJ8O+4rgIwGtdPZTJ9xCYIp9EaDDZ73tbSUfhJMp1lQ5zDGljNo7O8ZblvrviRmoA4QxAAJhjhdeeJGGh/BB2KFBsNOND1ks9fngxwTaxCl2tOFAm3iz4eOoCL6384+7Z8fDmJjQD3ur+6A7xC2+j8+xFsN9tEOX73EbtYYlcj0AASZogJAkuuMR+6TduNoJrZWY+3njXT9ev2qhFGON1euPgyoFrT7wgQ+MNDle32p59q/rmnjepmIchNzig7DPPsvV2Dg6ZDEeY7VnVQKGSVCwq/2stle8xuP1baz7PcbkvvXfOCkC8omm4jkBIESplg0kknPl+5P+GaZF/j6ev5hmxZ/th1BprivtQ+hSMtlUfF1yPvyseC5MG5PzkgRSASCcdVYZIFCLoQ4QppI21AHCGACBjX5RBQ0CalyQOao9HzgQLqj4kEMOCZ7l5C1AWrdHLuqyRx55JITzEPIIykYjwPV8N94LRoM9GmBBKBBEFa0DxMMORK4KxyECwfcTetTfH/LUcy+Hjbz6dvLhPmySSBhoQqo5T1bqm4kwAIG+/eEf/uF4Q6j598ky75hQV2McYwGSyT7Xe8DPNHGDCLMXKNbE/NQKXqpN1FQz55oXJLpwqvsAQMDx7OCDDgmhaSUgW8rAl6oQyx4zEWsckt+Zae7KetZ6r/dTJSY3mfnlntjs9D//8z9B00iipEoAAZpDLhI7+qFVhKGjKXDFS2gE9ALNAJpOzAbQIMwI0Am0kGgxPW+0wTWmKzwXDQH3OushOVkQMMjRAm1xiWi0Bux5tJAOR+S5aDntc4UGFNqJloD70bpCk6AjPMuhudBU+9PQBoILdVHi4mMTAQhtHe27VYM32fV+Nd/3Ow0Qevu27rxhQlWikhq4BBAu0vBwVl+4dIcGYSILap+BidxT6VprGHyIY38GCILt1ZUIVUzErEkwEjchtJRgFWA1UJD8/lvf+pY+97nPjZt5L9kvE/fxmPp482agUquUGAOHSmrdas+LpUU+WwJLMiP3ww5ivJ955pmjAFSSsY01xoky5FfD9RMBQt/4xjdCgTJnEY2lfwOvGADEYIzPtWq7Ks0x67Ar99PmWMmoYue+SnttvH3AXJB++JhjjtEnPvGJIJVvTVRz9D60f4rDBembfVDsiJo8a7EWwRK/184+Up63ZP/5HeDC9YARnuHU3j4rZvzumyMe7HvAdQhKmA1oAwEKPxjMsbQbO3dXmysAAj4In/70p3Uq9WmCr1WFao5FfBB2OE6OR1fqv5dmoA4QkjbhSgAhYWL4dWwe/B7wUeCggNYpcAPiBu0TB8/Bgpg4c6Kdz5Ae7M1OTgQciTio2BU5uK4mhwRiBzg7FyXHGTMfE/If/vCHoQ9TqUH4dczveM+MAQLzZGBQjXCZKOKfgQ/C+9///p0eUQuoeTUw/Ljj4/Wnkvp4rLm99pprtXLflSNlfGuZk/HWanf/Xot2AeZmgGA7vZl2rf1jD+GDwBlGUOG5SYDAd5xngIGBq6MCHA0Dc7eAEeeJMAhwimrohH0GYhMoz/A1sUO1wXYMRHwuaBuNgfMj2BfLY7fgZMHG7bqt+G++GxX+HU1grQAhVUyrrQ4Qat16I9fVAUINAGFoaFhfjPIg2AcBFT8qenuZ2xGQv1HhOXRoRKJKYNuJEEMf8Fg649C5apqdlOJMe/EBNlMzQ3PCFxMRH2xHMlRzmoqlOdrHxAB4qZRJcSLagVoYy0Qk01hTMOFTMc4NzKWzVkIEUaXGQMH95BpUtRRrCrUYysVrYo3OeH0bjyFXA3G17q2JzKn3iJ9Z6Rm1rGPc52uu+V6IYFi5slSLIdY01TqGseZwouMbbz1qeZavQYXOy2eXs4r0XEu0kAE4Ghb7IIwAhOywZs4sOQBCa5C8ceaDiTu7I7THZb3pA+cdaR1BAjqFQAB4tTMhz4CWuR4HfkUOXaRtrnfoI+p+nmstGWPiejtD8j2CCOYDhBfuw+Tqc+IwS2fEdCVIrkOIwZTBu4UX7iPCws7Z8RrYSfFTaBBOOXUMJ8W02qLQy11Z59+le6cUIJQrq/5mzF+hqFpNDIODQ7r0y5eOqNE5MKjPfvnLX+rII48ciVO/7bbbwmHgMFLNDFXZiANgudgOPjQDgyXE7/j1WibMCW9A5jYD2CbIQXMIE/ZADqwLQ9lLOJYIQOPYBDnAHE7ut6+ED3Elj/Yk8efvH/zgB0GDAEBIMjP/XYlIm4H73dqLWqSzWuZrd17D+uKHwj5g7uzDET+TcTAm1ggQhQYhZni1ML9wnvjP4KCGXlqvwtCQWknWNb1LCmGqJMgaVnbtGqVa2pQJxYOw3e++SAmDhLGeMRGmfPXV14bkPStXkgchFRJ4hdpCwYufbF4F1Jwl3zMqVYRrxk4XXFIx48cAcy5J1hMxJ01279h8x/gRHgCIvDtPAT4BMDmYN0yWM8lZhQ5Yy2DJ2nMIQEhWc8RJ0QAhNhPE/fYcJddirLVJ3kN70Dn65vmb7N7yeeDdTtm0BT3jO2sOnPArFkTiqIXk2jjM8dOf+rROwcQQ1r5ymGMdIEx8Z1cBCGTnL+fwK3P9EWI1xjPCefbh5jPoGTL2akQOBTJzlYonmSDtGNpoH4QkQDC65/rxCGWl32HKMBnCC5OvsSTfSszTjD32IYilMGfgixPi8EykBxyOfK0Z9HhjSjJBHKTQIFxwwQUjP8XaChOwShK2pSuIQ5w/f+Lb+Fd7ByAM8w7FsSjNzRq87nWvG5GAzUR5Z24AUZhgJqI5UO829T27Wh37HygN9Kvvl79Qdus2zVi5QtpzsRQyL6alwX4N3XevUq2dKsyYrpZ9V46d/vJXO1XjPu3aa67Tvvuu1IqVy8pMKFAMOLtI9JlK8XdBvdu2K5UmHr61fN1YIAhAgZ9IUd3dm9Xe3jYivY7boV24wPseUyCMFedLzp39HPidfQ5wAGByBm3uw/EORkweAP5Zy+Byz3EmxRggmCb42T6/1bR31QBDfF9MZwAnTtc+EdpQaRonC/7HorEBIJx5ltAgnHbqqeVaDDsnSiIPQh0gTHxzVwQIG1XQI8WievNFrb/7bg2l0lp80P5qbO9SUZT8LKj30cc0a+VKFTMpFTnQ6ZQ2PrRKLe3t6ly2VPlMg2YWc1qYbtQtV12t9739bKVD9bWGUTUJwqYzoy1LBvZifezRR3XgQQeN2NdiZmZ1pBF3zBTj78yE4gMQmBYlmcsZDjMN9CmQ9UDEgwkhVyptiu0vCRA4/Ki2ONQcHqRIV0dEkqdvdiJ0fXM0C85iBlHgPucoADUjhZPHwAlJnLTES8o9XA8RgcjwjiTiYk/0hWfaacoaBBdvcmITZ1ZzoRWrCmnTmdXGQuy1AAQnb6HPmFoYG9EacVY0SxSoR7me3/B8/nXE4k/02KC6JQIF5yqqdLKf3vCGN4yqrmhiCJCg2qbj2KsS2bD/CuiCpZc3ULtbWx9epelHv76U+npnKBkk6tL5KSjf3a2NX/+aFnzszyY6nF/r9d+79nqt3HeFVqwwQChJGH29fVq9+gUVhcasqK09pCifrf0P2DdoGUqv8odR0ksJ8JdAfF7XXHONDj74kKDqrnVfT3ZCeCZ7gz2NVoQzaeBtgGwBgD0PSCAEdtmyZeFa9j7aBEwAnBdMEtYg7AAIPaFYmzUIk+3rb8t9owDCaacqJIQLUmqyWFPdSXEya14RIDxSKOjrhZxeyKV03//5B03b72AdeOxReuLW27XfmW/VYL6otV/9qpafdqoy06arsH27tqx9UQ9+49va++BDtPjUk5SbOVOLM9JxqQZ9/NxzdOkn/1LHHXFkyPoH0SRBD3atgw8+WE8+8YQWLdpTjz32qA5/7eFKN2T0xS9+UTO7ZuitZ5yum2++ORwgGC/V2EDm9957b1CR42xn9dSNN94YEgxBvPkOCQ+iQNjNY489Fsouw7C+853vBFvcMUcdHZhTprEEWnyYh4eGNTw0VBUgWMWMehBGz8E283YqZRMjZzVDa4AqGkLB/XxvgAAhgCi4Kh8AhH7GL1dYAxTYU9kAwQ5BPNOaAgMAMyrmA9AQAwSDJ2tEXOCmVkLKfdU0CEjNtIcannBPgBIgCpDEPDNm5uPSSy8N68R6QgRt53QpWGdlM/hxumn6bhE20wIAACAASURBVLso80Fb2EHRynBN7Gg5FerlWGvEOGACPJ91hSnAEOhrUk1bM0CQtO2HN2raG09QkUyIixYF7Vspzf5oaXknAJzL6pVrrlHz4kWa/rpjdip5T9/DPi+XRp4Modhd93zve9cH8wIAweMczg7q0Uce0ysbNmvOPFJMD+rRR5/Q5k1b9PvvOk+cT87zUUcdpQce+IXyuYKOfN3huuuuO7VgwZ5asGChuje/ohkzp+mGG27U4sV7KZsd1oknnjhSBnl3jYe9YYdB9j6f2evs+1g7iImPFyAB7ZNDj6EJ0Du0e3yfBAhI9MPZAc2cMWe3A57dNUdT2e7OACG/cyXHcI7qAGEy814RIGwtFvWApMeLKa1dtUqdCxeptb1d6x78hRYdfrhyqbT6n3lGnQvnK93coq3r12jLmrVK5wvqmr9A7XssVDupOxsy2rsoPX7HbTp43nytXL5chbJ9DiYO04BRv7R+vWbOnKV169ZqyZKlamhsCI5dIGsIPsTA1cY4OPx76uknNWfOXHVNL6XjzOeyemjVKh1yyKHBQQZiA8GGOcAwfvLjn+iw1xwWcg7ce+99mjVrppYvW1ayWAX6W1QxX6pzMB5AQDKGkSGVc2Bpn/sYCwQCiRkijkTO8zn8MBFrFgwQQg337dtHKujx+/333x/GA3M99NBDR9bU9R0YF4zQZVhdbY4xcz2RDPwGQwWEwKAMfHiesy3SHg50TrfKu/P9817LqxpAgCh+6UtfCuvw5je/OcRYA94ALUhGd9xxR/DdOP744/XZz342ACYYrJ2hAFz33HOPjj322KCiBxDefffd4V6uBUwRDw2RBWAy57fcckvQrNAO++q4444bIchTARBM9AEud955Z5g3+sCYyC2BrwEEPVnQq1aAUFBB2x9cpY6DD1UqTS6Aki2e9lm/oFlJpZUOJrGC0mjtinm99PVvaMG7zlXPo09q+qEHY6XfaekMfn9Vtvha9o6v+X4ACCu1fMU+I46eW3q26Jqrr9YbTvg9Ldpzgfq29+qO2+/Uvfc+oDe84dhw/q+99nt6//s/oO98+380bdp0HXvc6/TFL16q33/He9Td3aNfPvhzvfbwg9XZMV333ffzQEdIqBMX+plIP2u9lvVCIEEDaIDA/oNWuBIlbbFfOOvsXwQdmwjJccJe+/nPf673vOc9ASCwvzHhsX6lDIRoEFt+JX4VtY7713JdsagXnnteZ555VinMMWgQ6gBhKteiqpPiICU7yfVf8g4Kaj2kxdNOe6tSOAqVe4Gk3bdtq1paW9XaXk5lmaLseFrNKamxKDWmpEw5dag7H5sEkgOCsaDCh4lUs1ttvOFGTTvoYLUu2qPkL1H2cyAx0EMPPqRjXn90qdmypqm7e0sAGW3traO0T8XBIW267kbNOu9MFQslKWs8gOBKZFwLw+If44lL7NJvS/Mw+9hpEAIQmwhcbpXuYpc0IY+9diE8ZlIwd2sSaIe2IT5cD9O3JoB3J0iys6Kf63ushaCvLn9Lf2p5jaVBIPPbeeedF4DeW9/61iBpA6AAV0hI55xzTtAcfPnLXw59RLtz2WWX6Z/+6Z/CeHAAXbVqVViPs88+W+RbQCsAALjrrrvCd9/85jcD4WTMJJQBFOATAHHmmRBlm6JqGc9Y1zh5DXN/9dVXByBA3LWJOQSdv625mLiJIae1X/4vLfpDwiFT2tS9OTARxvDSSy9rzrw5Gs5m1bhho1qefkbphXtoxjGv0ysPP6aBrnYV002av2B+YErMJ3uR/eDqjXaehVECsLgmrp5n0Mo+s9+K49OtfYKRT/Xr+9//gZYvX6YVK4hiKFEVxsAemTNnvubNm6XnnlsdqhJed90Nmj17RgCO3/zmt/SBD/xhAIm33nKbLvrIh3TFFf+lt5x4mjZseEUvb1ijlfuiYdxDjz/2hO644/bARGoFv5MZp/0A0J6ddtppI03YjOc9wf5mTklUhMYAgACoZd7JnAioZm+T+4BEUqzTH/3RH0VdejU6dU1mxnbxnkIxhH6fecbb9OmLPxXO3w4TQ6LtugZhUpNdESAM9A/ohRdfVFfX9KDC7968OYCDX/zil3rve9+rAw86MCDb888/X73byPVf0NDwcAANELGf3XyzDjzwIB108MEaGhoMjIcDjxSJlPvOd74zHAZ798KkkLTIrgUBg7ChNcBcgHQOMXMhGQ4Zz26+9Tbtfdopal+xMqjpTnrTm5VTUd/69rfCoTvn7HP06GOPauXKfbVw4YLAoFpbWgNIKLlgKgCJr3z+8/qrlftpj0/8WXBqigECHtDYjgcGRkcxoDVAYmVuYBSuecA4YYCMxdoCriHPPONhzM5LAKOGQTIHjBFizPgZO2PkHbupXxB4DgPXmXGEUsFNTaFdsiXCpHjBbGGwqN35xz2eY2s+rF1B28GLfvJcGHCtr0oAge9Yr5/+9Keh1gNJcOgPc4IGgL4zjje96U1B+0LhINacfjAXaETQ8iCV02fmC1W+s7XZnOO2YCb4LiDVM58AS/YKzGyyKnXGAMN0PHnsdAlQYJ1YX57L2rMX6NfRRx89IqFOGCCoqB9//Vt6yx+cJ72yWX133Kmel19WCyaseXPVtu++6gHwFHLqeXGtMm3tyrY0aY9FeyqX5eyl1NTcPAIW2YvWYNFnayIADIzNRcEMNFnzkYib8vi534WeGI8Lh9W6P2q57vvf/37QFHq9uIf55rwiKDSXPeind3WJ7H1oAOgnIAcag+Dy9NPPhDDJzZu71djQpN6+vuDP0dnZocbGprDP2Cecw93p42JwxV484YQTRvKPxKYFwD+Alr1lsxX7HsdEQgHxQeAa9tS73vUuffvb364AEGqZ2d+BawpFvfjiCzrj9DP16U9/SqeedlpZoNw5igHQ3d7RudsjfH7bZr0iQDDjjkPkXMwHIgGBgamBfB3aY291SwAcRIfuQKi5n38QKOz2sU3X4S4mypZqXQvc8baefA78+iuv1Nw3vUGdK/dVNptTe1t7YPwwEl4O9XPyDx9Say54DyWU169X7qqrtecnPl4zQKA/EBzb/GMVLp9t/+cZXGMpP76O3+ib7cP2o7D9n/e47K7XxE6UvMchTgAfxsOL5zGXdli0it1FnNwvro2jIHxvrZu8GkDw/LB+9oKmP6hPAYnvfve7Ayjgfqtd3Q87SzrFqrUm9MlMl+8cmmn1u8M4/bfncSwP6ErjDA6qUS55PjsjHG3SPwg8Jg/aBtAACjkLpLPdFR+Ed7/7fO27Yh9d/OnPqNDfq2KhGMIZ0+mM1NisAqW7U4Vgc/f6x0l4PJ54r8fzVuu6+h6PZaJzOJHnfO9739OK5cu1ogzofC/r6HOUIT9COdLFIIbfDW5MS6y1s8TuPCRxQqDdORbvYbRgmPoIbUWrlTTtcCbYS+wbAAF/Q1e979AiAIrRguEvtbMGYSIz/Ft87QhAOKMUxTAmQJDaO6bVAcIEt0PNeRBMdD7+8Y/rH/7hH0aSACFBQfwrleJM9iVG0pV+47tqBzi+N3xesy5IWipUsTnt9IAKM4P5JJ2WZsxUceleOzkpQoQuvOACDQ4Nj8qDYIkMAoaakHecCpHWAQ6AJxMtM25UvkjPSO5IxXi/258CDQjSr8vvIh0hVcV5EmBKXMdcQ/iQsOgfWgaIEYQTyZnnwzQAY9juuR7p3GYO+oNdHzU877zQHjAGfAWc8awWdXI1gBAzKocvGgixX6z6jyVW1t2q7TgvA2M0EIp9CdyeIyMcW23mFjtaToQpQKTpB/OIiYO+IHlaqmXN0IZA1GmXNWe+AUN2Qo2Zcq0+CNzzj//w/+vP/vzP1FDOe88as3aonw3uOGdogey06Rz2rB1jZp/4GvYDTr2MhT3FnqA9nEY93/izcB3jghGxn11l1PucvYPpZHfY79EgrFi2LACENCXMy69YuqavMbDnEmt1LIl7nzlPiKOIHMKM+WIqfFHi/iXplUEN63PGGWcEbQ7ziqaVv9kj7hfj4fyhKeRcsybsIwQc9h1aNsxoRMDUAUIVrhYAwothbj/1qYt1Wt0HYYLsf/zLKwKEdWvXBcdB1F53332XnnvhheAwg/3ujz704fD+9refqznz5um7//NdnXH66bru+ut07HHHBfUw9xFehJrts3/398Gm9vyLL4Sc2bl8To8+8mhwzqGIzbOrn9W8ufMC+hseHNI///PntHHTpmC/Pvfcc3XpFy/V9dddp2nTp+k9558fPJchKscd83qtenBV8F6+4YYf6M/+/M9126236T/+4z9CXyFq07umh4PW0txccvRqaRb151F5v/d97w0ll99wwglSKhOMDskoBv4umRgGQyZF+wRYkk1KbCYYJm4QAYizNSEAh2QbSWkPIm5VbpKxWVtjiSR+jommmS5/x5/H8vkwQ6M9E9FamGolgFCpH3xnAh7PUSVAmASC/js557F0G7ft53N9Mhojnq9q47P0iaYDMEdKa4MR2nN4GvsKJ0XU4AAxgBdgYlc0CCoUg8Ms62wwWQ1UOwMm+wUgyT1JbZB9YNh39A+J1dosS9cOKWbdg3lteDhsa54PqOA7QKidL8cnKRO7wgBheVmD4AiNeN3jOTVYtCbNZqRYgxnvdUwvhWJJ4xKvubV58X73HkteF5+LsQBCPHL6A3D/53/+50ADMD/BzADm0EjahBZgKsOPgr8B5YAzTCkk17rkkkuCL4KdFCc2s78DVwMQXlhTAghBg1B3UpzqVa8IELD/Yg87/PDDg70VdAvTAg3/y7/8S5BSyBQI0bntpzfrvW9/u9a+tE7NrS1BGoUIPfDAAwH98vnv//7vA3G6/LLL9fKGDXrz7/1e8GPYunWbMpl0YOJ4Im/ahGfvA1q7dk1Qsf3Jn/yJrrjiypDsxDbz4447Xi0tzVq4cA/95Cc/DrZu+vnud79HX/3qfwWihiTHAeWwYcfDqxjb9GEHH6ytW3q1vm+rDj700CC1x4y0EkDA2Y48CEmAYGKC+hkG5QpjEBeILM6GngvmCynQTIt7IMzcA9GAwNv2iAThfARJQsU4IBb0G2mOeYMJuJIbBAmGRhswBSRD99MEF4kWbYeZJ98zT2gvkC4BT7VKWtUAgpl0zMRj5pxk1ONpjUzMY0YRgx8Djfj3JPAyCIoZS/xdfLBgtJdffnmISmD/WoJn7pgrTAkwWEwmSPkQdoh9nIzK8z4RDUKSwRiseHzJdYmZaQy8uC52zjTASRKPWCqvtD5uh37E5q6pJEKxD4L77L74bMZaJPfZc7Fjf5ccktOZHdoG70P3txpgTAJpX28tRaV5j/d2cj7oEzTAJhA0CozzyiuvDL430EIAABoChCbmF6AAkOC33//93w9M7y/+4i/qAGGszTZKg/CpEcfQao6KHR3TSt729VfNM1ARILC5YXr2BUCawGaMhMShYRNb3dj/8MN6+atfVW56V3BSzBdKKlrbgoshxXBaQ8NDwU8gMO7hIWXS2OYbRZ2DoBZMp9TU2FhOppNS3/Y+NWQaAhjI5nIj8cTEfgXpKZMJzpN4N3Mv19I2zJcwyabGpuCTQJ9y+Xw4sEEVvG2bFn3yk2qcNy9MUiypTAQgWJ3oOGergJkjJADmi9/snQwDNgigL4zBqnarx02IGINTHscSSywlxQwh/lyL5B+3mWS0/q2WdqoBBMYNsWNOAJGxz4CJNmOxE6CJfqwlcF55h3+ZSXjNmDva53fnoY+dCnlmLPm52Iz3ZZwoCvCblPzJYIfkDCAANHEWiMjAGRR1vpkuAA8whmSI5sy59ncFIHAvYwJcoCHgb8BkcLAt5zRg3eibTVbMC2PkO/YZWj6Pie/QdPDiDDAHAE1X1XMIHs9yqlv2KL5CPJNrAUC7w0kRHwQkapu0rKWhL/TTwMR9xlTHOKFBBmS+Lp9Ha7TDN8caN8bMGDraO8P8NbeUfHR4xUDZGhjmje+DY3Nr60gIorUQphmuYliJ2tqfwPuVd75D8Lr++uuD8y5ryLoCDnDoxemV4mdE5OCHwFjrToqVeVlYg2Ipj8QZZ56hkGr5lFPKF9edFGtGAONcWBEgAAjwujeB+PznPx+iF7BnIhlDmDERsEh9Tz6lgaefVvMJx2l73/ZAiHy42fAcCv7mQEJwOXSEoi2Yv0AdnaVMYxBC2qUuOepa2kXFC3EgpMlZBCFS2H5z2ZxmzJwREDlmCLQDRx91tIazw4E50yZEnWeW4oZ3qGzb7rlXLcceq9T0aaOmxlLq6CiGyiaGqZr83/R2mFeiW9A8xKmWAThooVh3mCZz66RCBgbO8W4mZts/cwLDAlihDXLopZk9e4895IRIvLN/rGq2bd6aHYMPGCaaFZ4DA2WPwyAh0Gh6zIi4nj4CBngWzJ9wW/qCI6IL3ji3BVob9irPw2+EKB3+MQZeSQ1CJVNPEowxVhiazw394HkGNwZG9BltGWOxvwDP5fs4nI8xo8XiHAFkOEPkIWHuzAydtMuAjHlk7ZgzruE9Tj5lJhmDzeR+HgtkGkAZIBA9Ezsg0h9oQv/2/iAMIBUyBrSZBqAwaIcZs794HnvDjB4QyJi5B9+Krq6Z6u3dpj33XBRyiUBPmFfuYf4AZdbKsEfog/1R2IcGFMwN82zNai1gOjk3jJ/20bLyTk4EzKr/+Z//qb/5m78JtJD5ILyXvRAXQ6v0vBhc7ypdqbQfa21zovdWG0tSe1rt+Tt8EAhzPK2c6n/nVMv1REm1ruDo6yoChGwuqzvvukvDA0N63euO0g9/dINmzJipRXss1BNPPKk3vOlNmtk1Paj0Nj/4kHruu09NRxyhDRteCjYhiFZLW2uQtpqbmrV69bNaumy5hgf7A4G99+57tc8+S9Xd06PDDnuN1q1Zq1tvu1VvfOObtKIcZnfLzTcHJx5iWwm3hBD09GzVmhdf1F6LF2vm7Nm6/fbbdeSRR4RD9IEPfFD9fds1MDQYEvGcefbZ6u/dpi1beoJppAEP9HxWxTvvUuNbTlSqq2sCAMEmhtmTm+XfkruSTAFiiuo0CRAgtphDOOSW1CDGThwD0YW4WwtjqRhijtTk3O8QRoflubKcJTuugxEgQZuRQ+hp16ACRmlNhCNGHIpGv5wcinvi8Df6w+9XXHHFSOgnz8I0wz9AA88FDFPKGRsyfaaPmH8ArTBXXuxh/HGcarkSQOC6JKE0k2OOGF8yPM9+F8n7qqm+uT5m5nGUR6zSj6+hLTPtpINo3OdqzKkSs0iO3yYGAII1aVzDXLL+pT1TUF9fb9gLrDtzwtqxRnz2HqGPgCr2EcDPGlA+B41Ja7uGhgdHoo+cftzSvsErf9O+TYEAMAQXa7Hsx+EsqpMBCJ5nl4VmL5GdE/CG2cHzXQkgJPfLVIKDXW27Vsbu8Y91fVKrV4mMAhBOP/10/dVf/VUwy5TSj9YBwlSxnIoAAYe9Ncprda6o5++8W1kVNe/w16qhBbW9VET9jwp32gwVNm9W+sU1ai6nBk4XWKGUegf71dpSyvaVCk5CGbUX8moiXGnjRmW7e7Tvgfupq0hhllJeguefeDwg9qefelqnnnNO2V5UStREtMKmdetD+vXZi/Ysj390wpD7br1VRx59tNa++IIWLVs+Mkfby5kV22Z2SWvXqHjQQUq1tY1KfVpdg/CR4KR46Ze/uNsctaZqMXd3O5UAAhIQTPAjH/nIyOORiCDIqKQhshBciDlSLX/zuxlo7GDIZ+5xXQv2At/xXBi9a8uzpwwu+M7hsxByGAjXm+nz2fknYBQ2e6ChMGiw6tgDMHOmH1dddVXJBJZKBV8XwCZEnfvxzwEc8b3zdNgMZOKGFEyym/EAQpIw20TCO8+zBBszFhhVUu1dCSAwB6wRWgD6bTMh8+JwZL7jWdZOBDJbKGUWZS7RssTgoRaAUAuzASDYxGAfBPoAw3ToKnsCps/3XnvGYfDpvA4O7WU/2ORjPwr64v1rLYEZq783eLG2ysCVex0tE7dTDezVeg653+G88d6L96NNDMly6hNlxLX2qZY1G6utyfSrGhCYOEA4s8xL6gBhIus95noWq8DPHxYKuiab1c1/9/fqWr6fVp58on7xvau1/2mn6IXrf6j9zzpbqUJOzz/wC2UHBrXHgQdq/bPPqG/9Os1ZslQbV6/WjPnztMfrj1dje7uyhbxmr1mrmUuXaPCJx9X44hotW7K35mzarNcffFBQ+/6f//NPeuWVjSEh0zXXXF3OlxCOZCAYP/rRjzV37hwdc8wxam5uCYf21ltvGSmYs3HjKzr88NeGSAeYxbp164On+UMPPaiHH34kaDVmz5mjo1/3ukAo2YCo9o444oiKtRggJBD2vr7t+splX9HsOXUNQnIzwUBRo3/sYx8bBRAg0khDEGiYm0M4neiI7/mMhJiUxFAHw5C4B0AB00crxQs1s5mnGTVrDeDge5igs0UaENjng2fCZFBH25Zthh47vVmiNoFi75E9kWt5PloE+gbTpZ/ve9/7RkIckyCqEkCodCCT91VjxpM5+LRNP+gz82gThv1y7NvA+BxGy9iZT975vVrl0bg/4xH0SswjCRAspWPSIb8JfZ0+fVqYe9bW4bqsN301gEIb4IRj7DfoCdcaUJiZJ31uTP5ioGWAYJDEeyXH3SRAqJU5jqVxiLU5fHYehLEAQnKvjLdHKj0/ZgMT1YhUuzfJWmp97lgakeQclzQIZ+iv/uqTOuOMOkAYb+0n+ntVDcKNhbyuzhX03IMPqnPxYk1ra9NjN9+ivY8+Si8/9KCWHPcGNfZs0sM/+pE2PLxKR37sj7V57Tr1dXera8Ee2rp+rabPmKnZBx+ixpZWZQtFLVi/Rp17LVFn3zbNGxzUM3fcqT37B/SOs98WJEfy70MEOPhUx4udopDm8Nrn4KOuhgkg3ZAxEAbFC6LB93iZo26GcaC6hMCTd4B2YQz8zjubDSmQa6prEC4K0RaXX3n5SIhicpJjIlPtN3+fPCRj3VuNkSS/35U2xyIMtaguYZyYEwwQuAdpD78Q23jNhC2hwqhQ4drp1XZzGC7M106w9kuwqQDmbp8SOyTyG+vqhEFW2ZrIx0yL9pyAymF+482xmYDBJAmSCI/FsYz8CDBOpFWYqBNTxW0mAUJSQouJe7yOZtbMhcHsRA/3eIyjFgnYc1uJQdbKGCrtfd8bAwSPH6maeWtvL1U4DI7K2ezIOpvJM9/eS/QTsGlQwJ5yenPPeZyYzImK0GrF0Q217PlqQGAqAEIQh6L687WYGOJ9MdH+V7p3qgBCciy1AoTkfZVAqK8ZDRDqJobJ0ohq91VNlPRKsaAvfP867bl0Hx1wwP5KsWlT6ZJKrDGjdDGlTKGobZs3acu6NZq1335qaWkN1oDh4ax6erZo1oyZIekLBaGLxbQ6CjmJyAQV1ZqStq5fr2nljIHtbW0jBZnc2UJvr9Zd+XXlMi5sWypg40iV6ByF72xwGHVNuShsuNYRLlElULfVNm+BZr3tjESq5ZIGYTIAodpBHYuI1HIwK7U7VW3WSuBiJocGIQYI/IbmgGqdMHuINJK8ValWldv0wO8we4g3AABHVvejkt07ZjaxKjiWwJOgq5J0HkuJ44E6frdHPP3GERZfA/tK+Dc7Su4qQKA9JGgArsPl+I4Xz/QLpuiIITM5gxSYJdoNwAvzaoDseYaBco1NMfbtgCFzfQwM+A7pnLDPWhjKRPY+dQtYcxwgLe0zZpw/6RPl4dEg0Afmw86mXINZh73HGJzC3OvKPmPfAToZM8ID7aOd4nv7r9hRczwwNRaTGgsAJffWRM84eRAY23hOipPtfy3rOR7TqVXImAhAqAYSRrVBLYY1dR+E8dZnV36vCBCQvpFckA5R03/gA+8LUQ0nnvhm9fcPBCKFF/RVV12jT3ziL4KHMQvXP9CvO26/I3h74+Hb0lryMv7RjT/SAz9/QJ++5OJQeOZ7116jA8oJaCC2EB5Un48+8khQR7/hjW8MYZCp7f3qvuq7ery9LRAoTAs4hD33/PPa0t0dEjPlczn93//7L/rXf/2XMA/0g/h0JL3gff7KKzr6qKOCREKuepzL1q9bF8pJ//Vf/7XWrlunfRfvrYb1L6vxLW+aFEDYlQX4Tb4XwpDUIDAeGIzNC6yHbdl2AnPIoUGCK3XCEGKt0XiakSQoiLUFMYipNMeVQMNYa+HrKz2zkhbI37HvUBNTytr9G49JcK/LXfM5JsDOxGdmGkeD2LbuNWAu7bDpCA5rDXy/7f68u4iQtWm+xs5+u6PQEfkAoBcABNbffgfQIEekGHjZZ8J+KewbxmX/AM8N3zEX9Nd+Co4qga55/q1Fop1KGpJazuZYzLGW+8fbc9YgjC7WtKst/5bcXwkgBEmwBKZHo9l6uefJrHpFgNC9ZYu2Ue9g/Tq98sqmgPBB4EiEhCgCCEjIQ4QAKv8tW7rV2TktIHwOJ8WRnGb0qaeeLsVzU3Bp8eIgeT315FNatOeiADTMJJCYkBIWLlgYJH2iHe656Wc6d6+9NHzM0SGCAcLQ19sbpAByHMyePSdIWgP9/Trn3HPLxZ7mBYJBNsi58+YFQEEfu6ZPHwltIsPic6ufK3k8Dw7qhNe8Vlr1oIpHHalUuiH0nSqV9kEYT4MwmYn/bbinGkBIMrVYGkhK/SbMEG3/+22ZG8YBQMDR7I//+I9rBgjVpCd/n9T0VAMcScDkea3FtOBrDYjGAzWTXTM0CIRPAxD8DM4fRbwAN9AEhxy6SiVMHobvrKPQAGsFrEHhWoQOR61AE7jeuR8ADuw9QBThqa9GgMCcOpNiHSBU2GE7AYQzSyrmYt1JcbLnMXlf5URJqx7V4D13q6hSXfo0deiJRkilSl7lkhobGkJbMGqqIFKnvlCWdsh7XipzkC47lJUQHcVnQO3BJk22t7J+P3hQF/KhKI3ti1RSHO7t1bRfPKhiuagR95eeVwjV6/h/kJpS6ZAcyU5VoY1CSeSmUwAAIABJREFUMfSXdnmFvoTnppRJpcN3IfSrKDVQj7qtXXl8Id584ki55zpAGHubVQMI+IvggwD44x9EGwJO7LmjEWxqADBCyGOJdqo296+znViDMFGAwL5DNY7WDGZJW4BpVM38g9G5RDh7GK0Y4B0w7HTPMN2RZGb9/UEVD1hh/mGKrAUStqV0mCzf4+9A+6wH7QLuWR+Y6O54xQDBTJoxk1CIsfGP57OHcBClTwAENFTsHb5jvuzM6igMxsCec74K/nZ0CmPkM/8ww8RJpSY6xkrao4m2Mdb1dYAwxuxUAgghIq4OEKZqD1auxXD/A9res1WLjj5KX//vrweHQUwBOBGSMCk73K+hbE5be7epa9pMXXH55aE087w5c9U1o0vPPPtsSFREGmScSP70T/80HHBUrTh4IS2QaInoAZA8seSYLN7xjnfoH//xH0NkAZnGIBSUTkWbgHnhvvvuC+PGOQxNBuFlvDtUjjhYCAHPIdsdB/+2224Ln7kWTQiSBWrxu+66S1/4whdCylOqpmlzt/Tsc9KRr60DhBp3VwwQSIttCZc1wPkTQgwhh1ATR54MFbN0GkcQ0IYlXJsnDE53NzGucdg1XbYrAIF72ae2uTuNd9wmTBOw7Syn+BM4VwSMz1k6vSa828nXGT05e6wPz4rDQp1DwOp5R4vsDi1CEiCYiQNMeC79cppyxuREThY+bH6ABth8QP/peyk5UtdI5AbfuQT2b8peIqMngJuU7/VXYgYKxVDjB7o/kgchaBAqZFLEB25aZ30KJzgDOwME0rA+8oj++ytXaMaBB+iUU08OKJyDDBNnsw7nhvXi6jXBrtrR2aorrvyvEMt81JGv056L91RLucwv90DILr30Uv3g+h8ECeahVQ+Fa5EEkFhIIjN71uzAFJbus1Q3/OAG/fDGH4YMYxC9Bx98SGvWvBi8xpGCYDzZ4azOffu54R4OEADgtDPPVHNzk15a/5IefOihkPMcEEBa07333kvHH3e8Dj/iCH32s58NOdCx7b3/fe/Twj32KGW9696i9Lr1Sh9zVB0g1LiJqgEES3Ssj+3aTo3s9LgxgXZoG7/ZPAHBh1k45bTt63G9gxq7+Wu5bFcAAh12KKdNMgZL8TufzTBjs0GSkduJMuk/YTAWT5DvdeSJn881k1XDj7UA0Ah8EEi17PYxC+BHxPm3GQCgAJixdgPTA1oSfKOcnpm+Q2+cIpl70KwkU0R7L+0OwDPVm60OEMbXIAAQPvnJT4aESYCD4ItOHub4Vaz7IExmb+4EEHJrXtTg965TcfVzKpBJrWxGQGXPYaUaYxwWVO2hLpoUS40lEXNHNAELmVjGkeZqdSJjO6RV0Prp09RQLKpQNh8k+4VpApvEWKU6OvfdV/POO0/ZoboPQi2bqRJA4D7U4EirTv8LgWbvWP1tRzSDAfse8DtMgJe96fmOfw59dAGsWvr367xmVwCCoxicHIhwUeaIeQM4YHrgXGF28G9jjdU5KWiPftlOz7tt8w4TpU3WDSbLtXxGE8fvTm41lfMaAwT644yPTpXtsEU7Tjq81dkSXVOC3619sBMs39Fvvjcdsh+CwZH3YCliYke56akc4660VQcI1WePtYPOjNYgYM6uwFXqAGFS23AUQGBaN993r7offVTtp5ykvq19wUYHYXj5pZe0ddu2QCz6BwdCCuVZM2eWHAe395Wdfyiu0qD+gQH9zWf+l/7yLz+phYsWBvtgGyGQZYLDOwffKkFUfxBAVIPk8IdAkpuA72AsqECxNSJpWLLiuWg0luy9V9BY4GmQCRhgktW68J/AR4GStxUAwmVXXBay6NVfO2agmgaB9SRMjXV0elxC0nYCi9FkmqH6q7Ek4t+ENdgVgDDV4+OsANqQyAFrrAtgA1OD6xo4SyF/+3f64XLlnL3dIXHHJgZrAugLJk0zduiPf6NP9ldBC4lWkn5xjSNnHC1jkAntIJwReoNmgtBP2nA71jxAf+Ixxp+TGi8DjHitdsf8ABAYF+HW9VdiBorS8y88XwcIu3Fj7KRB2HzfPXr2zrvVd/Aheurpp3T8CSdo/333089uvllPPPmU3vXuP9DP7rhd06Z36eDXHK6tfb165rnVWrBoD/UPDmr69K7gYPWzm2/Ru/7gnVoxa6Z6Nm0KEQccMgiTY+NJU8uhImpi3dq1IdyR8EN+R2XkTG84vP385z8PZVAhHhCAbVu36dvf/pbeft55QY0YKjdOFhyUk5M4HG94KDsSxXDhhRdo27atuuyKK+oAIXk+ozBH+yBwCetmTYCdTiHwEPFdWaPdeA6mvOldBQhODMT82c4+VnKnsQYQm234nARqlrz9HPd9h5NxCdDvjlcyisGaAnwrXMkSEyemJv6OQ2Nh+ggJvMiOyZ5Du+JMiuw1hAvmkr1nsxXaEdosJWFqCSCWe2LzVaV96nmMtQ8xYLEmbCrnqa5BGGM2K/og1DUIU7n/dgIIA8+t1sCmbnW89nCtUUGPPfmkculGde21p9TYqHwKM0Nevete0KaBYXUsW6GBQi7Uayip91MqErKmjDqV1zENabVv79PaRx4LzoVkMBx5lcsswNfvvOPOkOEwqDFte0jaIKJER8Xy575ecv53CFtImhu3bYsyKZXNGcPDiB0hSdOI+ikGE4ND6lm/Tp0HHZTIg1AsJ0rq0WVXXF4HCBMACBBj1L/OXgchjssqT+UmfjW2tSsAgXtxzIVJ8nIJaWvP7KvBWbFNnt84W5b4mX+YnuP/be7x97RrPwMYKC8DEPsdBJNiLhcYrCMipnquKwEExkL2U55JH5wtk77wHf1zsS00I86QaTOMTQXWQHCf9yH3Oosq88scsS+dddFmHANb1xOxr4fNYzbTML/u0+4AvwYIVEvdHe1P9Xr+SturA4TdPt07AQRbb9YVpR8U8rry3/5NLfvur+VHH6X1jz+lF557Xoe89RStv/a7KszfQy1NLVqw/0o1tLUqlyvqxQcfVM+zT2v5W07RggXzdWyD1LZli676i0/qc//0uWAdWrXqoZATYcnee4cB9m3fHkK09lm6NJguGpsaR3LuYzJ4/rnnQt6FoaHh4ITSiTdqKhWISCad1kD/gB5+7GGd8pa3KL15i4qFnB5/+FENZ7M69KijJMo+Dw4Gu2owE1C6NaReLCOUV17RU9dfp33+/M92SpT0kY98NGSFrAOEnfdiNR8EroxNBjYX/C4RuF0FCA5ndOVL5o79a/U57bv8OYCB6/D25z6YGn+jMk8WedrtFGWCD0gCBMYHQ8f50DUiXJjJ5xdTgfOsONrBZhGHUeOsiPbADorcy3zA2GkP2gGAjUs+81uyQiSmMdrhmWgvmE+AB39jokGLMUromeD4x7v8G9/4RtCM1KMYKsxUxURJdQ3CeHtqIr/v5IMQ1GeSXilKVxek62+6SS0rV2p6R7s2rH5WG9es0T4nnaLtj65Sy6w5GnrhOc3ff7/gY5DLpLXxlw9py+pnteTNJ2qvufN1QGNaK5TSA1//eghj7O7eHMDAgj320OxZs5QdHtaqVQ/rzrvu1HvPPz9IPDhKIRn19feHd2yIB1JfYUtPkATmzpsbGDzftza3aN26tVr/8kt64wnHKzVcVM/ggH704x/p4VWrdPoZZ2j//fYLWg8OmvP+c7hDQqV1azU7ndaLX/+Gln38z5XOpEf5INQBQvXtNBZAmMgm/G28dlcAggFWbPd2PgT2b/y9547vHPvv734TAFklDQJjMRiCGbvuCkwZhs84oQPMBYCIc8xvBlM2KfCbky1x9rnX2hdMETZd8DyYv30S7CNl0AVgQTPj+aUNa2oAB9ZY7I75rgOEMahD1UyKoebw6BvrToqTIrM7AEI+Jw0OSE0tI5EG3UVpzfZBbU2nlC3klG5MKVNMK5dqUrqYlQYHlWrIKNXQqEZ0/g0ZNWSzShUKampq1tx0g9oyRU1TRhrowzUdvSZZlkqdHRqS8gVt3rgxZGNctmIlWZlK1+FRTKjb9v4g6Wc6OyQ0CA0Zqam5bIYoSqhHszmprTWU+ty+Zr3a58/Ttu5XtH79S5o5c4bmLlxYag8zw+DgSBIloVrs2aImisE897wyBxyodAMAYYcPAmWMIVZoEOwxDgEZTypOOt3tKtGu1l4tq17J2apafyo5C1Z6hq9zquXYByFmWsl73ZfxxpMktpWYYtx2NaZZbX6qEXOvbaW2A3gex88lOS6ieQipjTMpVmonfi6fAb/Y120iiFMGk8ac322Ph1mhYSO5EOAaMMELJz727O54jbd+Yz0znsNkmCO/wZCR8HkGzNcRLK7b4SyIaAOdIyN2avVc2oRic4GdnuO+u8YF/Y0BgvvIu8Mifa2fuTvmNdkmiZIAN5gYpuo1Fj2o9RnVzud49491X7yGVc/tqIOpnWsxjJEHob1ztBPqeH2t/060qE9LLitt75M6ujSwbZtuve3WYE6Yt3ChDjzsMHIqqpDP65mnqXNwjy648AKteughtbe3ad78eaGcMj4Es2bNVCfFULI5rX9xjb7/vWuFM+LZZ58Vfr/5Zz/T8mXLgmPiyhUrNW/e3KBBuOWWW4KD0aGHHhryFPzywV/qsCOPDH25/bbbQ5lniN8tt9wa0OERRxyp7dv79NOf3qR3vOM8Ld9vf3318su1YeMGvfY1r9XMWTNDfgSIC8QUtSLPGR4e0qmnnhq8mUmy9J73v5/4ByLPQybIdENDQoPwkXBAv3L5ZVNObKfioO7qJp7sQfdzyWNBfgoY4G/aayrmv1obJnaVUi3XAhBg/qjAY8dBMz4kX5hlHNFDdBESMy9fh/S8O0wMuwIOkmOvFubImXVIoxMceX/ZqRItoHMnjMVcYjBP3/kXJ+eqBXyOBwxrYW6TOR9oENgHrzaAEK/jRPfDVJw7z2WpmuPpwan9zDNJtVw3MUxmn1UFZKMAQt82afpM3X//z0MCI6IHyGB4OpkGU6kQ4viTn/xEX/nyl0Vu8CVLl2pGV5e6t3Tr6WdWh8yILpLCO8CATIU33XRTSFx0/vnnhzYfeuihkBiF7IZsFiSgf//3fw8FlohI+NznPqcf/ehHeuc73xmkd1A0ktQZp58ewufuve++kImRpElkXETdSLZGwADZEQESOETut99+euMb3xgcviCUZHaE8Jx44omhHTIzfvaz/19I+VxK4Z1XumF0mCMaBIDL5Vde8aoBCLtCjJIS/K4ABO4tFfRaF5JmJV/jEdWp3MivtrbGMjGMBxDM5KuNqZq2pJJWa3eswUQZwlj7gkRmJDyCHtBX/qHaJxIKIMD5h5kDFvhHtAK+CU4RbS3BeGci+Xv893j3/jr3Vh0gjD37dYCwe3fniAYht2a91vzrv6g/06ihocHAbPO5vJqbmtTa1hZU+iV132DZ+YcwoWa1FQtqGh7UpkxGTdRM0A50XsgXym0NhiyHHZ2dofoibTQ1N4W2XYYZ6Sfk7U+ng7Q/ODiktrbWUOdhe//24BdRcr4qlaItVZgbDo6L1G2gWBQ5GCjqxMX0paGhsdxGqdpkSSVbCAQGTYJtlZir2vZeosUf+iOpMTUqUVIACN09uvy/SiaGqXztCnOeqn7sah8AktUBAqirVPdCg0PSurVSPistXqRia1tIcVVKX1XBZqiUqLhRvnuqhvsraSdmoJMxMdBJzh8A2JoC1OnsW/KEYDpwyB7ngGfgTMdzAbPkLiFb6e4AB+OBl1omOO5X0sTAmeR3525whUenjnYoMte4dDUAIk6AxDxYy2Awxnzal4E5pT2bDAAbsabF/Xs1AIepNjHs6pgq7amJAsZKGoSJ9Cu+diIAoQMz9S6Ewteyt3/brhkBCMMvrNFLV12txR+9SPk8TjkDgck2NjWVkL0w92eDE9/q1c8FJt7a0qL8889rza23qe20k9U1s1Retb2jfST054nHn9B+++83YrMHdHD4OaQjte1DQEExmC+wrxLFMDQ4pExDJlRlJI8/RZbIfbBp8ybNmV0yNxSKBW3p3hKkjFmzZ2n6tOkaGBwIfYAgzJ0zNxRrgnhABJLextSFQBOBySJVTKuApLKTk+IOgFBPlDR6+7NmBgg7mRiKOWlLn9b9+79pj3e9W7mZHep+bo1SuZy65u2h4sMPa8vLL6v10MOUU15D2aFSetRiWg1tLeonnr25XR377KW2+fNHPZh1QyvEvuAzL5iFndUc145qln3KXoMBYKeHoKCxgpGSjIukOTBi8m8QNoj5iTLhu/oy0awEEGpl3LF9PKn5ifuX9JuwJL6rY/hV3H/jjTeGM+9Uyyb+cXpo+hH7EdhEwLX2DwAQxNdAYzwvvDvHAff4Wo/P7fn6Wten1vlJMtCJtL87nBTj/ozXl13pe63zE6+DP1cCEQZ78fXOpFg3MUx0tmu7PgAE5Le+tWu1+bvXau+PfUQ9W7YoXyzVU+cAXnvNNcGej22f36bP6Aq1Ep547DFd9NbT9dI99+qZPRfpppt+GgofUdzJ4UZIANiIvvSlL4WQINp75JFHdOWVV+qoo44KpgdXmOOe//2//7f++q//OkQ8UHQJ+z+mh5Bnu5yExypH/v7gBz+ov/u7vwvEgD7R/vHHHx8IDu3yNyFTtHHSSSeFbIwxsaV9p5DdkShpR6rlWINQBwg1AIR8QSoMS7fcKZ3wRqmpug5g4ze/o7Z9lqjjiNdKVVJkV9rGsR2Zz163JDFLMs5kW0nG4HaTxCmVIkKg5EGPFsrSZzKxUCWihg/C1772NX384x+fULnn2o7vb/5VAASAHgXc7BcAA8fE4MRIjjDgPKM9wczgZE9jASdrO+JrYhBQyVQzHsOczIxPhCEn268DhJ1DpuM5wpHXtRjqPgiT2Z1j3zOiQRhat15bb7hBc//gXaUIAVctCE4f/FmKAFBLi9SHM2N7Kdrhqae17omnNO+cs0LJ5bEkmxj5VVNtx4cZwo92gJhmvodQcNhQtcbX7UzQ8SkohbnETCJWTSHZoYqN+1QHCBPbYDtrEAh7WS/NnlXaJ+VthLQOM3VdBT9l+J77lJo3Tw1L9hqzRkayV1TpI6bddmj2COCT/REeGXxKRmfW9H4wcEXdTHw7WiUYUilKIKdUkXA3ypfvSJMR2sqQ56OhbNrKjnjP8zynlI5z+ft5kwUIlZiX97PHOLHVenVe/cMf/jCUbQYgOJ0yQAGtD/+c94Hv0Ary4vz7xVo7oZPnJamFQJvgaBCnm0Yb6ucx1+wH1wqZapDwmwwQ4j33q9h3E9n3XLuziQGiXy/3PFWnvWK5Z9s3eUiI94Uhp9NBCucwE3GApsB11ZHCQ/GU9nZt6ekJRBdP682bNoVqiZbksVVDxDEPmDBzH5LC3Dlz1FaOceb6Z599NhD9z3zmM8FDFedFCDrE3DXhqWkPAYG4c7g59JR05uDTb9pGtWzTAowKxgLR/tCHPqTLLrusZCppLdWJqAOEiW2r0QDho9LGjVJHq9TWoWKx5HDGelHNE/8NHEeJZAG65bb1qPjEM2rcc0+lFuwAarX0gL3BXsAJlr3EOh999NEhKoUX+8ee79YSeE+jWcI8sWzZshGQCcB44oknlEl1Kz/8kKa1kQFyKPi/5PKkjs6qofUobd22lxYt3jM42rJvPD72NAyOfRkDTj5PFiDUMg+/DdcAEDAxYO5xtkLGxfo5aZFNCS4u5cJSMcOKGYvDFWMTjTMfAjqs+XH9Cdrxd3yebNXKWoBANQZYbS0JkcVU9uEPf/i3YbmnfAyYGEZHMVQv91wPc5z49FcECGxIx11ziKZ1TlP/9u16acPLuuOOO4JKEAaMSgfmzgGGOT/1xJO6+957AhPYZ+k++tnPbtY73/WuwKAhojjcQDCJjMBkQRsQ22efeVYnn3ySli1fHsIPYdgcDAqU/Ou//muQ9M8555wQ5w0zwCzBxsCkgHkAkwUEm7787d/+bfBxgIkwBiIZnJHt/vvvD4wBRkJkxUEHHaTXv/71Iw5ecS2G7BAMIq+LIifFuolh9AaLAcJH//iP1X3V1eo8cH9lVu4b3AmQwnnlC4VQCAsH0SCN923V9vsfUMuiJWrbf98QXoqCKtTTKJAzm1A0XBQDuS4x8qgGVyVTQK1bP9YsxCYGUEupnkdaqcIaFQsvS8W8UulMyN1R/H/svQe0XVd57/vtcnpT77Lk3m2w6SW0gC3bBGJcZDCQXN4LCbblCrnhkdzcl7yMcXnJHe9m5I7QjW25cQmEJJcAAZtmMGDc5CrZ6uXIkk6v++zyxm+u/d+aZ51d1t46atZaY0jnnL3nmmuuOb/5ff/51dRCyydWWjIRmK24VxoDCaLZ1CBEfZ+G22WzZgMDlh0bc2uVams16+kxo/S5u7yyqw0/pPaNAAQcLNmnyi+gPAjsdTkkM8eENbLPKxX9CgtorYuvUSrng+CPslFw4GasqLX0gUt4BqK08e8hSggH7o9//OO1J/MEbLFtG2GOlHv+dDHMMQYIs0kGZQFCmNjDD1Qq1AsvvDBgJd7GCLctZyOs9Fm4H98kUO6ldbIopxKUIAg/q1qfvgaBDI/8fcOnPmV9fQN251132sJFsxvFMJsLeTT6CpsYChuetcSSBVZYuMgSI2OW29vrBD3ALZfJWmYq6zQKbVMTNpY3S51zjhPK+amdlk6TPpeqn8ttcmq3NaVTlpvKWyLZaYX8mEMbnV2nWVfPSdY/0F9SPyu7HhoFeaOjvVKOAEAoa84/wCRaJLRNCB60GtwDeFVinlZXXpqiYqM2ToRMDgfIZuvpWmD7+vqtva3d0QUnUcwVeg6ajJLTrbcnjhkNwu49NjUwYE2nnhwkQyMp2subbXzfK5bMFaxl4XwzUp93dtrk1s2WmjfH0nPRiDRYHTUiQQIQ8CnAgVQaBOgKHuM7Gvrf+ftdayttgPa9+pAJQoCOv2krraZAie/EGHHoFZuFzVvlQEJUM0YMEKqvRgAQyIPwmQAgOIt4eRNDJyn646uuGSgLENAGbNmy1Z3m582dZ4NDA07Fv2zpMvv1r3/lQkVIaEQoIqmKCaligz3//AvuNLB69aoZgzgy55G63n1a43ImBmIwP/WpG6yvrz8GCGWmNgwQnI9Kymzo8Set+8B+F5GQHR20nc9usDmrllly1UmWHzFrWrrUhk86yUZHRhxAKGRR7w9YZnLcOntOtvGRbdbS3OpCWhPJLpuaOmDJZMLmLXidzV/0Guvd21uqCoq2C8FPfgsVhOKkKZMCpy+dCjFZYZZQul6ZGQAw2DJ5nyD9bquNT0w4EACNt7a2uMiZnTt22Zy5QYlkhdEBNLgPLdcxY2LQZssXbPKllyw1Z56lBvpscm+vtV58kVkbYcteRbRiVlqSoSZyORt7/HHLj49b+0UXWbKzs/FNFeFOAAKRJGgd/eRFAD/AHf9YV8wKADIJdF+L5B8UJHgBccqR4CdTkvlBQ5PDs6/9iTDsI9YkBgiVp3q6D8J/tg984PcCxVcFH4QYINRPtmUBArHW//u737ONL22y7p5uZ+897bTT7coPfsC++c1v2ZZtW11SJE5MTzzxhItaWLZsqX3zm/9kPXN67Jqrr7HFixbOUFIGtR6PzasyQLjR2axjDcLMdZsBEAJ1kg08+kvrevEFS73vcrPJAdvy2Pds2bmnWfr0c21qR8FahoetcP55JVW98torTz7d6GTon8bKaZ5UErzcKU39VNI++Z9LexU+/SmMrlz/vsYrnH5X3x0VDUKhYGNbNlsqk7M8+UvmzrPmRQf9I6LswPwLGy25bKnZYT51hQEC/AGTE35NHFTQ7gAM+AewAyiEHZTLndh9TaH/u69Z1BqJ1qLMy5FuA0AABP/BH/zBkX70Mf881m/H9h3OxPAZl0nx/UXP4kIQMj1tgyct9kGof0nLA4SdO+1ft221l5NJG8vlLJ1MWVNbu51x5pk2+Mo+631ljyWTaQcGBoaGbP68+Tave45t2bHNJTUihfKcuXMcHCAVjkozLy0kbR5pkpNmbbMMFdxmJ/b5549Y8q1vstJDZ3B27wO4UWbKbMMzln/LG62Qy0+r5kifN8QahIpUVRYguNYFsx/90PLveK8lU1nbtPExZ9tPN3dax1DeJndut4kzznCncDmZ4t+hIjic6BEECAdO9Pzjb8JuuXB2RUOA1oDTJ8IE51OECJ/5KmrU1zyDzzklqiIfAh3HQi4ACmF1OpUimHgW4+AfJgmex0kWjQHfwbQBzvJ8x1xBtI1/CqbvowEQxjdvtqENG2zOxRdby4oVpbI1pWrpRZNgWTW30z7kbeChn1rXeeda6jCb1cppEFgv1oD55afMATIXMK+stWpO8D2/C6Txk3/S8rCutFeZ56jq/frZ6ezfEQOEynPqA4Q//cxn7PcACOI/oWJNSKL2zrgWQ70UWhYgbLa8fSM3Zc/lzJIUSEqmbaqp1fq3b7NFibxNrVxuWezIL2621Jw5Njk0ZJkD/da5bJnt/uUvbNH551vn6pOsJZ223o1bbWpowLoWdNuKuQss/+zzdtuaS61j9y6bmJxwmxbGy0/qs8NQOSmQrwD1MHGubGi+hwnDsAlRRKDwOwKAaAZMG5bJ2PCXvmpD736npVuanVoYBjM6NuYyOXb1zLEXnnnGunt6HPM54+yzbfMzz9jKjRst9ZGPuFTLCJHMZJAHwQGEGz5lfQdiH4RyhFUZIJjZDx82e+ubzVJJs2GiTzAXJC3ZP2DDe1+xqXPOmhaKqtBV1ssl5EomnVAGGCicEaDAhXBGiCDYMS+gjkYAKHqFNlIxQzeMk7YSGvJYR9DLwZY+dbp0fhJtbU7oMAaFw8nnQN/5QkkgRrbs2dAgsBdwqKVvxsdcEIWB139l1GaW7eu33PiYtSxfXlLZ4aDLfnEZUnNkHu1y+UJmXnnr//HPrGBN1vP611qqo61enlJX+xkahGLkC/uTOeQn7x+mB/0t0CAwIG1AWGtAez88uq5BHsX/QWhrAAAgAElEQVTGMUCoMvn5gm3fscPefwVOivggvD/gKWHtgTuqpqy9s+OwZRc9iiRyWB9dFiCMmNn/zpv9APQ+OmSF5lbL5qbsW//lL+zaNR+wsXe80QZ+87g9cefX7fVr17r0yfsHh23+qpPtia98wfoP7Le3fPazlhscsYWnn22Tv/iZPfbwf1jH5JS9+eKL7aZPfdLOzuZLjJ2Nywb//Oc/b2vXrnW2XKIb/PSnbBQYxeWXX24wO2opEM3w9re/3f1NRsQuyr/e+XV75d3vsqeffsYxQBgDIWx4P59y6qkOdAAw/v5//A+76KKL7KJzzrFzdm21trXXu6iFGCBEp7eqAGFwKMiVkUhYZmzMmltbjciQpItoKFiuNfCWl9CWoIYOAIgSvghln+k7/UShUHISJDpiqijEwwDAt01zD0BSWgi/X5mXfPu0YvEVWudn9lMuhbCKupz6+lA0CAhznCd5D9nImRu0JQrXYz4I0+Rz9hHZRdODAzaxd7/lVqx0WU1R1hHVg6YFkM274Vez+qSVzgFzIjNprWhsNmyw7qYW29+UtvHmFmvp6XJAgvuYN1+9H51Kqrf0AYLeEVDGM6EFgB2mTOaAv/Ev8RNUSWMjfwOeFjZBCDAeSoTCbL1vvf3EAKHCjDlfg4KRE+WKy99vf/qfg2JNwZ6c6aQIQGCPlEKr6l2IE7R9WYDgMityUgu0jRZEnmVtqHe/tc+ZY8m2ViuMjtsoNdZ75lghWbAMjCndYhMD/ZbNTFrHgsVO4DrUPjJhw6N9lsjmrbuzy+b2dFpLMlVS6Qrto0FATStVsGKXWXSYIO0U9w7z5HdAg06QTZR03rnbrLMLvbFZR9EZa2SU4HiztrbgRJWZsuz+fZZubrG9u3bZ4tNONVu82HKFGCDUsw+qAoRiR7Sh2iMnQdTzMHkELKYBTsUIUNogfGD+aIQQfps3b3Y/cSxkjQlxRUtEiC3Os/Q3t2eO7du319o6Op2jrOLjfRWyb59WchwJEbWjL5wUFZ0ADSKEAZJ8hraKcWKmUKirnBP5HrOFfBUIneU9ZkODIMHmCz2tj/rnb6UOdgKQA1Q+Z/0//ZklcmZz3vNOR/PZomOlgJFT3ScTljzQbyMPP2RNgIULXmOWTFmuKdibXOxBRfccDgFbDiDwbOaX+ZcWSXPBeBSFwHqz99HayATEWJkPgQiVhkY4+NUf66Hzo9k2BgjVAQK85fLLr7DPfOZP7YMfjAHCbNPqNIAw8sJG2/qFL1mhMGVB9YViJsJk8JereFh0NMQJWtGNeKJLl0llRHdfcaRBIZ5izvRU0p0enSNSEHgeOFO7zg7eJcDAz7Zly+yU224zS6Wdx7suv42zOWcylsaBqUrIZelmuiFIv8jcW0mUVMzrHmsQopMY865qjuvWrat4o9T9/okbYaOTu7+mEkhqm8SPpYDj2pQlUimb/MWjNvrYEzb/HW8zO+Mss1TCLDNho9/4J+s453yzt7wxoL46irLwrHBxH2kfJJx9LYP/onyuf9wjATwbAAHnWDRlaL8QgPzk4nc5dvIcBCQCn9O+ojeShYJ1dnbYPHyBNjxn/Y/+wsZ6X7Gm1lZrP+UUS5+22ra2dtpoZsw6k03W3N5uCRJMufDegs2Z0+PeBY0bwpV3q5aDIDrVTG9ZDiCI77AmAnG+Nii89/2/da+/bvrMT4bU6Hjruc+n93ru89vGAKHKzOWDw8cVl11ht91xm1155ZXFxtPNDI7dxyaGhkhwGkAYfvZZ63v0UVv0kett44sbnX33kUceMfKl/z9//df2mc98xr5+11122223OeesT/ynTzhHxbvuust++9vf2sc/9jFn53SM7bnnbNvWrS5Jzne+8x230Z9++ml3CoTpYUZ4ZsMGu/h1r3PJi1KppO3evcce+81jtv7e9bZi+Qq7447bbfmyJTaya4898vQTtnn7Dmd2oE4D8ep/+V/+0j7xf3zCNjzzjP3uu99jU9kpN6Yvf/nL9o1v/i839jVr1riSzxASpwlUrZe+7xKbv3CBY+xoJirVYuD72AehMl0JIODgN6NYk3ebMmDSntM2Jz/Zg6ELhB2f6aQqzZFOg7lcxiZ++StrT7VY57vf5QAA3vnAVuelj0oxn7TMK3tt33132vLbPuNYQtRLmgM93xco+oyf4SgL3kdAxxdkvpDiFHz33Xc3VIuBeUFrgVkAx0xyOLB/mB/+bdq0ye2HxQsXOUEO6GVMfMb3fQf2O43ckqXLXIZTZiSXz9j4+JT1vvKKnbxylRUsZ4NDw649WhMABuvJ3/g6IKSl7kdLM9sXvAWtEWGOPPNA336bNzfwDTk2r2L9UZJ7lQZYZqzOFt7gO3BvMctYDBAiAIQ1l9ttn769JkAgiiG+6puBaQBh9IWNNvDYk7b0I9c4P48SebtTftDx0OCwdXcFCSeIThgdGbWR4WGnCi6Vb6B5KMoEAQ1ouOSS97l7s9nAg905rpFPPZV096BaPnn1ya56Y6AwyBVPhGkrlHM+Kebd919bJyzZLn2GrXbhUwif+5kUAyfFfAAQlChplss917dUx15r5uuf/umfnPC65ZZbyg4QgYUg43QLDciWjTASaIN2FK4ImEBtTF4BBN3LL2+2znzBkrmMta1Y6VT8FPrC7MAJF7tjkJu/YNbXZ1NP/taa3v3egDgT2SJQIHsKGqtU8HeIbwNqeQfGAIiENsj7weeKjOCELmdBMoHWEmA6PR4KQFAmQN9MwiSHbez6vtyJ1W9bjYKq9eHvmdmmQmkQSMMNABNA4Dn4rIyODbuy8858RNXw8Qn3/uSmSKXSjk/45pbZHJ/TKhWzfEJPaFf6XOQMkSEhBlee+kOfRgMMqWTKmc24DgUghOmmnrmppP3w57rWHqjneY20ZSzOB+GKK+yO2wQQZjopOkiXCABwfNU3A9MAgktaYwXLTuUxbFrSIfoD7rSOsOU08+ef+5z9f3//9+5k0drcEpwuCnmb09PjTnQuamB01EUoLFi40J1IOKVzYQMkQ+HY6Jht3bbVtYfhd3d32YIFC22C/OuZSfcsOSw5pjCZsdzEmHX2EDoZhKXRLwQqD2dOUNyDsKBmBKma/+Ef/iHybEiFfNDEkCkBhN7eV2z9fetL9ufIndbRsNLGCzO/cpvyaG1aBNg3v/lNJ1xvvfXWim/rsuJNZV2yI1Tf6Twn/jyxau5f3pmwZNSaXmDL2bHGJ6yQz1oCpllM6y3VOk6KhcFBSzWlLdG7zzKrV1gS/5b8qEu+lEw3uegU54CaSFkhsdyyecLephcWq7VU9TLb2QAI7CX2Dj/lZwB9K9WwtBeMHXAjjYZzxioCCRUpQnOjmiWy1+MDoogG+VTIZi9TCWus6A0fcNear6jff/e733Vp10sahAP4IQU5G/BlGhjot/37D5Q0TIzlN7/5jSshjz+KQiBnJ8PKQVOpRDk8KY9PQzptTcVwSgAmQrypufmgnbWi7C8Fl3rZq6sDBRdxQTIrDyCEUy3XEs6HwhOq8ZxD6TcqTahdLRONDxColko6fpckqQx4I8yxo3iwrXccJ3L7sk6KMBMxFMwDqBrf8Y53OGFAdAGRBpgRCLn6/ve/74Q137NZyVT3k5/8xKk8P/zhDzvnrocfftjNMW1Qkz7++OPudEj+daIQ+B1QgfMZnuYkXpK6kz7RKoAUaYsAp/YCDo0wS9I9s6FgGgCQU045xZ1qGR9EE/WaCRAOhjnu7d1n99x3TwwQQpMpDQKagIoAIV+wvudfsJGJcWtdssiaMhmbMzZuickJM7ROixZZLt3kDvVljQKkt9i6w6xvn6VJ7V0o2J7NL7tMhwtXrbRsJmu5hx+2tpXLbfLsC6y/b5+1t3fYyPBOSyX2WVexmNPo6Jh1d/bYnHkX2uhYxppbAjOHXxkwKq1EaecDBExwd9xxR93lntmDgC+ZaNhnmMPksQ8QAEAgYGmnFNKo7GlLO1UsZf8o6ySREZzYAdIIfQQtpjcBB4UQ8p70gTkQTcgb3vCGKK9eV5uwiWH/gX02f94CRw9ER2WzUwHYSSbdP1/74+WCjGRSqg7ynFu8U5UG1oEgPXfUq1Z7no1GEvAq8Fatb9FPuUyKUcZ1KIK82r2H0m/UuaRdpOcQ5rgz0CAcBAjlazEwZx2d3fUMIW7rLAFl9HOcIsRgYDqcThDiCrmCgcC0UA3DOMRkWQTuw9eAEELuBRCoWiKPUpIZaQC4R6FUMESAgWyonJw4MQAaFLEAQFARFxgkz0CLgQpS4XGsLIBDTl1RVjrYwIFNOZwH4UhoEPxN4TOA41GD4NhswWzkicet88ILbfyhH1vLwnmWvPAC/OIPMnkXkZQJmHIqAAnlrqC/4sYfG7PhjZssk8tajuqJrc1WSDfZxPioWQIn1Zy1t7fZIGGWmHKTAU2in2hta7XOrk7nhAdwRfBh3z8clw8QMIl8+tOfrhsgCLSGhU9Y0OlZtaIMaCdNRDkhI5NGuX4UORBFONUznw899JAD3hwW2NsAhAXzFwbJrjD5ZCYCXxMntQMICU9gv4f9P2o9N6oWSABsNt/VP4DUGqe+555GAUIlflLPs8sBmVqn+qj9R2lXc73qAQiWsI6uGCBEmXe/TcViTfV2dDTb1ySkOgdXFiDcu94WLV5UZ0+v7ubMu0wMvg+Cq4o4Mm77/+07Nv/atba7d6/lpjIOzMF858+ba83NLZbdvtvS7a1m83vMEunIWmKAowCschIozFC0IH8SMTQBQBVn4m+AKILmcFw+QPjKV75if/Znf9YwQGB84QyN5UBkNYCgkE3VpqCtTBX+nMmkoPwPKprET0q9z6bQ5L3QLgLSwgCBYzzmyImJcQcWprI55/DMxbphWmSM9ez9qG2PRYAQp1qeuUtZzx07dhY1CLcVTQwVNAhxJsWG2NyrAiA09OZVbioHEO65956Suna2n3e89lcJIFiuYDY66PJRFBIpe+75FyyXzVh7R5ulMhlbSInw1jbLTZlNdbRacv5cJ3hGx8Zt3vz5TjulU6I0TWiHJAAxYylPP6ADAUPGTbRTCA1U6XyPZot76Jv++Azmj7qd78jF4JxrD8MVBgif/exnS0+JKmQFalQxUn4BjQyXyASlL+b5zAv96aSpeVLmSD8HCfdxD+a72b6qAQRKzA8NDQQFtNo7rKlZpagPjiKq0Nd7Rpn7egBC1Of7Gsqoc+hrEGKAcKgAIc6kGJXuXnUahEZenBNK4LE+8+5cNki2wgYligETQwwQym/QsAahmMo/MOe+sscmNm22ifFh61q2zFKnrra8JS2/Y7dNJgqWXL7SpnKBrZwLExM2dpxQOd1yuhdA4NQogIDZyp0qiymZAQYyQ8n8pYRM/C1hyGeYy2T2wrSF38rhuHyAQNgtACEcClnrucyLVNP8ZE5qmREq9anxKIlQOYEZFnbl2kYRsLXey/++EkBgLNu3brVnnnna+RkVLGmDQ0Olkt6AO4Wd4ru08YUXXRnwefPm2/Lly+ycc88tASA9jz4Bnxue3mCjoyPOKRrTJb5R/sW8YyaFP+DLxDxg1rz66qtnvBqO25gzAagH9u+3M8440846+6ySk7X/bPxE6BeTKJFbjP9tb3+7M7FUcj7+9re/7fy5wk6K9czxq7ktCc7IrouPT+CkWEmDEAOERujgxNUgYCMfHqywMQ8miYoBQmWyqqhBcNLHxcTa1N791tv7b9a1cKkdyGVtstBjy5a/2SWm4hSPwAYQcJqFcSrZj0sbnM+7z2CeONIpsgUmD1OW5z1OeTBqBL/qdXAPDFilgnkGjF5ClueilUBAHI4rDBAwMUi4RxWyvCeCR0WtZEYBLAGm6I934G8cRfG54bTNvPDezIsu+qE/LuaY+QJYMU7mhnuVaVJhwvxkPhFQCEiFIs7mfIUBwgGcFIs+CP0HDtiePbtt0aKFlkyRxCmo0QGtACRlYuDd8SnZtXOnq+EC6Fu8ZMm0zJrcxzwi8Pv7+m1oeMi9N/OIv5QAE3MDMP3Vr37laAXw4eq8GMlWF7vncg/OoYTCMkc4TLtorf4AoBCJBYBBu8U68D1zjeZrw4YNgXarpcWWLF1aCuelf/rzL9bmn//5n926ffSjH53NaX9V9BWYGCI6KVrC2ju7Zt1E9qqYyCovcQIDhIINlwEIQbBd4MkcaxCqk39VgFA6Opnt37/RhoZHrLWl2TJTOKqusoGBQcfscUpVoiJlM5RGAWGnin0IMIXsARrk2Q8DBhgg6AENMHhVWZSNHQEHA1dBJUXp0M8b3/jGw8I0ZgMgKFES4+bdABZy4EVjwruTCIn35Hu9r/wHFO7IUiCcVPQKAbtt2zYn+KShYG5lSqA9a6GiVQAOLtagUQ1GJUqaARD69rsoBsaFk2ImEzy7uaXVhRVqXgWyNH7aqFKnhH05jY2qQ9KWeeLdZGrhfVUcTMW9AEaiUQEv7mW+BbBkzuInF9/JJMacY/KC/uhHYaR8rqJfMj+oGBl9MPYYINQWv2gQokQx0BNRDFHBee0nnxgtTlyAkEfdODTDMS4ACKQBJqQ2Z5+64Qbbuzc2MZTbDpEAQlHYyAuee/wwOgk1edeLWfJTGgMxTAknnaj5nM9gusrEyN86aUtQ8GwuVVqU+UjpiQ/HVp8NgCATg95J7wuTUzErv3BROTu3GCJz4GswNGd6d1/ghpmoTA+Hg7nWAghBFINZ/8Cgyw2gME8lrqq0dpp/vif6ivvk0Kp03n50iECpPx/0Ia2TL7Q1z9JglLBwqIy2hLz6kZ+H+qpGdzFAqL0rYw1C7Tk61BYnNkAYpRxV+CKDYxBOpUyKR9oHwWduh4MpHyrR+AyxXBSD3z/vQu4Ml0b3wAF3iuczQgwR6uS4gDlzguVzcm6gNuQz2nJaU3w+8f6cwlDZciJWymH5KaAO5+SGxoB7OQVKmyDtAvMpkwZmi8N1zQZAYMyckOgLgY6WBKdKNCb8Q3vA58wR787vOiFz8uXErzBOnBRRizM3zDHzwzwKKGj+ORWr5LacRflORapme758gIAA7es/EKRaJpNiMcwxAHdNzknRD22UEH300UcdjQAAmCvoBMGu9yNfC/TGd0888YR7Z8wvAAfRicw1qPmhMfwFOPkLBDCX9MlzmHv+Zh6j7k+eDf0rPTZpq30NTyUAHpsYqlNcrEGY7R05vb8YIITnlxS9XqGqwAdhr91z7/ojGsVwPICEqBoERQ/4p1RFEsCYUZUj/GDACsfD3gtz9uP2pQrm9IzwwpygeYLp8w9bNPfCfBWix++611/uqMy9kS04GwCBecNmrigMBBZgQOXRsbXzNzZ4HyBwn+aAkzP3Uw1TIICxMR9oVAAS9MM8I/jk+0EfCFiAGuCAEMfDERIKQEB4498ALZBq2SVKKhZwy05lbGJy3JqbAxPDjO1KKuSiOr6So184RFQakXLrqr6irHk99CNTSD1+KLGJofoqMD87XbnnK+z2T98R1GKo4KRIT7GJIQpVxwAhmAFMDOU0CCGAcOONN1pv7x67e32QarksUyhWuaTbOpKvVV2tYx0gSM1K1sqqmRRDWdFm6GvK1NKoNjE+A/cBh+4Jf695rIeZ17+NZt7RCEAICy6fBvS7zCfhd/fNKuVs7/48aO38OQnPk8ain9WEMG9fTehWOh3zuTQIYYDAd6RaliPqxk0vWe/evQ6wUAsDTUe9z406xsNBM5rzenw4fIBw/fXXl6YxKi1Xet8o7+fTXsDXZoZ7RWnjr71PU+X4QKV9V3qPYjlhV2alyDeck+Jll9kdd3y6YrGmYmrMGCA0wNhiDcKMI4mvQTC78cYbrHfPXrv73runqVnLMddqRF9O4FcCAeGN5/dbSShW21zhDV5v/9X6FkBQoqSozKsBWj1ubvHnF40IYY5+FEOtF9EcKteDVNsIR0wrAFW0InJcRDOACQGTg7z8VTFTPh609aMUuMcVQCra2aWp4RkKH6QvNBQyC8mHQ+OvREeV9kY52gUgKJOir0HgGRNjo64WTDqVtvkLFli6qTmo2OHJqqhCvx4wUU+ftdbSnyv6nQ2AUElg6x1rCd9KfKfWukbhI9X2fzW+E4V3umXnMAYJFGtlcTi57LIr7A5qMVx1ZVGj6BVsIkOu0wknrLOLhGxRVyxu59a7XKrlE2JqImkQAoCwZ0+vy4Pg22FnAyCEN3Q5Blpp49Ta5OHNfijjrQcgVGNeJwRdhTQmqOm/9KUvNQQQUP9zP0Ka3xEu+E8QQsdnCHOEPqdszC0IcGVKROATpQBo4Nr44ou2b99+l2p6cmLcXv/GN1lCRbOyuYBxplLBv9Jp8WDxonJrd7gBwo7tW23rlq2ltO0uUVJQmq80HJe1M6LaLqrgj9quHnqeTQ3CiQYQfD45rf5GwZz20gGEOyjWFAOEemgyStsYIIRnqYyJgVPb+vXrbWEx1XKYITXKKH0hHqXPSm2ioPZaACGKCtGfKqn4pEG4+eab3ddRxhKFMKP0Ve+zGpm/cqeyWnPlmznCACGsqq+lpo0KBKvOqUta9YplBgaseeUKs7YWyyeSlpzKmE1kzEbHAoDQ0W7W2haABNIcb91sLatOsUTrzAyG5U6bUeYlfJ+vQVAtBhVrwr68desWe+1rX2tZkhVNTJZCOfEvkcnvRAAI5EGIYhrw6aBa+yggKOrzovQ1TcgXAV25/qP25YAiPgglDcJt9qGrPlRGgwCmJM1Wytq7OiODyag86tXe7oQGCKOjwzPrunsAgcW/8YYbbU/vHrvnnnts0ZLFDdPDrDD6hp9+eG7knSgmg8f3unXrDs9DjtNetd7lNAhRBVoYnNRzn5u2XN6sr9+svdX2/+Yxe+bhH9vKt7zJRhYttiwlsAvkOijY3O5uO/W00yzdlOY8ThYQs8Eh2/eTh23+77zDki0tZsXyw/UuRy26L5dJEYDA9Upvr/Xu3WOnnnqay6L4yitBBVf6RGtywQUXlFJpRxlXVOETtZ3WJ8q6HKoGIU6UVGaF8zgp7rTLLsfEUAEguEXi4JK09s4YIETZJ9MOgieyiWF0bHhaWVE3MdMAQqIIEHYfEkCodUqsd9GOlfYxQKi8ErMFEBpe60zGbCpr1nfACt09tmt4yJ566ikXGSKHRvk2EAFx8cUXl6IcSqf8hFkynzDbttkKJ5/SkPm2EYCgao5BvoucG04qlZ6RvtgX0I3atxue3+KNUcGEf1qOonHUuynMESfFKEDkUN/nuLo/TybFXS7V8u2332ZXldMglIg5aR2xBqHu5Y01CE5X5V3TTAz4INxovXv22D3r76loYqg061EZQfj+akx1thhhvaClkjoQDQJqPpkY6hkf792IaaXSfEVloFHHWMvZrsR7QglyxNz5WcnEEH6HqGOPvMMpd50vWH5ujxPs+Vze8rkpl09gqpgzYMb4Lem0B24LED64vy8osVzIWoEInogPr4fuf/KTn7iIBKo5ykkRgBBfQWRIJYBQC3hV4ym15jaqKa6SCaLW5/7zo9L9DH7lNpnZdhfm+P4iQLiqeODLH/Ri9AECGoRkVCquNUsnxvcxQKgKEAoOIOzZ3Wv33FfZSbEcqVQTQlE2RSUGEFW4aUy17MJRNmu1sYR9EOrdNlEAQjkgERZu1dpMw39FYR5lnNX8Nsp9V+4zAMIXv/hFV6xJmfTKrWEUmogy5lIbNAi5nA0/+YR1Ll5kY/MW2sDIiPXu7XUOjeSSIJIB50dlGFzcM9c6+w7Y4KZNNr58mY1PZK2zu8PG2lotVyg4IV5rnPXS/U9/+lMHEM4666xXPUBoBPh/5zvfcY6nvgahUXAflX6q7Ul9F5U/lWsfhefU2rOKYnAAwTkp3mEfugqAQOG38gABB91Zi0OPOpnHebsYINTUINzQEEDwT5GNnBajbsBa9FcPQKgkZCuNBVV1WINQazy15qKe02d4jg9FeJUb92wBhC984Qv2uc99zglX34GxXkZZ79xaIW+ZXbutuaPdNr7yii3q6rSmwVHbv+l5a0k1WTO+BZRSXrnKhptS1tbaZqmRYdu7eYtNdrTbcC7vMg6m0innHEhCo1rXoQIEgIsSMlWb/2rjqEQHh4u26gXt5fZZpT5mQ4NwqOMrt/+j8Kco61drz1biowII5EG4/LIr7PY77rCrr7rK+dUETgfTNcMJi30Qau3dsjzwRPZBqJ0oqRjmGNIgRCHqQwUIjSzm4bwHhlDuZIEGASfFWiaGqGrLcu9Q7tmNvmu1vmqdzCqpTiuNmc/JgwBA+PM///MZ5Z5n872qzgeVS8dHrKO5xfHNDGWTk5gTzBJNKbO2DitYyv1dsLxlslPOT4HxIaxVMjvqnNcjiNEgEIqJdsKvvVHpWeE5q2dNKgqbiGGS1d4/yjiqaRD8sfmn7n/91391WUOvu+66mtqbqOtzPLcrzTPUOi2K4Xa7qipAiMs9N7LuJ7QGoV6AQPra+Do4A2zWOIqhPEWIkQkgoEGoJ83ubNNZX3+fTWUCwU8OBU7qaAQ6OqjJsN8JIQQ0FQYZO2ptVddEe0DuBVIyz/YFQKDfc889txTCONvPOF77Yx3+/d//3SXEQvhFPZgcr+9b17iLYY6U+F5TTJR01dVXWj7vviijQUg5J8X4qm8GYoAQnq8ZTooHTQwxQJg+WQIIvpNifeT36m0dBgh/8Rd/UXrZo8HoKdREsSCKDFHTgd8R+ipoReEhfid8kJoMgAcyKFILgr/RJJCPYLYvAALPec1rXhMDhNDkQkPf+973HED40Ic+FAMEf35m5EFAg/AhyzsfhBggzNY+PaEBQq0wRzao76QYA4QYIETdeGGAUM7EELWv2WhXznxSSS1+xEwfZkYUAwAB8KG00LPxvq+WPnwNwqvlnWbtPciD4KVargUQ2js7YpBV5+Sf0AChlokBJHoDiZKKPggxQIgBQtT95QMEohjkpMj9R0ODEHXcR7pdDBCqzzgAAfPP1VdffaSX5tTVnjgAACAASURBVJh/HntsF4mSIpoYYoBQ/5KeuAChULCRkaGZM1bGxLB79x679971h5RJsf6lOfbviE0MldcIWz9AgDDHf/zHfyzrpHjsr/DhH+GPf/xjV3gq1iCUYUVFEwMA4Uj7IJRzND0SwDZqxIXL7VEECFdccYXddtvtxSiGKiaGTsIcDz9Nv5qecAIDBLORkcFpaxnkhzlYzRFT1g033GBbtmyx//b5/2Zz58+bdvqLSsxhguE+/ZstYqp3LAiwKKfZcupm/1k/+tGPnKf+2rVr6z4Zh8fcyDvUe48/31E8z2lfST2vOSy3hpo3bP/f/va37Q//8A9ds0rPbIT5ioaq3Rt+nv8u/F6pumCUea0UshmFpjXmJ5980qVPPuOMM+pKm1xuXeo1jUSprFhu7fV+jayZf6/urzSPPPs3v/mN80H4nd/5narzUyvfQHhN/JDb8L3V1t4fs/hHFFopRxP+/GkOovZFNA71OAb6B41KsrfffrtddbXyIFTwQYgBQpStOV0mnrBhjmY2MnwQIDhipZSoC58NQsD470/+5E9sw4YN9vGPf9yddBx+KF4zidmHp34lvOkxudwHcev+KJsizEwOBWDQl55fi8nVYhYIQDziCVWr1VdYOEcFKZUYEc+NMnfldoXC+OreMUUTAR7+VFKsxPgYF1EBtCMiAE995scHFfXMV7nnsIaVroCeXV5E14SxkETmZz/7mb35zW929n6lXK4EcKq9Wz1CpVw/jIc+mB/mSiWmtdb+Hqs0T1rDeudRQIIEUf4VRciGhVq5Z0vY+f35n+l9awEU2vmRJJWEfCM0fJAmQplkI3Tm86Ja71CtO/VDH2FeEAZ77m/x3SBA1/LZjHHOufvuu+2OOz5tV33oQ0V6n5koKUGxptgHIcLqTm9y4moQwgAhSDJbrMUQAAQI91M3fMpIxnHXXXe56nE+QNBUHmQSB0k4+C78d93rU7pBiJ8PGhGK4VNKpVNLPSOsxpij9B+lTVhg1DO+Q21baZ5rCST/NOT/HgjpIJ9EI2tY//t4ZZELBceEr7tura1ff681NzdVBQhRnlVuHippSMqdxDUXYdDk91uvViDKuH3wUQ4g1NpjUda/0WeEaUMgqFqOiCNHT0WuFsob4a9teO3KgZrw3FQbv//ddG4KQMgalXbXrLnMZVLEDBOMJQYI9eyDqiAu1iCEpqeQdBoE1AkQ54033mDbt2+3+++/zxZWyINw8KRQIv3ZWp9jup9KjOGYHnSdg6umYq66sTxtQfj0WEvARB1iGGyEhWmYWfP9dWuvs/X33mdNTWgQckUTg06R9Rtoj7Rwijo3s9Wu0fWf7efPFs3M1rgORz9oS2rlCpmmoy36IKxZc7ndfsdtdvXV1xRTLZc3McQahPpXLdYghOfMAwgwh5tuvNF27d5l6++91xYtXuS1DvLO+SfcwDxRv8qu/mWL7zjRZwDzSthMICHCqTOVTBXzzgf0KPBw7bXX2T33rLfmZh8g4I/i+d4EVF2Tln0V+om+HvH7H/oM4IwJQMAnhaLj0wsrTQevriR5wWzHzp0u1fJtt95qV19zdZHOA0dFnxPHJobG1ufEBQiknw05KQac9KAGAYeEG268yXbt2mH33nevLaSiXUm9Vg4gxOCgMTKM76p3BvB/8O32JDPCH4TPoNG2tnbnF5JKQc8HAcLatR+2u+66x1paYoBQ75zH7Wd/BkjYtXXrVuej093d7UI6+futb327tbT4PiJh7VbBpQ0HIFCs6dbbbrNrrr7aJUpKuDoMAASPHydSzofsRNDEzOYqxQBhhgbBeR8En5Io6aYbnQ/CvfffZ34ehExmykZGhm3z5s0O9S5ZssSWLl3qCBDnMd9myOmNLHVPPfWUdXZ22nnnnVdi2qrwJ2ckvtC9Ut/qO/6WCo7P+FvOXrNJFHFfx+YMyGntpZdecrRGWmTCKMl6yHekUIYepqayjgZhuK2tLSVaow0A4Z6711tzS7qojjWbmJywjRtftF0797iqiitWLHd0BtgQLUNvokOqQPq+FbShPc/md7QbJD+i0BB/f+ADHyh9R0ZGxqF7fJr21flOC+L5bMSM/dikyUZHpbXGafaUU05xmT35bOXKlc6vADo5/fTTA11W0ZnVpxUn+zExFBMl3XrrrXbNtVc7v5qDAOHg6GINQmMrFQOEsgAhQKuYDG5yAGG73Xv//Q4E6KJAEYVUrrzySoNhQ9wQNIxxcHDQoVXCIwEVMPCNGze6srqc8ubMmePS3a5ataqk+gU44O2Oeo2wJpj/Y489Zm9729tcSV4YsBgrmwcmTJsYFTdG+MfjXQhVhPSmTZtsxYoVDmwCCkiPzHfQFcAVwT4+Pubog3+6YJ5rr73O7r77XmttTZdOWHz+gx9837Zs2eb6XL16laNlgADAltMdffLchQsXus+gZb7nc+gVMMJP6JRxPPPMM+57mD1gBj+eCy+8sMTwGTNlnvfu3VsCArSH/rln9erV7jvuhcYPxVv+eFzrE2HM0PIPfvADe9e73uX4I9oDqofC26BJaNA/EOnw5MCin2p5zeV2220CCJVrMcQ+CPVTVQwQqgKEgt100022Y8dOu/f+e0sAAeJ9/vnn7b777rP/+pf/t+XyWSPhizyOUf8CDL75zW/aZz/7Wcdgaf9Xf/VX9slPftJtgv3797swOXLjE0Z5zjnnOIb6/e9/3wEHEsfAVPkMUPHQQw8ZCUG4YMrER3/wgx90jDQ+XdVP+MfjHdAXtBCYEIKiSpy8du/e7ehFIBIGC6js6uoqlU7mfQUQnA9CUX1L6CPtv//979kDDzxov//7v+/AK6CWqB0qUZLDAVokVwE0Td0GhD00/frXv97IhcG4qDj49NNP25o1axxtf/jDH3Z5RM4880yXK4OLMQJwAb+MHe0CguHBBx908eyAbvYOtRkACrxXvSG0x+PankhjVngudPbd737XFeqCz0FXpE7+4Q9/aKeeeqpdcMEFtnDhIgc8n3jicXeAIh8EPNNd+UCDgJPibZgYrrmmWIshjmKYLXqKAUIVgKBUyzt37LJ7HzgIEGDML7zwgn3lK1+xz3/+/7X+/j777W9/64gc5o1GAeZ85513umqHnLZIKcuJ6d5773WETB+0h3n++te/diWTIXzK3nJqYuPAJEHYbBRifQnjYZMgHIhl56evdjvSQOHVGsVQLgSx2tzW276ezSvQiWCFsf7qV7+yk08+2QnvF1980TFVTv0IeQQv44RG0CyIkcoM5aIYrkODEDgpctEnGgFO/BROAqgi+N/0pjc5GvvjP/5ju/jii+2BBx5wNIlQJ+SX4kEUEgI0IPz5fd26dfaGN7zB0TWA9nWve5196lOfso985CMOFGNbRhsAmLjkkktcpUIKRqFWplz43/7t3zpgw3Pe8Y532LZt2+yNb3xjVRB8tGiwUjhnPWt7rLWtl47rba/3ReCjMUAjC0/ETPbyyy87ulDpb3gbh6hHH/2VPffcc7Z9+zZHT9CvDxBcLYYYIBw2UooBQjWAQCbFG2+0nTunmxjYGJx6nnjiCUfYqMJgsgADTvQwcz77+te/7k5TCPovf/nLJRUrpyuYH5/zb/369a5i3lvf+lYHKN75zne60x4bhr7YKDD997znPc5eB2PlJxsGoeBfRxIkHC3m7N4XJ+Z81hI4LKcSNnrvg7bz+Q12xlvebIllq8yGBqz3ycetqbPb5l9+hRXmdluCxDipQDBWu+plfPW2r/V8/3vUsErbzKmbkz0AQf4G0AgCHWDJyRuzGCYxPlu8eIktWbzE2tvbrK29zWmerr/+egdcRTeMHcH98MMPO7MF/aItwFSGEP+Xf/kX+9jHPuYALKd8tAm//OUvHbAVKIbZQ/fQ9aWXXurAwOc//3n3E8CBAOB+hMHv/u7vOo0DZgg+50LDxvdvf/vb3ft97Wtfs9NOO82NF/UzoKLcdbRCEI8q3ddDPHW2LUfHdFGJpzRK99AJQBMaAExKowCtUz0UwIupCdCKdvXd7363AxMzfK7QIOza5QCC80G4JnBSnFHN0eUeScflnuukB7f2J2wehIpRDKFUyxUAghg02gE2iv75cbz+KYPfIXCYPf/kgc5m0T066ek0KEcu2vM79/inQfUfts8eKZBwVBnl8JjZiy+atTWbnXu2cyxVsN7BHJbF7Gt5s7333Wdz3/YWS68+yZKWmkWAoORaB32mZ3v+oQecYelXfjCAUU7fnLi4DjqrJuzpp5+yL37hi/bwj3/ihO95551rn/70HQ60AhAArj5AYB1FQ1pTfgqYSEsFzcvJUOYMvhMNqxqjT+tyZhTta+L1PF9DovdQ4iQ5Kvp9+At3tACCw6fF/dwAzz1mb6kXIGge6j2gQEcABLSsAFEOV9ADmgWAAQCBNUdzAJ2jyQL8+vTonukBhFtuvaWoma1Wi6GjGPp7zC7BMTewGCCElyRci+HGGyxsYtDGkFe3CFdC348+gPB9ZhoGDWFGo78lZPzvFbnAd74XuV7BF0yVmKra+H2JER9z1FlpQENDNvH449Z80est2V3+dFn21oFBm+zfZ82rTrFEshipUuEZNVXI8KHxUZvq77emzi6zrg4zcg8of0C+YJldu6x56WKzpulanijzLAGNMx/OeqwbWiYAKQyVE7bSFHPChrFCZ3yHOevv/u7vnGaAEz+VANE6ACICE8PdJXNYWCj46Yv5rlwGPz73I3XCgIhxlYtA8MGHaNjx+WJdEO0TH0RoHrQPFPUTZQ6P6TaN56Y6pl8ryuCgHbSiaBAAnJiVoAdoW7k9oKHe3l6nOcUnC5PDjLX3NQg4KRbDHGdoENyujFMtR1mbcJsYIFQBCKhryaS4EyfFB+6bFsUAkYuxSYvgM0pOVWKuyjUuoR0+8Yv5hU9tvoaA38uFO4rBMhZfm+FnJQtvLF/4SUtBezbnMe8tnsubvbjRbMVSs66e+qqzFcxe/q9/aSf/6Z9a0vPuj7JxAq1EwQrZnBV6d1ty4WKznbts8IknrefM083OPMOsqSXwrkYJNTFp+7/1LVvwvvfa2IF+az8rCNmKcml9WBPs+4AEfA5w2gtCF1sdQ4WBokFQlAHtUff/9V//tT3yyCPOZwWzFX4BqPvpd+21a+2e9feUNAjSTkEHMGsfzOp3accYOzRdSaD77xamv3A6ZWkdBCR4R+5RVA7tw1oNJYeSpiLKXB6VNo4GioTAj+EhG9u109q6eywxf4FZE2YuPPHzZgf228j+Pus88ywrpIs1YI7KoI/cQ6E1wC60zFpiJmO9MS/pgj5oI4dZtA0zQrodQMBJ0U+UVEmDkLT2ombiyL3p8f+kGCBUAQglJ8Wd5EE4GOYIw4RwdaJDMEv1CqNDbcZ3fAbyRaUmZMxn/M5JT4wXRkg7kDTfsRlAzlLtyizB9/4m4XcYqpLm4BdB/4yBzxiH7HtSI/MZ7aTt4Hc+42+dRI9psh4bJ4zDrHl6oZ1IY8as9OCD1nHl71si5LtR637YTjKfNdt3wLKbX7L0ha+xgnMSrayJcAFXY2PW+6Wv2dJbbnDZ4eq9WD80CPxUVALqWdZKBaAkSKEp7Ptf/OIXHe0QIYA/Cycw0acLc7znLqdBELgcGBh0QGTOnB5HX9ACNEu/qHuhOwl0PhP9AlRoLwAsTRrtGa+KIdEG4a7QSL6DvvmbU6TCNHlPzCY8i+dKSwGN0gfvhxBhHo7pyy18zoZ//Vvret3rzfbutgO/etTmrlxlydNON+tsC7RNFPva+KL1vrjJllzxQRvYsMHmvOG1x/Srzcbg4EXQCDTpA0ToSYclaAAfFWgDp23R67QDjB/FcPvtRQ1CbqYPgoNjMUBoZO1igNAgQMCZBg9aiBpih2HLI5zTHgwXRgpKBkxA4Ao9g8EBIGDC/AMc0I7PENac9nAUE4OVmQKm6qth6Z9n8Tn3obbjog0biw2okxwbjs1He9rxnZLaMB5tQm3ERoip3D1oYTJbttvoVMaamptcCuApcq4H1bAsm89ZU3OLTWHfbm+zccBLKmWt6SbLpdOW4/uprCUTSUs0p61pfMIKmYwlVyy3ycEhGx0ds3mnrnagQc6fJLZiDnq6eyyby9ry5cts8dIlNvLoY9a9ZJnZquV12yIdz3/+aUsuXG42f76Njo3azl07bGhwuHSSFyA777zzra21NWBU42OWfeE5S1/0Oq94V32ziy0WJ0LssDgHslZcgADWDuHL74TakpwI08J73/te58SK86IcvPK5vCvLffc9gYmBKwC7w047QXi5Dzbk8wB98U95F6BVOZmJ1qBVjUNAVfQOcIDO2SPQnfIl8Dn0CN3zHQIB0EPYJgmb2DfsL/YSdMx3AAjm+Whdfo3WGaxDK+yIftIO/MePbP5la6wA7ZZUS9QJcKtXvP2gpmH4zq9b13/6g6P1ahWfe6z4W8wYR0iDEIQ5VgIIsYmhEcKKAUINgHDjjeRBCDIpykEMQoVhcuKB0fJPtluYpE44AAhOPDA0GCnfgZhpD8PjbwQ5f/M5v+skj/oYhih7rpC2ShwzBuVRoA0MGoFPHzBVGLLAgtTCjJHvVKZYJg09U2l6GyGkSvdw8p7assPGHEBotlQyWQQICSskEzaVz1szAGFywlpb22xsbMSSqZS1NTVbPkXbvDWTqY8zQDPZ/wqWHBux9PCojXd323jObN6pq9B9u/cCWOHZ7ABCV7cDCKvnzrG5HR02sulla7voNZZsDcJDywOa6dUWS+3yZmN3ftXaP/EJdxtCDkEGHbBWhF6xzqzFmWefax2tKdv/v75lCz74QTPSHSfT08whPrOr9LvGR+ItQmGffPJJJ0wBkIQhEnVAZABrTpZOImAeffRRl6nzLW95i4sAQKDKxJTPkUnx2hkAgXdB4ANU5VVOn9CNALBoDGAMQJGmjM/Vlt8ZK/SvJEuACr7nGSRZ4mKdoFfa046/lfyLzwEEegZ/AzQEMOjvcJjBENOZkVEb7e112Sfb2tttoK8vONEWCpbJ5iyZSlhLc4sVJqcsn05aS1ubKzds+Zzlc1nLJVOWGZ+0ngN91nrmmWYL5zqtB2sCnQjUAdqYRyI/XHZWHj4yYDY0Ybb8YDK2SnuKvrifeWXNZB5ivaQBEj+Rhof5Y75ZTzk8M/fMp66wP4r//Nl2vJ32bgAq7UdX0CZR1nQos21p/WdEMVTPg9DRdfBdZ5PHvZr7igFCDYBAoqTt26cnSpKJgZMaG04AAcbIRoQp8DkhkDBoNqlO8zIbwPR04tRpX446cg5TUhw2sbIryrmQYSt/uQCAzAgyXehZ/saXH4SYVfi7WWcEuYK98tTT1tbaYhnqBzQ32STmj1STtS1a4Jjy8OCgNbc0W3Z8yhace4YNb9liXSetMOsfdgIRUOE8nQtmrT1d1pZO2cRLW63r7DNs7yOP2OIPfMCstcUmJiddeF9rc7N1W8JymzZaPp22njPPsMmxCUvOn29j2SknxJhHHPc4tbJmem/mUuFXnKr5jvU9+9xzLfvMMzb+0ss295JLbCibta3btjrNz7y5c4OQ1L4BS7/8kuW6O2181UobeewJS553nlv7pnSTNbU0l+K+mX9pd1gD1pI+oAul4vYZN+AOwAlNkf+A98T/gBwFAn5/8zd/40JpSaCFpoHTucCBMwOgQbhurd1zDz4IaBCC6BuBHOhRmRkZG3QHAGEN5CRGeC60DfDl1M940RhAwzKNATQRfABrAVLG6sqlBxXNSvPt+1vI7OXTsdrKIVMCb7aZMqPKkpVyYNBVumxuabHRkZEgnWrBnKYriSNdusmBAbRf6eZmywMg8kR85JymACHWNjxie3/8Qzvpk39kwyPjRjphmWEWLFxgK5Yvt+GRUVu2YIG17txpafo4ZZUV2rsceGY9xEuYY82R1hK65BIP0SFCmkbmSAcQ6Jq/oXl+B6TpUMLa8I/L5wMcfFhTmR9Za/nCQKfK6Al445kCiQJ5RMs47SfRXYPDNnTggPUsWWwFANjYmDPLTY6N29wli2x0YMAm0YAVzPKJhLWjNcTMZQlraWt17THJdC5aZNli/ZGDoN0Lc7ztlprVHGOAUP+uiQFCAwCBWzjJowKFqelEDoPld4SZbGz+qVybSacoOYXpBOU7gLFxYRRsPiF/+R+IAchxR9qFcqpAPxrCZ8xiCj4gOByqRPjr2L59lk4HjCSVShd/Jq0JR8HJnGUmxs2aE5abKljHgvmWGRyw5u4uK0xkLDM+4aq6ASo4ZcCUmwkXzeSsqbPNxojZP/U0Z2LIZbN24ECfpdIJa04UrNA3aAUY+cIFlssXLOVpWRCqAAHWCoaneWCNAAT8BJRJiM9D2OazNrF5q7WfdJJl8mYjgwPWged1W5uNwuQmJi3V32f51iab6pljyWSgFZJQk68JQljaGz2XZ8oWj1CupuHg9EgabwQ3WgXGiDMiNEd0g8xF4aiWUibFkpNi4PiqzIs6zYueoU+FoUmQIDSkCUNrIuGg0yx0BZBhDJo72jPX6qMcm5JTYlib4gNZfTfrILZ+vln9jkLBRp9/2jrOPM9s+3bb/IP/sPGBQVQN1t3TY/NWr7aOiy42mz/P8vv7zRI5S/J7MmUFol+KSa98Pw5/7/rhpuH9rYH5TqHMm/w5WFPNta+J8QECdM8zxJcQ9qw7dIcWVbQrICfwI77IWjvNBJt/fMKymA1bmi3n+sxYU6LJRRElu9qtf8sOa2pvtY62dpty+zYwQdpUzpq6O60wlbFsa4ulOzut4DmuuvecpkG4xa52CeiqhDnGGoS6KT0GCNUAArUY1qFBIFHSdBMDiBxGKEcrNpTUd2xaTlxsRDYkJ0M2kxwIaaeNCmOVGpb7YA4AA5C+cpJzr4CIHHlow2ZVeFvdK3+EbmDs+3/+qDWlkpbh5EgVwckp61myyJ34J1/psymiA5MJ62zrsERLU1CHbXjMMrmsLVi+1JkP9m3ZZnPnzrOxlFmeQkQdnTY0PGpzzz3bkjgtcqIaG7MnnnzSnb46Ojts967dJfPN2OiYrT55tTsJMa8wTJlopHERMGBN+CcNDWmtly9fYa973cUlS/LI8IhtfPFF69u/31JNaWvr6AxOkfm8dXZ12jnnnOv6IH8BgpIxsVaYP2SWQq3PJS0FJgM0GgAEaAeBTxbNGSRaPIVzn2gLeoOOfA//sCB1AGEt5Z7vLkUxMDZAEvMi85ccX6ExTv6MCTqnP+ZEp1E5IzKXaFKgWcaD6QX1OQKFvuiX+46m70AUcicBFBlSWTfA1+/93u85H47GTBpBfozsQL899vNHbKxYyrinp9sWLltmI7m8dS6Yby2trU74btq40VasXOnmT+uvCBPWFsAl0yW5ASSoAYpac/kzyR+E+WYN6Z8++Zv1hG+x7vh5hA8Imidf06P94QOWcppHtRO/cocQ5LXlHFhA0xJsIMyLgQ9SfjzjwH2SCA6ZGXL5wLRDUjNoHYclgj7CuSeKAGHNmsvslltutrXXXgtmKDopugeXLhyEO7q6o5BB3MaftzhRUogeQnkQqgEEGCFomU0oYQOzFdNlg8NsMDMoGYhOXHL4gsmy2REWMFKlT4YJI1DY3PTDaY0NRHsYAGo/NrsY97FK1ezX3NiEFTglFRLwTPcz0RScliybs2yShEaJwHGRSpowilzWskmz5nQQrZB3J/Emyyc4hxWc2cHlb2huLdkv5Qwntao87/lbYaBSVYuZMeeOpRSTBYnx+acjzXm48JFC8+jfN90gUFg7ninnUKl/+VvtGYv/bNbSD49lDJVO3TrFubkpJt7yQwP5vDxAkInhYG4GToyYA3gf6A264rk4s2KqEBgGwAAE+FzAVhoYxgMdsxcEKOgDukYQKeb9WKVTxqX6KPIRQiCzRghWf32ZZ/lkaP30XuW0NghuhCv/6AuaY55V7Ip7oTGZKn2NIO3okzURUGHuARLQiw+6fA2Lr0FgrIAIgAFmNUU2hR2SdT9gETMD97CeMg3RD78D/ETDSv0O6Fb4LXTi9hXJtkZHbWpgyPK5nKPtSSK12LscCJjffN4yTUlrJqpjaNxp7ToXzHM4YnjfActb3haevNrSPT3FUs7BXguYQmBiACDceuvNdi0AweECfBpCACGRsI7OGCDUu/9iDUJ4xnyAYEGxpm1bd9h9D04v9yzmzyaSipoN64ck+sk9pG6dhmpB0kVULIYv5iCnR0VIlBNC5ZiSGJYYWviE4EdB+GMJnxj0vHoJakZ7QMDAgO39zW+ss73TOrrnWl9/n1lrk81r77LxwSEbaklYtm/QRR10XniuDT/zkuUmRpxNEmYylhmzjnkLbGBwyCaGhmzh/PnW2t5lrT1zbNfml235u97mThkw05///OeO0XJiRfODQx9zCpjDts+Ji6qE2Elhsqjk+ck/hQNyHxenX1Jhc7KEAV522WUl5oQwoTARQgSGDaPE7q6TGnTx+OOPuz4Qspz6BPYQlowPRsqzoBPGRT/UVuA7/sYRcTbV6YEGYSZAgHH7joPQgswiPB9TGj8VzivwIQ2XTBJytuV7mcUQJghI5uZQwKxPn6Kx8Cn2UGlVoDG8ZwTA/Of5e8+/zwcSYfW/fwL230fhoeE97vOESn35zwvvZ58H8Luf3KocgNSYoEMcb6FtgWvoAeFNGwAjBxbAorRt0Ah0zfcqe+8E9eSETQ2NOA1BbnzSVRs1opK62qy9tdMmqABqBctbwna/uMkWr1ppLekmS3S2WiGbt9zUlNM0dixZbKkiUCu9pw8Qbr7Zrlm7NjYxHOomCN0fA4QIAGHr1h12fwggaPNKDchGkqqP3+U4xE+d7FRMpxyj8YFCFJWm376cEJmhjitDOJWY7mwKpSw6AXdSTloSfaNLG1CwAqdu5wDGv+BEkcwlrJBy6YgsyVEglQy0DMWkMy5xcgFWQqQB9yTVXUkF6TPr8Bz4c+b7e1Q6eYk58lPAymfixKhTRQAAIABJREFUYuzumcXANc1dlDWc5b1cszvG62dS1HsDjgBNAgEAFIQB/+Rcy0kNQIPAh84xISBwOG0ClvgMdTyAR9nxOFEKDAHUDoWuagGEcgKv5oSEGnDCxgFURdcAfcpLgsYPzYhyhSAEmQuAJ58BLvkdMERbOZqiYcFsgQYA50LeA6HKWqhYmyJiAJCAKPpgrvmee+AhVDdUeXgiVuSHxDhwlqYt42XtqNPiRydEnQftnXB7H2iE1yEM0vw959bb7d/gtO/OXu5i72M2cMZE55uRSKZtygrWZAmXMv1gSy8gtIqJ4dYaAAEe09l9jOfPiLpQR7BdDBAaAAhsApgiHt3KZQCz5CSocENOV5gW5CXPyZLCNcptUE54SQ1OXzrFKWrB36QSPuW+84UWr6a2vspRQk5tncgu2rVpP5vhjtjk+x55zCZGh2zJwkWWWjDHhnbssXRHm02RlW903EbHRy1jqGAL1trdbYXREeto67AFZ55hezdvtXTerLWtzYZHR2xgsN9ampqdM+Pcs093ORR0wYzxF5CaXKF0MgXw+UUXXeQiASgMhHe5tD4IM05F+AwofwXrifDkdERZY9Tlzam0rVq90vp37bWtaC9WrrDRyUnbs+8VZ/5YMGeeZcfG7fTTT7WUpSxNvoH2FrMqCZWOxH4X8wcgUI1RQlACC5u7/DIQMsylbx6Rzwv3YY7gO4Q+NKh2zB/9QEOcMvmJChy1tNTPAgnhU7rAWEkweGGoYaGke3luJZ8L7pHWLipY88Glv99kClIUgb9f/HbKSqr9pXbap74znzSFM9hPUQhqXlXWu9y8zDbdaJ7RXsnkoSgK+Bnjlx+VHG4Zg8xmAt2siQNWHZ028sp+6+4gUiJpU8OjLrS5CeCzt9cWzJlrqVTSUvPnmaWr10cp+64uUdJuW3PZGrv55nVOOxa8gw4VPtBIxcWaGiCYGCDUARD8PAgIG+x0slHyN8TJhoa5crGZFA8u27Jv85b9kO+UuY6TBv3STkmW+F7x6TAfGDifKZGMgIAcGaXd4CfP4Kc85/ldG12qYR8wcOJDHVwPU3Vngkp5BWAgA4POVJB1GzfhHPma0ikjLh+/As4MaBBy2Zwl8kmztFm6rdkmxicxsFvaJZoJHJvY/mli6KemLE+hq3zCknO7XJ4E+SDIPsw7yPar9xZj5t3loS8NgbQ+tBGzJ7FTnqqRaEAG+q116Qqzvn02/IMf2VDvLlt45hnWTHa8BfOD7I6jE2a7d9vIC8/b3s0v2YqL3mQt73mXi5tPYE9u72gsC2QDm9u/RcwfgECYow9UEQYIdOZD6nT5TCiTI6dXTsx+tjsJTIX1QreABJ5F/6J1AV457comLjOGUijTP31yrzKQSujI6VfCmncDqHBalq+JnivfH6m9oekoF+PwBZ4AOwBTe0zCXn9rXrXnGL+KDQn0yLQkOuNe+cKIHgU05AjIftd4+I52yjyozJp8zsFjtpKb6dCikEboghDE5qa0+9nV2eX27nCR12GCEM9RngUABe+GWW0Gay0lkjqYJ6pa4qmaaxYCCNetXevCTmOAUHPmIjeIAUKDAEF2Z25XDQSpoSWMledAYUtKpyxzhJydxGw0FCWhoT+luWXj8bkYN33IMZL7tFH5vlLYo3/akVD3VYRivgqnrEVFYfViufaFfM52/+Ix62rvsJEcCXGabHxy3OaSAXB80lo6O60Zv0ScksbGLVNIWmtzynpWnWT7N222bCZj7S2t7oSRBFQQJbBovg3vP2Aj/YPOE3r5xa9xP1X1kPkHaPkaABgvjFTJjNAG4IfAaYl5kUMo38v7m8/aWtssNzhghaZma/v5T+2kP/ojs1RTxRoQ0so4B8qiA6Rz1hros9wzz1rTqpPN5s436zqy2QA1Lh8gSKghSDEh6NRKNIIAFRoBfse5Dbu0n7TI1zopIyKaBgQZQhH1N/cz76jMeQ7qdIERgC4XWhp+R/AhzEXj6kvAm3Xlfl3ML+uMNk+gg78BLDwX4clzo6rblYlUWhDeFWdgTA8yv9C39gf0IROigCjvfv7555eiRBgzJYsVMsg+5f0ULqpDgnJAALCYD+aO8cg8yWFBmpj777+/lC6d8tq0nUZv3kb0NYq+ZqPa3iYaJ4lpgCygpHfHpNfWbtbRbpbgr+l5E+hLyZfKaYhq8ZGGv3c+CLttzRo0CLe4JGCEOSacSfJgdVXH6yxpHcd6iu6GJ+Lw3RgDhAYBgvLJi5GyweVY6Ks3YTJsbp1GYHAwGDEEZUaE0UjtK40BwEPtuUcnGTEZ7gHFh52/fPNFWIj76lr/O38aotqKowAENACZ3v3W1MXJImsoCHBDIDBxCh+myYy1JJKWyU5ZW0+3TUxMWhM+HEQ3scmTCUu0NFszDCo4G0yvaOBVxWPe/NA65t5XGzOHEtqsB8we4cFnOoX6WoQgHXXOmp9/wQ4snW/d8xdZC6FXJHrJTDqBp9OgIlC4R6cphF0wlzCrwLcisX+/Jfbts8KKlZY4ggxLa4Uadv369dMKe8mPhneRQPLpjc8RZAh2XzjLDq7TLc9gzmXOkjZN4aOaZ+VMkOMb7QWAFUHgR6DQr3KGIFzZMzIv0IfyMtCOvUH/Oq0zhhJQi8BHcYgjQiYwXQTRNcFFJp9iiF6FkhphIanHaT/62gYB9PCQ1Ie+F/367X1tpL4XAPH74zs5JgpAzNjb+AIV329y2zZraW61sbZ2yw0PWW7vbkuNTtjY6LAtOO0sS518kitWlug/YNbVbfn2tpLpTIncNNdReUiEJancJF+w3bv22KVrLrVbbr7Frl1LHgT8kwKmMB0ioNnpqq+42yEN7tVxcwwQGgYIOSe8Sfwh1aa/iflMtjmpTdk8YpblbLA+gxajdoTuZZ8Ts/Fttn5kQtSN6TOtSmOpReL+uCq1zRfyNvHiFmslEQxJT1KAg6AE9mQ+Z5PDo86uPzw1aYsXLrSR0VFnrs/nnUtikFClo8OBh1oXggEnOYV/KkeAD+IEpmSi4ZQpxzCZFrROLmX1ZNYmfvuY7XrxRTvrD6631uagkiInQPxLuBQBABBURkT6kGrbMW8yy3GNDFth126XJCexcGZmwVrveCjfQ1MCCCreBCAC0CjED8GIBkEnW506y4HJKHRD/4AGnYaZC5nlZOpivXQqD9vvRf8APzkNKt6fflhjTGJyDqQvHyBHPTW7eR0atH1PPmXt8+ZaB8m3WgkFBc4Sdjtltm27Wc9cK/AMHOtCZjVlRPXNcwho0YnqrSjMUHxB70h/0uIAmGRi4HvugVYBtJhWaCtnUPEU7pU5R5oy+pCZU/kR+BtthANBCbNJ6HF8zHJDQ9be2W2j8xfYvoEBy+azrh0mB/xNOtAgDI+Y7dpp2UzWsh2d1nrqyYdCkod2rwcQbr755qIGoYqJgeRN9ddLO7QxHud3xwChQYAwMZGx/v4DpVh3hXjJDIBwQVUphx35Aij7IY+VDTeqUD8eac2vfFtp/J4SoIj8g5b17mWED8xYJ1NpV6TZUXIqGDWOiqwN61ItRr/Ibqzv339g8973bhv7xaPWuXKl5VcuN2gAwUT66MB5a8IGB4esp7vbktSZQMPT0WkTY+PWNTZu43ibL1lkU6mkpZctD/y3i6YImLvvO6G48tlc80oAAcGLJ7yADiprf06i+qOUGyvPRLgD3ORrw7wr1wLzBiDxzXQztmSh4NZL9SIYr3wh+AxnYECIIia4n+9VpbTiHLokHTkzikGhOZgzx0aff96ae7qt6eRTzNo859Js1mzzy2Zz55pRljii06l8OAAtjI+5UFErCXkf0Mh/AiAggCBfGswdfM5acUnwK1ma7zCqapj0gRZFFVylnWSNXYj2/lds+IknrGXlydZxdtFvoIJjQKAHC8pOTWzdYjaZtbYzTq9/o84WUTuAsNsws9xyy612bdHEUNEHIQYIdc98DBAaBAhoD/buJStfUDWRTS7Vqpi+tAhy3GFzKkES3yHI2PQIrFfrFT55Hk4wBDN2tRtSqVKVTJlypOXhJ4JDBZ2UgVBOe5XWwWmXcwWbfOopa12yyPKLF1mBtMNbt9jw1m02MTQc1CWgsmZHh8um2LX8JJtz0UWWJR3z6LCN9fZaYsliyzW3uDY4VEm7IX8URZFIZTyb8xUGCPztO/T5qnjoVM5vAgiNjIX+AVFKG87frAn9K/GUPtPcS3um5zFHaArQQigBFWNlHZXSXJoJ1lG1BqQdqrSmUwP9NvHUU9Z1znmWm8pZYvEiy0xN2Pj4RKlU+zRwBJgYHjTrnhtk9zsKl7+f5NvEMHyNY3hY+k5ARLUeaDf27AYbff4FW3TVNSVBT94P9gdzzVxeeeWVB2tnFFX34y9uNJvMWMcF5x+FWQgeyfvs2bnbLrn0Urv1lltt7XXXOM1jeYAQ+yA0slAxQGgQIMCwdFrVBlQIEIyP31W8RLHkspFKxcjfYsSNMN9GFvxI38OphjLECAXSBnMSRA2PMxbg6PBd0kvwhDLMvBH36VKXBZfVzfB6Hxq00b37bHxk1DHRgYF+mzN3rrW2tFjb3HmWJnd9UzpoT7KaHJEaZql0qpSEJqxWPxSBXG0+BRCCYk1BJkU+43RJvL2iEXSqV5pk2bll169nzQRAcECkf9E5dCG/AvoDcCvFM22gDzQL/M7zOXmz33Sf7PD4RaAGVyQE2gSBLuUdKTfe3MiIHfjnb1nPW99qzSef6igE/4OB/n6nwoc28d7vdqf+fpsaHbXupzdYy9vfbAcmiWoJEmkpukhmE57p+wQhjB966CH3GXSP3wqfyYzF/XwH+LnqqqtqTi3vhmMt783cwmuU2ZDfBaCkkZJPTeBPE2RzhL6IStnb22uLujqt8OJGa+mZZ92vv9gJ15df3mwHBvqsw6WLz9n5513gdAduJ01lzfb22gTlwZcvt5ZlS51GoRxIOew8LW+eBuGWqgDB5UHA5+fo4Lqa63qsNogBQoMAgRC8oeEhV/lNmRTlhCWhL8/qcPy0r1LU4w/7ZjpKFOhQ/p49jiEqLbXAkx+eJUGgk4HvV1Fp6DPmrFh5L2ACeZeMySVlcYGURZ+GYlIjvqM6pEvkMjpulkpYjjoQBSJCiMkuIgiXUj/43eWSd3nhk9M0RjyNk5byLiBw5Y2v9+IUDSOXOp17EBTMAcIBO7q0HYei0o8CEO6+++5poXEILdWMUNw940IA8h0/GXdY4NaiWWnVOOVjYvD9XhTm5+cxUEpr+gUAEFaMFoDnIrQRitpjvCdzzElXETyEPHJPlPnL9vXbzv/5P2315/6vaam6ARquNkZTs+USeessFOzpv/vvduaNN1h+aNRSSxfbZIbiXpQISZUSaDEe5Q/xNTG8B9EfMifwt3yTdL/zxylm0fT5QTkfHz6DvhSiLGdSgTf+1n1hYCdTmxxqx8bHrbWj3dLjY5aczNjUrl02+ewL1nP22WannWHWljbLFlzYbv+jvzBrbbe573+/WZZETwVLdlA+OXAFLDfWWvRxyCypCBBcFMMtpFoOnBTLaRBigNDYbMcAoSZAWGfbtm53qZaVB4GNRtXAfSTHKapp2Qx+2BOMBtMBSN3ftJGFXWPreczdxYYl8xtzAwN3Nvt02p0YVUaYkyXhaHyHIGDOmDsVI8JejfDgUpVLhAb3YUt1AsEJ+6wVBoZdWVhO7JRXzo5PWrI5bemuDsscGLJEJ2GLo9a6dJGN7u9z1RhJ8ZZP5qyQTtpYL1kBm5xTJH0k+d6FK+LFXrBMKmHNHV2OLfomJWmRGAvCT0LKV/36nuRySJN9WcJFp9/DsZDSIPgAgecxzwgdhcgyNtmuAb/MNQKJuVeUgZwKa41TYYCAIfoFgPjOdwhGFS/z8xnIJKSIHdopckGCTrkCdFrWCbocAJ+xzXM5K+zbZ8n9fbbt379ri089xcayORvu7bWpoUFbcNY5Nnnuma7y4r4XNtni8861QZdZkYgXHJRHXASRn74YGuUzpSgW2GXcvt+Boj8UzizQw0/5YshkEnZq5t2kFeB3gB0hqNJCVXr3igDc1UEKIm3yY2OWHxu3rbt2WZLQ4kRQmbOVhGZEY82Za/uIDEoFhZVampudBpT04GSLFGjjXc8999xDypxZi640t7t3kCjpMrtl3Tq7Zu21RWA/M1FSDBCizOjMNjFAqAEQ1t20zraGAAKbUAVsFHYFo5CvAZtHIYlkT1T4YmNLdPTv8u2ejZwKxBz9k5WEqza6EsSQrhY1MfMqQSBtgs/8xPCmhbAFXn+WSxYslaMe87DZ7lfMJsfNlq0wmzPX8k1Jl+I5QXEY1zZI8sRnTlWaKwTpm5NBYSmXEjZ88V0xsiT8lc+I9W78lFAMJ7XRO3Gf5iTKCbgRqvABgpz8eD7CG7W1gI1CdvkJOECLoEgBFRli3s8444yaw+CZ3M+6csnzXt71csaUY2Q1+qom+KOAgpmDpVhY1nLjWVcrgLEMDfRbS2uTq9A5aQl7+eUttmTRYpemNzgYHHAaH4Qil0wdgF3MEvhFYErQGspxlrlUNANjBczwGVoQ+uMzzJYqysacAZLph76ZH1Vw5G852bIGzz77bAmoILD5XiYP1g0wjhZDuRTQZPEZ/QHa/YtxSCOqEGz5LCjrqL9G8oMQqORvxsB6A/Qb4Rc1iarYgLHu2r7L1Ui5xaVaBiAUEzUXQx1LfcWplqNO67R2MUBoACBwizQH4ZOUH5MNAetk2NDqHCM3HQpA4F5O+lLB81NpqeWpDTMLQkaD9L204T6KIV188cVOe8Df8sxW/gKn0jezFEwhn7B87w7b+eV77KRP/p9mixeVajiUphHe0b/Pxv/t+9b88eutgeSuB7sqVvTzAQrj1omX8XL6Uv58n1H6wqycYDtcTLWcBoHPEAAUk2L+dSIm9z8CT+YxCQKZBvg8CpDh/bRXfHNCJWB1uN49ylby1eRhmi+3B8IgsdIa69mVQKW+1/3VwKcPOv37avXtj0GAu9xcl+snDHrLzaU/9iO5hju377DL1lxu1GJYe921lqtmYohrMUTZBjFAcDNQMBsZOZj45SDSDOzWwVWwdetutq1bt9l9Dxw0MQgg8NOdPouhPwGzD8ADl5hrY6ebutfysN1wKADBB1MI+nDiGp8pS+3OPcRec8LxT9Z8jjocYFBKFYxvQXbSev/731vHDbfaS89vsJPPONWGh4Zt2bKlQRlpTBDyKnAmyrxN3PegtV5/3WGbs2Ox4zBAYO4VO49mALBDG+ac+eUzTsRoxnwtjtTgUQUBzym3B/Qs7ZVqnvhHYj7RDuArAZ0CZtD2qEIhmg80A5zE5d0vnwnmiLnCWVJAl7kEHAJmn3/+eUfL8h1g/mir6CeFbcoBU6d4fvIsP38KnwFEwyGQgGeexRzKIZF3YLz4AFFcC1OdNB5K9Ia2LgxscChFm8GFppT76JfPeQ/uxSeFcUkbwXjQVvAujO+1r33tYdUeCCjt2rHTLr/sCrtp3U123XWVazHExZoa20GxBiE8b6Fyz5UAghheFOTuM8dKp4Qws/UFZ7WlLcd4y40tzATUZxQmX+tEo81a6QQF04QpwmxgMuRpl61eQklCXKYF+lKon5guDFqnGQfMnIe7WWLTc2ZnnOOYmG+fZdzTNDy4EWQmLdM/Zvmf/oe1X3NNaWp9B65y861+/e/cPPvZHROJUpGbJI6Mrurk4XObrkUjYWDHO/rFmgTeYO6ov5l7pUnmd4CB1OBRTrdR9kJ4bqPSZbnTepTTbj37Sqp51PsqZ+zqERT9H6A/gR05Ror2mT9U+AhqAWGXaGtiwmlnEKzQMX3Rht8FxBSyicYJfwKEM+vAT2nL0OYwJi7MQdyPoKYvngvw9kM9uVd5FxgDbZUvAT8fgAHrq5TkWhfej755Ls9T4iUEP/2wh/EXUplz6ESJsAAI0hQy/qgprusRXcGaB7sOKwKmjDWXXmY3rVtXBAgczir4IMQahHqm2rWNAUIUgLBl2zQnRTGFume7yg2VGJlbpDKV7ep9dlRGXK7fqAChHPPnXqpeYrPl97B6s5KQQyDr9KJqjDBBaRmknSFtS2bLdms+eZVNZbOOqcJMA1CRdac+pg9mMrF3t/VPZCz3rX+zZbfeVErJqlA8nlmJqcEg/XwVAhSOVRWBAlkfn33uOTt59Wprocpk8mAJ8HrXq1b7KFqdcgDhIx/5iN15552lKAbmk5MtawRQkNMkn2P35qTomwYaAQHV3qUabR9Oug/vK/6GzpSmWUAAYIsmAbrSPIiGoRcJeQSpaq/4dASdIFgFxqQl8QEn/dG3nC19zaOANM9RMjalX1daZt8plufoHv3OvXym6AmNRaY+hbxqnRQhIe0dAEamU72zD+jFD/kuHJlUi47r/b4SQFhXBAgunDgGCPVOa8X2MUCIABA2b95iD3zjgVIUQ3WAoDNlfWt0tBhllBPuoQAEZsEPydKs+IzGhZW1tJS0A9VspLq/NKZk0g6sv98Wrv2Q5fb12+jePdbc2mJJ6stPZMxSSetYutjlju9/6Ic293VvMJs31yUpkpCXYKRvFXVSsh057Cl+XAKB54uhy26vpD28C6pXhbvihKacDzI/KbIlPP8S0GL6lRI4RQEIPp2K2V9//fX2ta99bRpAULty2qjZAqiVdsPRovtyAIE1U04B1pQ1kGMfkTgAAGkA+E4nc9pAQytXrnTAFDrAh4N3oz0nfkVvyL+GdpzQAZ6c4qEzaELppKWh0H38DQ3xN5EL0IW0C/QF3aiCJusoWlQmV7QHrlx5c7N7Fu/J30QbhPORABg1P3IiRasCXdMv41TIq8CFsmTKb6U+7he99TS69zQI625Gg3BtxURJmBg6ujoPq0Yv+lscPy1jgBABIGzZvNXu/8b90wDCjNtKqq+SCJvWpJyGwFfbRhHUxw9ZTR+pv6klhHRSk5e8n5Qn6lwEfRFyVTDL5V21xN5nNlj33DmWSjfb2OCwWVPKFlxwvhVWnGT55rQl8Q8pRgxIfQqjh/nDaOWFDaNGwCvxjFJoMzaVRVb4mtSqnDJh4GgtAAXK0rhp0yZXOZLxykNcaZ99MKSTHmNQn8o2OBtrDzipBBAq9V8JNMzGeI61PsoBYX3GT+YPGoEulOMEwYnAVAQT70Q76EbgGGGswl2sP31AcwAE8jigqUFbhhmCdReI5CdCHxpRCKQ0Por64TvukW+OCmQxXgQ6P+kDUCAaZuwq8Q2omU0aO6JrWky1vGbNZQZAoM4I1RwraRBigFD/6pzYAIG0qWETcRkfhC1bttoDDz5gi5csrn+GT/A7YFBKtgODghnBIGF+5VJMY6/l9IWARb3tX/SDUOa+crn7eZY88VVam89g1jBEmKsEMwwXmzN9KS5d98JAlTBIzBqh4AMX2vI+6k/+EtyLgGd8eq7+1ilRfUoYYL/mXWHoKmfMeGHeUcFSFDITQPjqV79aEmCz2X+UMRzLbaAvZUcVQGPNVAgKoawQ3KiAH3pQ/YVABV+sENrc7NYA2kAToGyrrJESKAkUSOsgXwN/DsOgJsp6RtU+Hctr5cZWLNZEoiRMDGudk2JsYpjNdYsBQgggBElDAuc3NhJVwgAI9z9YXYMwm4vyauuL0zinbv+kDiPE0Sl8oY7F4xqmShY92YI5KdEPgrhciWv60QldSX54nu5Xwh/FcsN8ObWp3DPf07dMB8oTIGHOCdFnvrSXEBEwEWjh+QiWSgABQcFFO/pH1etS+xaTP9EfYw97mB8qXQgg4INQLQ3xoT7neL0f+mItlJ1QKnvWifVnzUuJuSK+JGuNZkkOhAICApD0rWiIcAhpGCBA99JMRHz8UWn23HPPOYAP4FLaeXyQiOqY1csHCE6DcG31TIqxk2Ld0x8DhLIAIUilC0pYFwOEuokqfMLBAY7TcDhuXieZSnZoqbfD7Whf7qQkgCChDsNVKWcYMSCF+zixCSjI5s+9ylnBZzB12go0wKx5B12c9BWeJjCjZDhoAriPnzB02qrWAOYHvNXpG4av3A6cXAFGjBkvcyUpwmN8ti4BhLvuuqsUJjpbfcf9vLpngP0xQuKxUuUF77diYIFY6c5du9zecH4QTdSmSDuwH/g6KPpIoa/M20EmzN4LQjvTtScUgLC719ZcemnRxFABILgMaEmX7Cq+6puBGCCUAwiFoKSp8iDEGoT6iCoMEDipKyscgloe3AhJeYaHbd3+3+UAQqURIQQVXy+PcQEHhTwqFlzPEKAQgJFzGc+QIyPf+RoP5dSnT077MDXuUwy9PMzlbCYThPILyNlRsfCAFuaI5+Ekxvf0XU7L0uhqxACh0ZmL72PP7h/Y77KP4vybzWddQbKEEc7rQq2CdNLUpHA+D8kgP0wRPORzeQfMadBCGmfn05FzND44RIRQlwMS7LPOjp5p0RAVZz9fsD2799gll66xm6tpEGKA0DABn9gAIWKipBggNExfAcxyzoQBEpPKX39HsZlGfToMiLSzOATKF4D+SbrESR1hjfClHYlcnnnmGTce1MZoDDj1cNJHKMtBTBkEzz///GkaEPwX0ASgleB3+hYo4FmMgzS4aADQDvAZOSAAEK9//etn1bcg6vzwTh/96EddFENsYog6a3E7ZiCXz9u+bdutZcNT1nrWmTaZTlkykbIJfHOKYYUOaFPPLInjcDEPSFE7QE6QHOnPi2GYRWbg9oGLAkqnLYlmkPwb7YFzcM3LAYTddumlclKMTQw156zOBjFACE9Ygax7ClUMMinGAKFOqjpKzZXPQKdyDUORAzAjeaMrGx5tFIOu7xRZ4CdtCjMsZSCkT2kgBIS4z3dMVMiibMyRmN9hmEMBBJwUFa8+mwDtMAw57vJYmQFUAZmJQEuQbLImhP3UlI23t7gR+s6VVHpsbm5SPVQXeqjvg0NCPtAsBIqHINmZMxu6T9zvYXNk2WkoAoRLLr3Ubr75lppRDLGJoX5iOqE3C4+lAAAgAElEQVQBwvBwYGeedsUAoX4qiu84LmagkTDH4+LF4kEemRkg4dNjT9joyy9Zx+++0wrLlliBMGPHM6cndNOAyvkRhSMv1LZusOoBhHXrbvFSLRPKXEQgpYHEPgiNEEkMEGYAhJm1GGINQiOkFd9zrM1AHOZ4rK3I8TUe1W9QCDCCXqnSFfEhp15pqJRQSiG+PgiQj5DAhbQM9FuvBqEWQEhYyto7p0ciHV+zf3RGe0IDhMrFmgJEHDgprotNDEeHNuOnzvIMxABhlif0BOwOHx2KP+FTo2yOSuOML0+4nLk/RQh+Qh9xWpbZTeY4OSvTLwmk6gIIl1zqTMHXffi6YpjjTA1CDBAaI9YYIITnzanLigDBhTneFAOExmgrvusYm4EYIBxjC3ICDidKYidfs1B1iuowMcQAoTFiiwHCDICAiaHoqOgDhAfutyVLlzQ2y/Fd8QwcAzMQ+yAcA4twHA9B4cJEAXHCV1EoPsfsoDwiMhnoVX1QQEiwcpKE64z4Ycd1aRCmOSniexBrEGaLzGKAUBYgHPRDuOmmm2zbti12//332+KlS2dr3l91/ZRLevSqe8kj+EIzHbmCHJ8zUoPXMaZYg1DHZEVs6q9T3U52EZ9xLDUDHGBiwJRAtJAqrZIISenIw2HN/ryQqVJ1JwgRLufEqDwmeu+K8yoNwiWX2k3rbrYP1zAxUIshvuqbgRMXIJjZ6PCQEZ877XK1GOSDkLCb1t1oW7dusQceoBZDrEGoRF4nGqOsb5vV17qilzfoIFw7pI6uSVZzvcuDEIQ5BoDjEDqs49mv1qYnEt0juNEAKEcIP1W0ys9eylqHE3wpxJfvlGpcFV0FAOhDVV19UFALILzvkkvsxhtusus/en1VH4QYINS/C09sgDAyVCQob+J8HwTnpHiTK6/6wDcerFrNsf6pj++IZ+DIzgAA4aMf/Zh99WtfiQHCkZ36V8XTEOAk+vIBAr8rj4iSHvGy4UJsqpxKG4GFsKYAsCWAEN3EsMccQLjx/2fvO+Csqq71123TGwPMDGWAGXoXEEEBUbELGmtiixp7iu+lvOS9f95LjC+J5iU+je3FHksi9oai2FBEpPfehjIM03u79f/71t77nH3OPbcMgtF4T35EuPfcc/bZZ++1vvWt9kO66qorY/ZiQAxCCiD0fBmmAIKq2KHmTmcQIsRBirt376LnX3iBSlIuhp6vsNQvvjIzoBiExx9/TJSGTjEIX5l3kxqIOQP2susx54ZdDIfpzLPOTAGEY7SAvtkAIaaLwaRdkea4a9dOeuHFF1MA4RgtwtRlv5wZSMUgfDnznLrLlzMDABKHKw/TmWdKgHB1ikE42jOfAgiOMQgKIIhSy3t272YGobikWJ4tSjHH897aIhv4vakCzuolmncxX6v9HKcXbkfYxnXAftgriNkuwOdq54lxOt/VCDxUsXEoVazHyUXMCA4ZQscxHTgHddX5VmH0YYi1bPWiVLhwRJzvRv1VfCdqt5uO9whFtItZnkUOTM27cUv+QHsb6vd25sg2RNVkRj1wlLUtL2kEWWkr42hv0mSuh+GIKRD/sxwuorBsMf3d715Djz76KGVkZPK0mmei3q19EuTcyXq40VNpe3/ijfMfczzqsk6rPfrJ9Hk3X7UcKBqsct1/rA9uyp7M1BjnqFfOy/+I4j3VOPT7mmNLKBDsU2D5N7obYtmbz8YSRtvPYr2LgbNfXk1W1NSa82/KGn2Hiuvo+9J4IltnxlgTbFkLTqExThe3Pa+jbNOWXPT36q2JtRoKhujw4cN03nnn0S233MIuBvR7cLvR08G+BVIuhh5tFiV5I7Eioo7kal+z37Q7xSBoCgnL8Qc/+AGtX7+e5s6dS3l5+VKsoBmJeljUFbeqJWPvckBOkIg88vwIhbEzw6Zatug/iHYoXRYAYoWjbjkWPbY8d06Tcpz3sRyDK4K0HiUuzV2IccHfFwopcS12n9vt4euafQTMwlCGBFKwgceqFLXU2/p71nWvoR5U2dUIRzmL+uoOi4OfRf9CXAxCEs/plg1fMFYhPeVDo7yrFJyREH4RFnhCO/hrKEb+rRAsxntymbXgEy1ZhimsXDG/USGt/FxGIyrRqya6yivGoF60XafxQFkz8D3CrrCYE/k8qGMP/639vVhwIICVhKwMDxhgYeARfn78j2cpHKbVK1fT8VOnkteDNWn2kRDjs6p1/A7DQFqa+ZrwCdYLFBqui39r6MwYmHgAXseovZ+UMpfjVo/PNftFW+CwXPjGTksKG8g9oW1P812ZFxAjVcBGvAfxS6m0HcFkjAVtW1A8fn6/eiliOTdyZ+F79D4UKznMTZAgKTDPkUgoOk6K11j8CRBAGu9XvCcAb3VNQ26ox5ZjFiMVho96qxYopAwCKZ+4IRMeTe1P7R2rJ8T3WHe8lvhDp3mLvwvVGjBhnViXbo+HZ2zHzp30I45BuEqC3mjEkopBSCTpnL//RjMIba3NCWftRz/8EX344YeUlpYuFDVvTB2eSiZBE2CWjSA1lx3TWw1ZuWkgRNyqTzoEK8SU2AwKsZvKQwAGfMNKUO49U+Hit+KXQpBb1KftX4oZEALCjetaNJ1S3A7TpQCL6Lhi2/5uAYjU4HQ1hmdT+sBmvEJJuvlnopVsxIUnEdc2oI5CSko5yVrwQj/Je8rrK7HE82EBNGJe5NBtD2cHTeJrPZ2TL2XIO5WG6CK3rE1vPVcCnKgpVPMm5zhKkSpgI5WwA6BiNgtz7/HJh1GAQ45ZzbtEruiYhzUBABbmlxBhUMN/VdpBzot4aAEmY6lEpQRVO22+nlSz6kcC34ldIKxfYR2LORJnY7WIFsGiYY+L89ldFEoKXKiGP7ZRasjRfAIFbMz5YcUonzH6SaNQnfkW5XPE1X32LcAL2W7iipNEcJ75/sS41Npz7nfA882/E2vfih002SKblXHTMiu0k+tYdl2VP+H/YJwMWgFa1GaRwB6gg8GpGDvqGiigY067fB71TJbXY06MgGQaiMAa0AwT67bBmCLk9XkpHA5SVlY23XrrrXTOOefExB8pgOAgu5P4KAUQ4k1ShNgChkUWDgnLW+gEsUDFoQtwdTFzkwqLRW4b3qAQTlYBZeB1idBFZzNp10RZCmLDia/VNk/iTWunAPkL9I/f6wyIfCIpwKOJSu1743qaRrEMQ1hAJvugCYqYvzWBDJ8trSAWR5JBgEASSkfcFxZWosNMk7ILz3i/VM9lB1fmb0z2QEk9ofBiG3fmHKjudQkMQccBJsq3FwpYsifyCqKULdaN2yhzy8yIXJ/GjOoAi81eU5kxu6FRQexeUQpeAkoh6IWtqq9jHoYwN419Y2eVDJ5FKjL1G34TjhSUtZV4onUAFkIpUmX58u7Un8mEl4kup+2/2O/cPl88zwqo8T8AgsU6tqf24V0hsFSsd8gftc6EzAEQ5fXmFvIEMsrjBTtowGhhZLBcEdkGbM2HBUuhriuYCrxbsX4hrfjdejx8Tcg6E9RJuRSWcoPnTrxXyEn8TvVnwFeimJIEmCxzwvxMHo+XrwuGNRIRRZeIQvzbYDDEMhbGki4HBZAX8lTJFZwj2BkwFRb0b3l/KYCQxHJ2OCUFEJKdNxviNxcuFr/YqKpEKBY5mpaIvugKQMAqlxSe2lQOgs/u8VH/xjXhLvB43HIjKCZDbAqrANWBgxJe4jNB+VoMaYsLQdgGunVnggInb5QpWxVbEX9CTXbFVKrqF1/c2+UEQpJ9wfbzEgOE5K6sgyTrL4x3ppgiUP7SGjNxUCygaL+7ldUy33D0PCc37mTPigcQ1TWkEol5yaM11z0BfM4MUbJPHf88dW09hkYqbX7XUOYh9pOrNSAUtsn2MYiXYEvsb1E/AEYKlKoyVtTeV0yMcjHhHJVGKNqXuygCYOARRgqsfShudoFGXOTxegUAgVsyLBS6iq9RNQ6EYST4FbCWwQBcX4LqR3vncDhE/u5uysrOpoDfT/6An5lXofSD/N+urk7yen38b9X2XMnNxsZmys/P5fOU/AR4CwRhBIj5w3PrIIFBTSKGiQGTiEFIBK6Pzvv/57nKNxogxI5BcHjBdkrQ4RRsDrfHzUidNyX7/cQBdKsQtTCi7LSlEBa6klSGMhB3IBjkymVi43jI6/FqoWCmzzCeSGYrgSCITLpeI+3lT3UOMHqMyS/9RIpJ/z7WuU7nsEi0DSM6mFGcIBSP8icz48CfJ3queEpP/07njtWQ7NdWQE6/r/5ciVgg/Xr2eYo1P/a3ZB2TdZ3Z5zLWc+jXjHVfKzA1f5FoTSVaK073jrUS7e8k0b+TWQ/JrvpYcynugXmHdYyYDqbjpcWNb2FRB4MBo6aAWr+me0GyhuyGlMyBjM9gq93tkbFFQmFCWSuGUSh6YViAkvd5vYJJiURYrggAYSpgUdcgKCx9Zp7U+IXBgwPPgIqIqIwIuVRYiEqK2eRxu6mmtpZaW1uos7OLUGGxpKSYh9Lc0kI1NTUsB+EWGDCgP9+7rq6ez6+vb6SS4iLqVdiLRJVFoqamRjp4sJJ/n1+Qz7VocD+xvWOze/Y3BnCTnZub7ItMnSdnIAUQ4nC8wh8qNqY4TVjg0laWCF1sLiju3bt3U5/evUW2A/thXRxche8OV1XRwNJSSbsKatQEA2YQH/zCoTAsBWGFAGlXV1dzBbOhQ4fR1i1bKDMri0pLB0nVJ/x2bpeXwpEQ06UKligggvtgswLAeDw+ys7JMawFWAKC6VBCR1gPQmiIYL4oOjyRQfilbK9ESkfKEJvMdn7dToreSdjblXW8f8dSqF/K5KRuYpkBp/d7bKdIyAxzfShQBpdlbW0d7z9VbRB7XHU1hMWNTSfiirAPRcCuAg8odYySxpApsLTT0zOooaGe8vMLECoiwQEqHnZKl4SbAv4A5eRmM2tRV1dHfYuKWHbhWjigcPF3fJaRkU7Z2TnCtSoDcDEmjNHr9fB3uO+mTZto1apVNG7cOGpubqLa2lpONwS4+OMf/0RXXnkFNTQ00mefLaULL7yQ8vPzafHixXyd/v3707p16+icc86l8vIymj//eWpoaKCysiG0f/9+GjJkCJ111lnc+fHttxdSKBikSZMm0dLPltKsWSfTqFEjZS+IxFBfvWXMf3ZO3rF96f+EV08BhLgAgXiRVlTso9bWVvL50nhFFhUX80LHd9is+G9+XgGtWbuaNw82AFD6gIEDqKWlldE2NtPAgQOpsLAX9e5TyAof1xAbEZSjQMM5uTm8oTs6Oyg9LZ1bn+7Zu4fa29po0KDB9N5773GVsokTjqPsnFzy+7upoKCAqqtr2GrIzsqijq52wWKwv1nQkc3NLSyYysuHUu/C3uQPdNPBgwcpIz2dJk+ZQocqq5gShBBA45XGxkbZljVIJ5wwjZ+T7QjOmEhkgX8dd0oiS/7r+EypMYtFK/8vRhzDsZol7GllnQsQLphEKPdufzdT/rDksU+DwTC1tCBo2sXfg6LPyMwUPvuwcC0qwAGF3d0d4L0NgIDqg1Dw7EZg90Ea/waAAO4C0VjJxXsd/8b1FV0vmAYXywt8DlmF8yF7MMbs7GyeHsgpfF5cXEzpaWm0YeNGWrZsGYOc/Pw82rBhPV177bW0f/8+QtvnVatXU1trG02dOpUWvbeITpw+nXbv3sMN7+Y/N5+LG02eNJn69SuhZ559ll5//XWejxkzZlJhYSFdf/31tGHDBgYeYB2279hOV15xJdXV1dKUKcdTekY6+by+xO4FZQmnAMIRLfNvNkBwKpSkTSNcBFicd999N+3YsZMmTJhAwe4A5eTnscIE8t69azcr81NOmc1If/XqVYyC4WebPXs27dq5k/oW9aUJEybSgw8+RJmZ6TR58iTKzMqkgwcOUlsbAESAOjs7aMCAgYzIKysrubwzrIiysjIa0H8A+XxeamhspJbmFtq9Zzf1KihkYNC7dx/q378frV+/gQ4cOMC+wN69C1nZg97buHEj9endh6ZPP5EWf7SYhg8fSaNGjeJz31zwJoONn/7kJ/Tuoveod2Evau9op/Lyclq7Zi1t276NQcL/PfQQDR4yRNCfYQiXIzlSCvhIZu2f4zdfhXcfyx0Uzy3wBWZfpQRGSCpk4bcHwwfffxDAnYOFXexu8PtDzBRmZWUyIwBXBBQx9jECGOGCUFkiYAuaGluoq7uTjQzsdxgiXo+PwQLcBgD6KIsMuZKZkSnjAdLYBYCYAYALEdMgUhUhXwKBII8HYMTlglHRRLm5eZSensbjAYsxcsQIBjUbN25gGZGXX0BjxoymZcuW0rx5c2nPnr3MQhw4eJBGjRzFoGfz5i00fvx4qqiooGHDhtF7779HgwcNpokTJ7DMe/iRh1nOXnTRRbR502Ye90033UhbtmzlzyHvUO/gnLPP4e9OOOEEjl9IGHugvb4Ug3Bka/kbCxCAxhGDEO9QQUKvvfoaHThQSaeccgqFAkHauXsXo+QBAwbQO++8SwUF+TRmzBgGDGATgJTb2OIvpUOVldR/wACmyD79dCnV1dVQcXFfZhn27q3gDY7Nis05avQoGgY3wtatvLFa29qos6OTxo4dy4g/Ny+P6mprad269dTY2ESjR4+mkSNHMWuATbt582ZmFMaNG0tNTU1U0KuAli5dygABAGXNmnWUmZHBAKGtvZ1dIrAMAEKA1AeVltLh6sPMdIDhgMDC5+efP499jBAm4YgITOr58VVQEj0fdeoXqRk4khlg92JYJGh2MpUvehCogD3sO9XuGCwA9j/YBVj6KhgZRobJICCDCjEEqC3iJ68njQGCCl4GmEDUo+qwCAYAQKG7u4v3PIAGWE0wCDhU/wSVGSEyDUQsBIyM1tY2ETMRCFHfoj7MoGJcACMwnHbt2kVr1q7l+yOjAL8988yz+LeLFr1H27Zt5XFCmQMUgAndsnULffLJJ7R9+3aaNXMWA4ri4hKa//x8HhPATU11NQ0ePJivhbgEyEi4JnD/8RPG09Tjp7Ls5ViIHmC7VAzCkaxirrdxJIlWR3azr9KvkgUIGDOs6oA/SHm5+UzN47fYvPDZgZaDIMCGE0gcEbohrvKl0n58Xg8rcKQMRUgGD/H6FoVqVGYCAhxF3EKYf8/WQMAvAxxFXEBHRzuj9AMHDjIdBwoQm5Qjf/1B8niF31L1aleCSARBhblADndg84ngIy6CIwOolM9TxCAgXUpETqsGKiKfKPnAoK/S+06NJTUDX+YMQInigB6DPIAy48Jf7DIwiocImeFNY2sYIAH7lFMNUQ2Q051FPAKuBxmDz8A4ctUIFT+kbiRJEnwuroMSFgg0hAtDyCjupIjre0QRJTN1UsQaiWBqJZeEDFCgRbALHpZZkAVgVcF0guE44YSp1LdvEY8dhgWAANjJESNGcGwBWIvqw9W0Zctmdl+OHz+BDSiP18fyb8GCBexSgdtg1syZRuwFDJ3NmzdRfUMDGzblZeUsY3vCHvD0kIeycrJTWQw93AQpgJBowniDIGDQRaGgShMy07lVvJ7KOBDBSOp7rYIanyAihc06BgICqxRJAAoIEXGmKDbDFeTkxsf3+B+UPvaoUNwQPFD6wtdoKnAtpZIDIhE1JdOU8FdpSaiASJEHLaOU2dg3azGYaZGIP0gBhERLJvV9agZ47xogwczSUEpZpSli/4kyAiIOAFVPlSwRG1/VEJBog0G7WR9AyQ+RoiirfQIAcH0FMQaRUSVAigpGFgGIosqhqtqqBA0yIiCTgkjFlC4HZUaKmAWz0ivui89gKMGtgWfo7BKshahTEhbgBEWNQqIWg6osCbYTwAHsB8CRLw2uDMRfBNhN4Q8ACInKoGI+Zf2YHjAHaiUCUGXlpNIce7ozUwAh3ozpbkuu7CVoLaMOiWQB1II3KnYYaXQmAFAgX+wuex8HM71RpBEJOt5yXcmn8dccIi2jpDllUdU2kEVNtGdSQEMUQzGT/vguUXUZRDaFWZBE1kAxEIoCOD1dZqnzUzPwzZoBlQEl9rt8di22V2UGmcV9RIaUUfVUbFDxc2QySPvCkrvD3+smSrzMG8VoSFljpmaJaxj3MzOqFLls1g5Q47MBFEgqCTQwVmQdGOmRUk4pNpWvpTEdzFZK5kIFdDIDAsZVMi1GPYgv4KXEfbKyc1MMQg+3YQogJDNhyoI3+h3IzavXE9A9NcY+lfUG7F4c2z52yhq05KrH2hhG3xrtPtq1rddNDnbHz2D8Z8xeSGYBpM5JzcCxngEHFCFvqUo/K1rdcY9K1s8YpZI58bZ9sgrXOM+8c1w5oV03vjw51nNqXj8VpHhkc50CCEc2b6lfpWYgNQOpGfjnngFBJf5TPGMKIBzZa/zGAgRMFyJjmepzNIx7Urc//uSbFF2s847evWKORHUNZKrS1ihG/chspudYgUR0mTQFhtO8qSYt6jzHubX2TIpZVkHv0Mh31d6T/T7GI+jvUj2PTchFjcmoca9ZHPI69i6R9vlV10p0HlPFR0nYHo3rHI1rHK1nOlpjibcLhV//iym7ZMdplhM/MqF8NH/1ZcWgJzs3R/PZUtc69jPwjQYIx356U3dIzUBqBlIzkJqB1Ax8PWcgBRC+nu8tNerUDHxpM8CpcakjNQP/ZDMg0rljsKn/ZM96pI+TAghHOnNf8u9Um9bkq49/yQP8Bt4uVtMtNRX/aNo10fiSfWUo0y2o6iNNcbWFqsnsn8T3V1lATmcmGAsHEDsH/sWn3TlNSLuh9T7WK9rPjZflo/1SBjfbn0qMy6EjqfEsyQUJi4yH5M6Nmlnt3YgMKLOro3mutQqByjIQT6jemf3+mmuSz9OvYe9+6aC0e1YXSSWCxVximGsUlUJVytQRewZSAOFrsjpQ+wBlmY00KDnuI/ExxlJcR3KtI5q+uALS4YoxFIpqRxslaL+IgDyiB/pm/shQ+7HiW7hmhq5SNcXLAS0OCjWJrqlHbbZxfx6HHGcSgSSxcw3MUdkj99W/k/ltMs9mv47lfuqZYl0Iz8q6WyphIyDnCAGFE8KQAMAyIzy3qkDUF4sFSXaO4j6Ri7jfRF5eCiDEm88UQEhmtX0FzlEAQRUq+QoMKTWEb/gMsMiPUvKiYI8wJpUCVkDA9l3U/OH8o0/5Gk2+ecBSSYkBKpgt/p40QDCri1geQSpbQ0dr10sKHCRS7vqcOq49p7xF9bxKXUpGQAEEdc2kWqA7qVzbk6n3Z1kXcm57EtH7BfaWDj9igoQUQEhqhlMAIalp+sefdOwAQo+Tof/xk3E0RsCWlC5KYomVo2Ht2FIrYo7/aFlxSUyQ0O5JnKidojMCGghwqcZElsvJfxgWulTIsR6RT5drkc/RCesYjjVDCTkod4MV0B8RUEH0DbC6EfT7yvON8ajfOwEIu0Wc7F5S95AAqidvwVCy+ji1Czi9UwvDI5kby1CTWAeW96jNXxQTpFKUFDNjn+sjWHfJzI8EV/YnSQGEZCYv9jkpgPDF5u9L+/UxAwjJ0qt29J+MtWNYJ5pQSPZ3x2RmpVRMZPVa8ik1KranCtXQLYrCtglL+1w4Ue7GPCRlg/Zg1pQCdxDgTleJpYz5GZSVancnmIrXxCMqf9Smo42KgFblE/upNcuY34tNNdgtWOOZYljZiWbOidmw58vqzIm6ngZ2Et3C8Xv9Hpbrq3lMknGxry2eBg3ExR2cvm/kifa9EOWq0B0fSTIIjjnRMe5n7K1okJViEI5opcVYfl+a4/noDfqbeKUeAwQn4eWknGMBBLtgUgLGoBCT9Nvq19eVzLF8ibGEchTlbUgZaU2LUtXWQ1NR3Msihk2i+1ijni2WZal97uiTtwlWXDeW715R5HFBhqPmT45JsPTgUOOCjvGY9R3k1Kh+JMLFIMp789C1/7frc1GTR4CNcAT9CZSCiWHdWqxiBxCXFEDQ30si9kYbh1pf2pygGZBRp9yg79WEKCUmnymuIkxG4YeZCRH11hOdr7lU0FfG45Mvwj6var6d1r/6TJwjsIViCuzsmJrTsOz8ap9jxcRon+usiEKSUYDGHjOhreWeAHdDBqRiEJIRwV9ZBiG6Dngyj3P0z4k1jp6Or6fn258EbVsRpCgalsQ4LIJHWRhKEDgIWrtVGCW4bApMv20i5sHYiBqQ6LHyivc+bbYlC0ql4GP4k3WApFPQlqmJpyh0q8g+tkQWvq7sne7hdG27LRTPNkrKbjIHzWBHCyKMJ2Sj3pt4FpfLSy432v1KEIDpd6N5GFEAjc24h4BRSV+eZ1lElupXAvuEKRRGh1ENDNljGviGmEMnBWlVZuJCsSl07nhivLrY5xmjtgBec2273V4JEMxwe3O52QFiojXmvO6N66EjJLddh5tMA60J3Qtu8njSJVCzrzfz3/FWuTkP+quL/gXmNRTym83djNeiWAv5XpyAnrqJ3biIB6IN8Km9QyeDyLh2CiAkoy2/MgDBHpEORbhixQrq3bs3PfLII/THP/4xmeeJec7GjRupqKiIiouLe3QdjOunP/0p/fu//zv/Xh1HovBjRd2zLFSNWWJUe4sLEKLoPbsQdnhk7vwWxx9r33BRlGJ8BoGvDUvKsLISKdAevRZNMNqoVkvkvLymo4KxAhcXKzwVzibtJKPXhWxypdW3N1PonMet3rX9nfNo2VyWCi7GYx/TKrcWFkgK6h4CBFjMkYiXWw5npPto2dKltHnzFjppxgwq6JVPq1atpvPPv4C7jNpb88aCMuJzAIRuM2gwViaEE8XNk6ssTdXGSHVDtSox1esEjYIAYsT+SwDc7ArHsHyRT+9jdIR1JAI3kz2S3xfGExgAAfUp1Kdxgiw1MGUChNjjSwQQEn0vVlSEwuGAbG/vJH90RkAHdfq5ElgpYKC/c7txwzfVjKK4LI0AcakshsRr9KgDhObmZtqwYQONHTuWCgsLE4+AiP7jP/6DzjvvPHr55Zf571DEwWCQHn30Ufre975HdXV1NGDAgITXilBriQ0AACAASURBVKdkoeTPPPNMOuussyzXiae01YkfffQRTZs2jbKysozfYkxLly6lCy64wHFc27Zto5/85Cf0+uuvc//yeMemTZto4MCBrKDQQ90pDTEKIFisYbtwiy0sVG5z1HgsICORsLFZd05IPcpaT/j6bCfoEe9OrIkUU3aK1akdtR5ZrVshhvWFjnJpJhVuKwXtNPJEtqayGa22I0pqhykCCl1RxLaLe9xpUujHuINF99jOsXTo06P17U8AhRiicBhWqDz4fUmwEHW6vr4AjTzk8viorraONm1YTyUlRTRs6FD+1aFDVfTmW2/RvHkXUEF+AWVmZVJaekaUApbtxaJUsssOEJzGomcHeNR8iRMZ6DErIGZeTJc5afhYdGXF3IUYxIqns8OY6DmjcIAtdwF8tRcRMQGC9VdijSZSqJqKt402xp5hNwxAVBwFGuOnyQAEBTr0cSd6hujbASCACbLvXZtsQWdbBLnG3FA2xkFfr/bntw8iHqBIAYSkBPJRBwjcRzwYpEsvvZT+93//l8rLy+MOBOd3dHRw0Qr42S+77DIGCugb/oc//IH+8z//U2yaiLXFqNNFcU5jYyO98cYbdO2111JXVxePJScnh1566SUaM2YM3XvvvfTLX/6SBg8ezHT9O++8w2AG/4514Boej+ZrJWIQhOu8+eab9Oqrr/LfAUKuv/56vsxJJ51ETz75JN8X3+HZPvnkE1q0aBH5/X7au3cv3X777TRp0iT+DiAiXmWvuADB2DQiMl+IjegdZyc6Ne2gWSIJrB9H2k9lBMSg95yUtgb4Y+9roalNu16caeh4/ru4p2k82ISmTkMbbg+NnnaB6fCQ252WMNErqR2V4CQo5ggUs8Yg6GyB252Z+DYx6fXEP1VnuMlNwXCH9gNt3qJ0owIIorU45gqzhvfi9Xh5r7a0NLEyyM/Pp0B3gNIzM6ixsZnSfGlEbrdqXq5d2ep6MJawE0CwWINWtwIUHmh2oQvEOOMpMzAGeAbInPbOViooKGQd5vbCVRKf+o/AIga4s7A/QuEZDILtKgAsOF+/Mv6FGUGFSrhoPGjzTGBakjx6AhB0qxr8CubL8dCZDCeXQaLZkXvTuHaEwrqLwfg8GiAIdxUYKcxAWGMd9eVpi7XQ94CFTdBEmZKBDu8rxSAkt9aOOkBQt8XLHjduHH366afUq1evmKOxW/0/+9nP6I477mChA1ofIIO3fhIAAcr/X//1X1nx43wo9YqKCv69AgALFy6kG2+8keBywLgaGhrouuuuY1AR7wBoAcvx8ccf0+mnn87Ao7a2lpmNdevWUWdnJwud0tJSGjlyJIObW265hQUmjv3799MNN9xA999/P4MBjGvChAnsQsF4E5X9jApSdFISMnUPApydwQ6HEFX4Toh4U6Wz3RV/1cDqjAS04jL6BsaVHMwAWyCXsyIWv4X1aB2BQ1U5K6kaNWIWtKGAOTA7la9YA8PtYAIEpWJMZXX061YaAAE30QGLHE9yFl5ymzvuWS43hUPt8hQVHxHtNhJvVFnkHhIMh7RdXURdnV2Unp7Be83tilB6Rjo9/tijlJ9XQOecdy55PekU1N8HP7dbFPqD9ajC3uSLZ991uEsburNCUSd4GFCZwaVOK1hXd/7ubnrzzddp/PiJlJ6WRos//JCu+d51RC6vATB4iIaiF2sTzI+LghQJhyTRotV4iMEgWNWsuR8hm3Adn9fHpX79waCon5isawIuhjCAigrm1NYSD94h7odZNLcIUrTMrr7vzX2oTlHzad/Z4s1JhkQxTxZDQI9B0NcXHlQyMHLN85UkcDGvChmu/oj3K3SA9e1Y17jqzqYHhdrmRtvcKRdDYjkSFyBAKaHjIZBuRkYGZWdns+K2Jz4of566HX6zdetWBgg4FxZ8vENX/lC+xx9/PFvX5557Ln344YesjPEHY4h3nHrqqQR3ABT2gw8+yC6Kv/zlLzz+H/zgBxQIBFiQQbH37duXlXJ1dTXdd9999Pvf/z7utaH0cWzZsoXBxIUXXmiMa82aNQwQ8LyZmZnsJnjuuefo/PPP5znDAUBw6623MiPy/vvv069+9SvDlYDnf+KJJ2jevHn8jPi9/XAGCNKcNha92M6gy3WAwNtYMn1dXR1U31BHkXCEioqLKSMjk4V1QnDAWkEDCFKZGyETTqlmFkmU2FLvCY0Z61wDIDj6rqX1aXPPMFDiOYvJcybeSUmewdHn4aDYQ3ZGg4ig8JK2JG331G3ARMMRDIIOEBwsLwPyCfvW686kQBBuCbFaQqEAHdi3n9fPnj276fipU6mkpB8FurspIyuDtm/fTvX1jTRsxHDKz8klt8dDbe0dvPawL1gZuCUsVDE4BkBIItAU8yUVi1BYvEijHl1X9l63m+659x765f/7fzyOTZs308oVK+iSb39Hsg8ySj/qShhPwAoQNC0aD5SL09T4XBQOheitN9+gAQP6sYFx4GAlTZ58PLm9sTISbM+WCCDEfPnJAARzDvU9hu3tllOreBpsF7gHxC8kWDDurQCCloboGCMg9qQCxtZ9LVgm9Vp5rYQgg+CiUy40mwtDpxe1sZjBnCbkSfNlpEotJxAUcQECrGVYvHv27GHldeWVV9Lw4cMtis3QTTGEK5TvbbfdFncYOkAARQ/lDuUN/z5cADt27KBVq1bRFVdcEfc648ePZ2YAB2h8/HnmmWfYQgdAePfdd2nixIlUUlLCin706NH097//naZMmcKWv1LmTjf5+c9/zswGDij7UaNGEeIMPv/8cwYdiL3APVgUuFzMfvziF78w2JO2tjZavHgxnXjiicwa2A/MAUAGrgHXhP1IOs3RFXEECLyJIxF69OG/MGPi9XroxZdfpu985woKhlSwYoLVwgBBRZgrK1IKL8egMb1YCkSkSeVbBIHFd+40hmg4EEsdxAQIutViY18Ee+PkYlDuGiFUegJgYs0kl8qOACBIK8/GcNgBQk/u2ZNzARBCoXZJzat3qCsy7Ql4TcEF5qFgKEhNjU20e9cuWrt2Nc2dex4tXPgubd+xnf7lX26jDRs20qsvv0IPPHAfFfYtoabGBvrDXXfRzbfcSt3+bvrwgw94P59z9jk8oWVDyqhf/4EGnhUxCH7n1Es9TkKCK7cXLgZzrLHnQPBl+P6jxe/TKbNPpdy8PFq3di0tWbqUrr32OkuchH4d4++RoLDcDaGnboz5SY/J2onTxVXwiwP7KijN56NBpQMpLT2T3njjdZp9yqnk8cK6TwIe2l0Mui/evvD09RXxGgyCDpqMWAb+rXUyhf7nqAt254VDQQqFw9TR3kEd7e0UCYcpIyOdcnJyyZeeLnUD4gpIBJvaQYE9YFi9R086x48IHBXd6wF7tLm5iWU57pudnUv5+XkyGxaMipBhIsZKQBgeumSq1LToLEQKICSQ90y+2OmAxL/p0RlQiqecckrc30BZI7sAivOHP/wh/elPf2JLWg1t9erVrNzhy493fOc736H58+fzKWAGqqqqKD09nRcP4gyuvvpq+tGPfkQnnHACXXLJJcxSYOGBPYBCBwMQq0/B8uXL+Tsg/v79+/PfwRxgXKeddhrt3r2bXQ+KmYA74Te/+Q2fD/YDAGfIkCHsojjjjDP4M7gdcK1+/fqJCPpIhC6++GJ65ZVXegYQbJvQziAY4ikSob1799CwocMozeelzm7EaITJ400TOeiJDh0gmFIyjjBX9fbFTo3l62cGAznaYB5dLgoGQtTe1kYen48yMzPIw+lyySgB3EW6GOwMQhRAMIUhB91J6twyBfxOzBiInkeoR0+ooE1Vipq9H4GLPO6MpJ811utKBihA5IcsDEIc9sQVYdcCPOe1NTX07rsL6Yff/wG5PXhhbnr//feoID+PRgwfTuvWr6NHH3uCHnroIfJ4vEyj79tXQQ//5WE67fTTqaammuNvDlcfpiuvuJImTJhIyNwVef2YaxtA0P3L9gcGte/NSLIxkZmlsuidt3hdTZt2EgcaY83NmjWLvF6fI5Om5pNjEEgCBKNOg6Cw4wEEwBJ/t58CAT95fF5av349+bwemjplCiu4xx57nK6+6hrypsHNkcTBqaDdgvDS01XNfE2JR/T9J851y6BO07FgbbVkKSINhRsWitbf2UUtbYjZKKCO9jbauGkjrV+3ngL+AA0dWk5Tp04lr89LvQuLyAMmJOKS6aqahe/gUlMsWvzYCMkchADQAvTKy6+wy3jmzJOp0++nPbt2cwA5ZC3m183uVQRyCpeQQvaGDOE4EqIUQEi81o4pQEiUuqeG98ADD9CMGTPouOOOE0JCYyOSiT1Q14FFD8s+So7I+IXHH3+clXlZWRkrY8Q3fP/732e3QKIDzATcBr/73e8cx/fee+8xA4HgRFY9kQjHNyDOAcwAsjP+/Oc/cxDlgQMHOF4BGQ7IrIBrJFHnP0cGwTH4JppBEILXRaFgkF56+UW68FsXUa9eBXS4uoq6/EHqXdibN5US0gagiJpI6WIwPmd4HhsgWAIEnV0MHHkQDtPhqioKBgMsZJqaWwjBZJirQaWDaMDAAcnYVWLe4wEE+/NInymUpYstQNPKw98wpvaODiouLqL83AIR26KAlAqOlNc0bJ5EYRwIUmSAIKwcy8ECXASRJaPk9d+q85N2MzjFIMREHAAIcO+5qbr6ML3yyov005/8hJkzj9fL6wquB9FxNEjPP/8CDR8+kk468USmhLHWP/v8c8rPy6PO7m6aNHkKpQG4IwUSgCmszYWyjjkbAfOtBmVjqjTLM+awo+IIkLkRomeeeorZSID6dxctoinHT6Ehg8poYOkgdnnEtOKhoAAQDBeVVH7Qw25kwYiaENZDuA32VVRQTfVhGjt+LC1e/BF99umn9K3zL6D+AwdQUXE/8vlQnyDJbpnsYoB1rgMEuWoUcOHvVFllOXeSKbOvL/Gt+H+8CcRFiBbfYn1u2riB+vQupF27dtGc009n4w3ySv0uFI7w+1/yycd03HGTjIBruKCMOAkLk6G5UnguPVGxEWIO1csX72TN6lU0dsxo6tu3D8srfzBAtbX19MLzzzMbM3v2KeRLS6Om5maqq6vnK/Qf0J+yMjW3Hcd/+HkfpwBCrJ1jfn5MAULi25tnJAsmenLNf/S5OjmTCAAkGusXBQjKEti9cydVVVfR6FGjmC4s7FNMHi8CzFRAYJyRWGIQbMFQ9p/ZoqcROOXEIDBwCQVp27atdOjQIerTpzdVVlZS6aAhtH9fBY0ZPZoGl5WxNZrMwelqRvS0pi6jKs6ZpXrFuNKNSHiwBls2b6Lmpma+JdxqvQp7c0Detm1bqK29jfr3L6WRI0aIeUMAFf7I4Fg9h8SOF4wYBKc0Rw0gJPOsOAcR8IGwSNdDYSLUJVBkejyF43IJF4MhiBPUQRAAwcXv6MUXn6f//OUvKRj0U1paOsf2sFCuraXS0oHU2dVNH374EV100cUc9e9xu6mhsYkq9u6lUCRCo0aP0XSw6RPmDznHX7gYrABBDtWSsoqo/PhxSer5wi4XBfzdtPiDD+jM00/nWg31dfXsGuzo6qTPly2nmbNmUz+wg7GSHsNB4f822Dbz7SKGBS6Y6EOkVO7asYMqDx6gkWPGUCQYpKqqQ7z/MrOyaPSY8eTm9d0DgMCuPi2mRmn3eEWhoNQlU2Z1MSDYtIP3HZRpr8JetHPnLgZ07R3tVLF3D1162aXkcWOfoPZFhCorD9KO7dt5vWFvAiAMHlTKwKFP7yKOVQuGAGJkhpNeD8WefmgwG1FCxPLB3//2LM2bey4NHjSIgR5cvZATADT4A8wOpmZPxV7avWs3Ha46TNNnzGCGVtM0LB9SACE5CfOVAQjJDfebe9YXBQgsPyIRFuZvLXiD4y6GDh1KGzdv5ayLOASztrf0IMUEAEH9igWEKJikAIISg+qeKusECmTwoIEcyAYaFpv+tNPmUGdXFzMLZslelbMfvR7YXcHWla3VcKwYBB6XYBDYenIRgxW4YmbOnEXFJSXCCu7s5JiWtWvWUFNzEw0ZNITGj5/ArAco8507dzB7VdKvhK1BlZUSDIWYDRGGnag/EEEmSAIGQX8y/d2YIXRIlBPZL/v2V9AGZOXk5VNXVzcVlRTTiOGjKCMd6YjOaX/RQYo2a9MyAMEgYH4OHTxIL7zwPN1xx+2Cfma/dIjqamuoquowDR8xgkFDWnqaKJIEhR8K0Zq169gCPW/ePKHXDAexhFMcy4axhikExSK83oZP2hiOrVtg4qBOaRm7XLR540batnULnXHGHHb38XuJRDhu6ZNPPqVRY8ZyWjZ82zjsbIwrHKQQAwT7Csa6QaEkEyBYeQg37a/YSwcP7Of0T6R+IhbKl+ajTZs2Ulenn8aOH88AL6mDQRTWkNxbPFhrVoV4AGufAlxdZQsYwJCI2lqaqKmpkdrb2im/IJ8ZxeWfL6fDtdW8phE3BRDQ0iJq3PTvN4CwruH6PVRZSX2L+nKti/zcbHadzpg1mzxuL4VCndq4tDmLAgiuOOmX4k34PB7at28PDRjQnzPDABAQy5KVkUlbt2/nGI4M6U7GWLGSln76KRWVlLDbVwcIIv0yxSAks9aOGUDoiWsgmYF+08/5ogBBxTiwvzgvl06ePZsF+J/uvpu+z/5kT2KQ0BMGIQogYMuKHHoR9yTUfVdXJ330wQeUX1DAQhM+w8Lefai9vZ0VCiz5pqYmGj5iJJ144klMIboQrBAhWbPftjJAUSPILR5A4J9I94gGEDDHBw/up/q6Oho3fhz17ydiTQTtDKWm6kwIgAIhBcvpwP799MrLL7FrJCc3l0aB9UDwXUk/ys3OZSWtXBCcJhcG9Wp3Mch8eoc8dcWyLPnkE9q8eTONGTuWpp4wjbOD2ltbaG/FXg7gKsjPZxCDuICCgl40aNBgfq/isHIZgBfBcKc5D2oanZgEjkEQAOHggQP03HN/ozt//ztWrnir8Elv2bSRyoYOo959+jKwMy4XiVBLczM9P/8F2ndgP/34Zz/jrzxcu8AM/uQRyqI5sDxFWJxUcupdiZMsnycLEILhEN115+/oF//2c850QrwSB7JFIhwXsXz5Kg6yg0KE5RxdpcFFrnAgGiDI8YhSy84MAq7VUF9L1Yer2JpFkF/fomLKyc6m+oZ6uvfeP9Nt//IvXAsmqYPdMLIIkRMzpuf/a/PFRaQs68tNrS1NVFtTRb16FXLG2q5du6mzo4PdRwNKB9CMGTN5D+Bz/PdwdTUVFxVxMTvEeLW3d3BMEwpirVqxnA4ePEhnnHWOdFN0aSBF7wmhAaEkXEV4/StXfE5Dh5bR4MFDeE2//tqr7M5I87hpd0UFnTB1Gnk8bgoEA5SZmU1gyD79dAkV9+tPffoAIIi1hhUbxvpKxSAktdSOCUBgwRGJWARFUqM5Rid93dwXTuPtKUDABrGoBNaHLvrN7bfTtddcxUqmpbmVdu3eRQMGDqSsXAhFEX0c8zgSgKCEvCxlDIAAQbNt+3ZqbWmmsWPG0qGqSqo+fJimHH88IU+9o6OTg0sPVh6gBW+8Qf37D2Cf6PTpJ/Iz5OUXUEm//iJITpU/NjQS/LNQwIkYBPMpMVcI7Gyor6fW1mYaWFrKwVhe9BnQrTpY/wxykMcvXApwn+/bt48p4yefeIImHz+VZsw4iRU0FGPlwUO0fed2GjZ0OI/f5dLq6BtvyIzjiKqDECG2ypqaGpgCBkNQ0q8fZWVmsMsDQvCy73yHwQEEJC7Z0tJKK1etZF/xuPET5RRZ6WuoX4MCNqYidjyJziA88+wzdNddvzd80CuXL6f29laaNPl4ys3PN/Y99w2JEPkDfvp0yRJ67fXX6YILLqTJU45nAR5FqQOsIbgthDoICiDYrPUeAwTxcIFQkNasXMWMD0ANsi/gzoCiaGtrpxUrVnIWwfgJ441sB5vzg5hBIFV9Uvs2ZiVF3BlcjWhEBYYAawIxSG3t7TRu/AQGQk8//SR999rvkc+XnBtNNLSSlRTj9WKwpfNyQScjLVSArY62Fna9ZOVkU01NDbW0tlHlgQPsLhg/cSK7Cp5//nkGnifNmk19evemij27KBgIcPVMMAew3Pfs3cOAobgYqZulDAwEE6S3xFapvfYYBJfWI8JWgyKMZw3T7l3badCgQbzvAcw3rFvH1Wfra2voUNUhZhAA1jkw1odgUxd9vmwZMwiFvUTWmADpqoBTikFIRt32GCBAMKLQEGoMxPOr/+1vf6NzzjknYbnlxx57jIYNG5Yw0yGZh8HYIJSAftWBKof4DDQwqDIEQ35ZR7Isih0QHBOAIAn6pUs/pdmzZ5PX66Y77vhv+vG//piefPpJuu6Gm1mQxe0N1xOAYBdOMlkKAKGltZX27tlNe3bv5EqS48aNZ3rzhZdepBHDRtDW7VuouKiEjjtuMhfZgRCo2LOHhg4bRukZmfynoLCQaezo6EVQ2g4AQVlVWoEkaYrKEE4fdXV2clrerl07Oetl2LChotmQbEgkUhPNINpwGKmpXbRjx3bKysqmFSs+pxNPmkHDUD00EqGmllZqbmlhGvlw5SG66JLLuIoi08Mxgrbs0dwqHqK9tZlOPmW2qFtBEWpraaHGhkZ2fYwYOUrGaEgBGI7QkiWfUFtrO82YNUtMkUbpC7VlBwjxy2sbAKGykp555mkTILjctGPbVi6WVFzSj11BoJeh/9esWslW6ZYt22jU6FG0ffsO3n/FJf3JhwqLqlGSAfKEO4TT42xAwCD8bZ97Pch2AhiWjBD7L5CxIN6uHjyK9/fAgw+wBX/VFZdTn8JetHLVGmEVFxfTmLHjmJWJGaaIdweAwMF/GuCCD132YrDLFqb1uV6DmwszwcW3du1a+uCDD5glu+q711B9XS2NmzCJPJ5kXQwSIBg5/3GChdWA2H3jtmTrhIIh8nd3cQYKov/37tlLvoxMBuP9iopYjt7757tp3vkXUWdbG1XVVNP0E08iNxuAIerTpw+FgyH6fMVyQho3lPeg0iHkYvkbkpUUJZCKNVaDQUAsiT1oV7B2a9auoZKiYho5agS53R46eGAf3xt7DoCrpaWRgQmYBYA8APhAIMjp+Ui/RPC4YrsASjlIMULsCsvPL/iy1MHX8j4xAUIs5fZ///d/nNKCmgBIR3zttdcINQLUsXPnTo7WRwliFDmCnzvegX4F8Iejb8Nnn31GkydP5poLQK7xDiclig2HOgIoQqRKPKPhE84FtYcCRPBfweLDn5NPPjkuyIFwgyWrqD9c56677uKUSPb97tvHlC8KOtkPfXywAFFmGRkU+qEHMeqMi9Pcf1EGAdeEdY5UKxSzCQX9tGLlSpo8aQpT1AMHDZGVytSGdpj9IwEImiJEDAIs5O4ACs6ECfIwMyONFT5qX5w2Zw4V9u7NQiDN62GqF4Wdqg9XU05uPmVkZpA/EOBsklmzTqaysvIofBC7UJJ8nqhGRUJdIk2ttaWFO9DB8kadiHffWUgtzS101TXXUh4K/cjobghOuA0ghPBeOzu6qOpwJY0YMYJBqLleXJzB8sgjD9PZZ51FNTVwXYwVWQxOGSi2UrhQFw0NjVRXV0PDh5WzJcS53vgiHKFuv5+8Ph8HSrLbRanESITWrlnLAAFWoFPpnyMDCC46VHmQnnnmKbrrrjsF5HK5mckA1exLS6d0n4fq6uto565d9MrLL9Itt36fWRQ0ckIflKrDVeT3BzjVmH8PNoaVuoJrqKSoAQS+h0PXSTl/XEkRrAPHBrjJ43JxKuaq1ato8OBBzJTh86A/wHMHN8e2bdvptFNOZjahprqW6urrOfjy/Au+Je39GFUNQwEKq+qFGkCIRJCeao1BMPQyfPwd7bRj+zZqqKllF01tQz1NPeEELtg2bfp0CgRDVFY+jLwuuK0MZ1Rs8WcwCCpTwVYBk101CuaoGAwBIhCMq2Yaa6izs4NZLbBS69at573Yu29fykxPo/Xr1lF2VjbPD2T+2wvepOy8XDrv3Lnk9bippvYwM387d+5mcFhWXk5ZmTlGnwuz1LKtkiIjN82FxMwGMslM0MVQNxymtWvXsIF34oyZlJWZxQA7GPDTKy+9yDEjg0sHsu5g+KOVw8fcYn/60jM4fiHgDzJw4UBeuNYirhRASAKyOAIEWP9QtvAnTZ8+3aIAkRqIioAo5oNGSuh3AKULhYm0Pbws9DwAe/Dss8+y0Ix3/PjHP2aAcNFFF3FPAgjXm2++mX+bCCAgfQrCfObMmbRkyRJGvAiigbJ5+OGH+eciXYeMCpC4D5Q88mgBQvBbFDtyOlQJZMWU4FmQN/0///M/9F//9V8MDiBYAIoAGhA0g9oIAB6ob4B/IwIe40SfBlR1VMdf//pXrqiI0tIqvVN9dzQAQlSp5QjRq6++TGfMmcOpVeiO+cPbbqPDhw7TvX++h35zx28TZzIYdRD08K0kKt4Z6YQACBm8UaGA02FtegRd/9ennqSLL7qEaqoPkcuTRmVDhvCa4gC31atYuUKowseIeZw373waOWIkF4xW2oX/xilgCUotG9JbCSQIqzROQ/O4IxzvgNS9ru5uVsRYY42N9Zzbj3d1wrRpVFRcwsq/ob6Bew40NzfSmDGjJcCRwi8c4RiLBx58iC686GIGzJdccrF0gWgxCBpN7OZsAVO9gI6ur6uhmTNnGOlj8fYF9CYo2eXLV7ALacoJUx1BcE8AAlxPyBaAe+XgwQP0t2efoj/84S5ZlEZYa2heBiYF1uVHiz9iVwLYwZknz6IpkydTZ0cn1dTWsIsEVDDSf8dPmMjxHQyU4wAEBC5yNQoZ6GlOj0y/5Jz7ELW1NRPqlQCAnHHmWaxgsDeLSoqYGn/j9VfpuIlTacu2TXTeuecxbY79WlxcQgcPVnJQqoqNgYkpyApl1cKlhF4MaqB60B1wjgkQdNWMs+GGAquFKo6oLomA0hmzZlJ2Rib96e4/8VydMH06VyXkiE3fWgAAIABJREFUgN0EgluwLHDDCKUvmh057UPVbFtdEBULQb8Dnwpgtn9/BTXU1dLJJ89m8P3uu4toUFkZuxvfWbiQ69I8+eTjdO2136Oqqkr6+ONPOH5j3do17H3DvPXuU0QTJx7HqauKs2EMy/Ol10Gwsi76Y+rMmSK7kMVUX19LE487jnLz8jkttV9xERt6re1tlJGWzuzi5k2b6NQ5c9jdgblAAOWbCxbQ4sWfUEtLC7MNCFTs07cvnf+tCykSROxNikFIAh84F0qColZKFQpW70aIf6PqIEopo/jPnDlz+FwIc24+wrm2bq66iJoBiBZ2OtATAQoSCh0KFMIXQWo4QMNBecdyYahNevbZZ9Pdd9/NEe+XX3453xcbbNmyZTwuFEZCq2j9OqjsiAWOIJvc3Fyqr6+PCg7SLXuMB/OBvgloAAU/G0ASnh+KCiwKBA1SbgBu8Bx4dgArFGBCNUXcD88J4aDGgpoNoBqBzMGy2Gs/qDlVc9dTBsEOEJBz/uAD99FVV1xBg8qG0NlnnkU5+TnU3eWnJ558hgvHcFqcJp2iqNaeFErSX7oGEDgGweujqsoDtHPbNhowsD8NHzmSPl++gk6afhLt3r2dRo4cTcuXLaV+JSU0pLycc5qbm1vZyoHA+eCDD2nM6DEMwsiNJi+qyE7PAILR7tqFQknptHnDegoF/HTqqadZYw8YeGB9i30BxgFrBIGBSAP7bOkyTs8EQySKPonGYqFImN5buJBOmjmLamvq6PU33qAbbrxeukCcAAL81KImh9BNbs5QAPgAQFDpXPb1iVMFmHVzHwpQ7m+9/Ra1trXTuXPnsqK0Hz0BCGA72MUQdnGsxYsvPU+/+tUvmbXgbogRohdeeIEWLnybm5WhzsCkSZPp29/+Nq1ZvZqL6YyfiL4jfdgNg4qKXk8a+4cHlJZi8Fo0RjSDYAEI6kwJqlR9hq7Odlq7ZhXNnn0yMxkbNm6goD9Iw0eM4sI9L8yfz+XROzq76IorL6ePP15CzU1NtGPnDg58Q2YBpxpyMT+nwuMuCRBkoSRbJoOexWAHCFDTnZ1tXKp465bN1NLewT7z7MxM2rljO/39ub/TT37yM3KxawaKXlsb9lQKXhcqjkWMRbD0DgDBlsWAdasDBDxra1sL+TvbuAaELy2DaXkYfatXr+JYAzC6g8vK6ZVXXqMf/vD79Oqrr/F+G1o2hDZv2UqzTj6ZBiFwEEGa8t2ItQvQhiBFvS9EEgCBSzq7ad++vVR56CCdOH0GizLEG6WleenA/oPMWt94ww1cg0N02A1zKi3DoQgYghAtePtt+mzpZ7R+w3ruMIq9cf3119G3Lv02ZUpyOuViSAwRHBkEFC4CvY7iPjigiKEUUZpYHfA5QRFDKMJyB1iA4AJ1CIWPqoKwkhMxCLCsValj1SI6maBCpZRRPQtMB+6jIvUBMDB+FC+CUv71r39tjBsVFO+880566qmn6L//+78TghAIXpFj6yIwKyiwgmAesCjo1KjGiuZM+ByAAO4MMCxgB8AwQLnjGdGHAWABbgtUVEQjKwgtXB/KTvVg+KIxCC5ZFld//RB58//+d1q27DOaOH4crVm9ku5/6GG67vob6Ikn/8o5zkbDBvnDowIQHJo1hUGJU5i8brRZJm4bHKQIDS4dxClnI0aNpjSPhyJIEfS4af+BfdTS0sYU5qqVK9hF0q//ACM2wPqcMZo1GVa6hoCMKnSikuKObdtg6tGJJ4lgSPuh3gvWxIrly7mK5s9/8QvOCUe3Tax75NWjlHf5sOHU3dnJ++bXv76dq8598P6HdOPNN0YzCNqN9Kh86Immhgb2Ew8bPkykesbqF4FgLopQTXU1W6iI5B4wYCBHpwurzmaXgs4OqnRQCUli1UJwoWsjenZEaN/+A/TE44/Qb+/4b8rKzhKFkkJI3YzQzu3b2OcLRuGvTz/FVDSodfQkQYAlwMJpp55GDY0N1NDUTMNGjOA6AHp8hGOpZYduoMICFr0YhMUZ5rga1BjA3i/s04dpfwCa5pZWLq7z53vvofHITumP6PwZ1NXtp8amZlaaefn5HO8SLwoA9Lbo5miv/y9iEETgpd2TDkUZ5oBcdL6s2LubgmG4+7po9MhR9Nenn6aTT57JBgtAC0AVlL3o8BjNJYjxyWqT7JoRKcQxC5aZCMLSrElUBRULb+P6ddTa2kKnn3EGP8Mrr7zELtryIWX02huvU2VlFVVXV9EvfvHv9Otf/xcHxF5++ZU0euwYAUz5oeF2IwqzgkdHRqwvxNogqFOBF+dMBtSP8LDrI0LBSJgO7t/PQOr0M+ZwrAbkI/YV4pVGjRxNaT4Ptbe30e2330H33HM371U3ukGKWssMcuD6ePzJJ2jF8s+5LPPg8jJepw8/8pjJIKT7KD8P+yN1xJoBR4CAWAAoNVT4wwGfL8oDg6oBzQOLF5MNHzwoUFDqiDuAkEAMABQvrPrf/va3XL5YT3uyDwRKFywDKhBC0UO5wn9kLW5h/gr3AAAA+EAJZ/j3kY8Lq10EpwS4RwIoT4zfTtcDINx0000MbJKJc4DCQuVFsA0oxwpXBhYrAABAwuHDh5lhAeAAUEJlRgQ6AYVjfDgfmwjjBQOBecOY4abAvGLe8PxgZVTnR6eX9UUZBGz851+YT+Vlg2nmiTN4rA889CBdfuXVXEs9Ia/JQkD1YkjCxaAeIgog+Hgjv/Ha67R503q67tprOSUQpbH79x9Iby54k1OvLrr4EhHnUVFBjY0NHEAGa0Gk54W5fwSsekMgyfvF7OYYByCIOghpnAve1trCAAT54HivIm5MtRMWN4HYxtrfuX07lw/esnkzB0Ih/QvWcXZODgX8frrz97+nX9/+G14vAN2FhX3pqquvjJHmKJS0tdSymOeaqkPk9rhohGwY5riZOSahmzZt2UwfvP8BlQ4aTGedfbYUzg6KxkUU6gFAgIsBBml9QyM9P/9v7DZA7xOwOpwK6iJ+5k8Wf8y1EEA7r1q9kp99+bLP6LobbqAVy1dQQV4+p0W2trfTKafNYQBjrYng0IvBofEWKzjVrEk2DarCXvS6admnS6igV29+h6tXr6GRo0Yz1XzmGXM4mDMvL58ZPbgjyoeWU9++RVRWPpwLdsVrWhYNEEw44VTeXMXjoz7Elq1buP/EonfeRm9p3u852VksU3/3u9/SdddcTaNHj6X16zcws4K1hzWOg+OgfMjtF4foeCkzBAwXW/wgU9VSGSyFuIZyUIhCX5BjcKuVlQ2hNK+Xe9QgawDMQkZODtUeruR9sWDBAsrL60UTJ01iwJObl8t9JQwWg68tGCFLu+d4hbjITT5vBtc7QXXX3bt20rnnnkOLF39MW7duYdnOJZ47OrgGx7SpU2lA6UDyetMoI83H3TDxTvFMcC89N/95jvtBdgqYvSuvvprGjBpNZWWDmSVBmiNORtAoniV1xJ4BR4AA3zmUGGIJcEDhQ7lhUcNnD6UGax/5xFhYsIKR1QCKHX/HZ2AbwA7AgorXzZFToWR5TyhXBBiCQkKrZKcDCh8ZCfBvwprHOABSMDYIKljssOLRCwHR+nZrHFY+4iSgIFeuXMnKG4oHLgSn45577uFnghJHXj7+q7IklDWHPH0IG7g7ED8xd+5cjk+AUFKBkIjpUNG0cK+AccCcAhjBPxargRNvZpeLAVtbW6tDsxhTbKjSqk7dHCHBn3r6KRpcWkpnn30OpXl99OOf/ZjuuOO3TBVDOCQ8ooIUtQjlWD+2AARZB8HloYVvLaDevQvp1NmzaOuWrSxA511wEQugc885h9o72vi9oNwyxg7GaED//kwltrS2U3VdHUcxQ3BwGpkUeKiVz+2eDXrVllqlggN56LLtLBSzK41qamvp9ddf5XyPadOncQGpwsJe3E+A/bbSekclOdDmsAJz8vJoyaefUm52Do0aNZLXyOAh5ZwXDjYCv0HQ3P333U+lg8u4Ih1xqhzWvT1q2yy1bE5nhAFId3cn+4mjXW/CD420M9Cpd951J5155tl04YUXM10tKmRGH9ZCSVJlxGEQyJ3O7oTmhgaaP/856uru5EqJQ4YMpuysLN77Kq3xk08+Zp/0GwvepJkzZnBs0tBhQ9lfDRB88sxZtGHDehpYOphKB8MFac6DM4NgnydTMXtlBUzs+5demE/nnHMWGwqDB5dx0NrSJUto+cqV7HLEvh81chQHVCIDBuzVokXv0rq16+iW7/+IMhEEp2IP2BrVXFdMUtgZBBMoiz1nr4PgpnAwSDt3bWcZNX7ceM5qGTlyFFeUfO3Vl2nK5CmiUBl6kbhc9NDDD9HYsePZAm5qbuRiVMiMGT5shCx6JeI1QhEZgxAvzTHqtSOQT9RaEPvFXB8I2ESGE8rOT5kymfJy8ygUDLCbeM7pc6izs53rgny0+BMKhCO07LNllJmRQXPOOIPjrPLycjjziItzwcUGECMLEpn1svWUR4V2RNaJx5NJO3dup1WrVtD58y6gkuJiDnStqauhyZMmcYA1XAJgnBCX9M47b3PjsLnnzuMMDDCgcKVt37mLFix4iz788ANuKDV23Bi69vrv0cIFC+jWW3/EVWPDSKNFa/I0dM5NZTHEk/uOAOHtt99mtAZr235gA11zzTUc6AeGAJ0BIQShbEGtIjgR34FKB5BAMFyy7Z6TcS1gPFCWEAJ6bERC5WY7AfdCYyQAISBldK1MphwyFD0UlzoXjAWugbGAJQBgAcMCxaUXPnF6NjAlCKaEOwYxC/GOLwoQsGWR4pXu89Gtt97CaWnf/e7V9JeHHxEMIMtCI1LMmVGwMwhxrQJNABi+SQEQXG4fvf7aK1RYWEDz5s5lcQXrPSsrh1544TmaOm067d2zh9MfkSKI9EYAKBSW2bljB1VU7KN33nufgdXEiRMoPzePi6YgOM8stayqyCl/rrXwDjdhkpSkiO5O44A10JNl5WX0+GOP0ZlnnkGTpkwmT8RFBQX5VFo6SAYHwB8tu8e5XLRw4Tv8/eTJU5ienXPGWWy54I5gjLZs3EDpGVm0fNUaOve8s8lllOtNBiAAZ4SptraGcnKy2BXFLi+W8m6+FpiUQ4er2AWG9MHLr7xSAIl4ZXd1JaNURhIAgUJhqq+vo8efeIKZnRtvuJ5p+3RZnx+XCgZDnP725FNPcuGhLZs2c7Q+Miow7u3btnHL9JmzTqax48Y7AwRejhpTZfzV2uDK68lixYnaGShlDIDR3dXNDA8UVbDbz8GQ1TVVlJ+XS+VlQ2nfgQoaPGQI9e7Vhyr27afn/v53KuzTl5Uw9vGQ8jJeW1hPoDcM8GkABLWm5KC45ks0QMAvG2rraNGihTRy1EhasuRTNi6uv+EGVnYHKg9RbfVhdlscN34i9endh+ob6+i2H/2Ipk2bxjJk0JAhDFwQSIkCYhwfYa+DkIzwY2AMhkpkMcDSPnDwIANw1EFArQr0yVi/di2n6eK9QfEjDbCurpaWfLyYDh0+RG8uWEhDyso5cBctvisPVvK7HzFiOF1y8aVsEMEVptcbSAYgeL1ZFHGFaV/FXr7mcRMmUnZ2FtXW1VFGZiZVHjzILArAFAwDzAHSQkMh0eUNbwKGGhjI9957nzo7u9kgKy8fwu6SWTNnUW4+jAkVG5ECCMktG6eIJw7KEoFWPT3wkrB4VDfGI7lGT+/5jzofVgtcKUhtUw1MFChQ8RAsx49gHu3P1FOAYC+UhNTB++77MzXU1dGvfvWfXJTle9ffQI88+ihbUoi0hqKRcdGmTc6WuByNDhD0fPQY1ffMXHZliYl2z2AEVq1cyV3+oEgRqAkLHFHQG9avp0nHH88bHr7khoY6Rvld/m7ujfDyyy9RKIgo/WU0YsRIWrlyFQNZKJ+xo8dQZnYWRZhC1ErPGr5aLfhLn2AudCMEPCw8WMAbNqzjSHu4PloaG+mqK6/kaOrVa9Zw3Q7EviBlCr71N99cwNkN8Gv/7W/PcuDWwAEDWZEjx/39RYtowKDB1NraTifNOInbPUdXUhQDiqoMyGvHxQChsa6WysvLmJZWQVlojoRMlEUfvE/19Q102aWXsYtDIoiYW8O08HR/eiyaOkIeL+oNCNsTv91/4CA98fjj7Ha6+eabWAGKapwIEkM/jBBHvv/uzt8xu8f6Hl0IQyGe3/cWfUBzz7+Am+/oMCm25Sn97TwE8z163ZncX7GpuZVWr1rOwBfBgB2d7dySGnnyc+fNZSOgb58+tHL5Mg4aPVhZSXv37qPKQ1XcgRIBbZB5AFagt7/1rQupb3GRhYFhBsGog2BsCpE+KEstGxJTZgkgwBS1WPz+bq5bMXzkCGbCUAtkyZKlnGq5dfMmjj1A2m4w0M0Nwk6fczor3qrDNbR8+edUVNSXi15lZ4lYECOLgdMFY1Qp1N++VgeB40V27KCHH36Eg61R5AosWemgUiovH0olRUX8y9PmnEYlxf2ovrGePvn4EzaAikr60S233srxAI8/9ii9/NLLxl3gir3/gQcpPz83OYCg9WsBQAjjf+Ewl29GbQ2kqcJ1gPgBMGH79uymnJxsDnYFEwz5AFfyjJkzqbvbT9t2bOceIMhKA6C67LJvi/ibcIhGjxlDPg8yTWQhrhSDkJTa7HGhpKSu+g05CSlUCNQEEwFlAHCgF2k6mtMQHyAoS0ZYV8rFIKxMF1t0q1etpJdefIGzNu6593+58xrowjvvvEvW7BcAQQEbYWELhSAOCGjVi0H73N6UST20pSSjEKaqFwPo1XAoQp8tW0oL3nyDSgcOpJLiIho7bhyzBqh/gPs3NjfSzm1baejwkbRy9Sp6Z+E7HHm+b99+rskOejbicjPIWLNmNZeMRllV0YvBBhCirGldLbllO2MRL88COBjgAClkUGzbsplGjRrNlC8yb06cPp1OOeVULssM9qi6uobmnHYap8nBPZdfkMedPOFiGjJoMLtH/vDHP7Il++3Lvi1LQdvjAgQ0s6Y5iulXZYcrKnaznz83N4fKhpRRRnoGdQe66d7/vYddHXPPm8fBdmHmLkx63GkdYnoMmlqfGwewZ6Y5qvcuxrpn9x56/InH2LKDa23EyOEMXIgQYBqka665jv76zNMsoGtqaqmy8gC7cVAjv7a2jq697nvcjEt3MIheDKJWvuNh6VYIKzKDU12xxteuW0svv/AiTZ48iaZMnsRrFgABVwIr1L+kH61ZvYIK8ntRCwr/VNfQzh27qKhff47f8Hd1cuwQGE8AuYEDS0XwrtoBnLYHOGJvo4z3BuWju3NEwByCbBGkyEGHrNhD9N5779K777zDMgOAHRUBkYbZHQzQ0LJy+vblV1DVoUNUVFxMDQ1NHJOD66AWCAIEsTlCRiVFEYJq7FWjIJHOwChQJRg8KOFtW7fSffffzymC2PMwcOAWxh9Y7nBt4J5Y/0iFXLd+I8d3gaFCOi/iT1auWEHbt21n2h9ZRdNnzqBvXXA+ZaYjcNSsWBj1Hh3WGANjVF8Mh7juyZZNm2jd+rU8LvSpGD1yJLcTh6sDcnb/vn0MEvYfOECXXHIpHa6u4WfaW1HBLmqwDpMnTeZAXbAaaEAlm7WKbKQUQEhKPaUAQlLTFENWgcIMBlkBYNF+EZdHomHEBQh6PXYNIAh84KKqQ1VspaAWfEt7G8dIfPDhB0wzTjpuEle24+fg9FYoxyBnDYwYOYIpRggK0YfA3qxJE+L2TR/Va0AHCKKnASLg0XUN/uhDhyq5JgLGm5ubR8dPmcKdAVcvX069S4rp/vvu43rwsE4hqCDIkHIK62H9+rV08y230pQpU7kEsQhCsgMEJeVV3IGulgSzITynVsUE0LR+43qOk0AuO4JOkXuNGgywPBFMO2L4CDr77LM4AG7d+g00b95cdoPVN9TR5OMm0+uvv0F/ffqv9N2rrqGzzjrTrKRorxbo0M0Ro4FvmvPyKcKBvAjyq6qEAimijZs2caYOLCTRfIioOxBk5XP81Ck0tByFyqKdDVzSONxhMg1KsSToxWAoSy4u5aKt27bSIw//hf3RP/7Xf6Fhw1C8ysNU7g03fo/+7af/xkWMlq9YyX5hBDkOHTqMY37gVisdWKrNOYegkmgT7MBsRKXtASDgvQn/c2NLG61csZw2b9rAwabjx42jOXNOo9q6Wm5vjjFigpqbWii/VyG7EJYu/YzOPOc8ju2RLDw/Is8lg2ItvgUAgfkKCZg1YCW6OdrjPRjdRbnrGhobmXmikMi4ACuEwOr6xgaaedJM/kFrc4twcXC3UOIMp379ZNtz1YuBUbxMTVZg3gKgNAZYq1iIT5F1s27DRtqwfgPLhf3793GDMtT24PojTNJEKDs7h/r178eZHi0tTTR06HDKzEwnn9fLRZRQ9hygZczY0VQ2tJzSfSLgGe4CS5CiIeBU0SSr7BAAQYLaCFFtXQ2tX7+ONm/ZQnv3VNDECRMoKzuT9w+vGQAYxNh4RKfQF196mbZt3UY7duzkeB2cM2rMGGaCioqKzXnSgEsqBiGR1oEYjeFiSPzT1Blf5gwkCxC45rsrjS1rFmPhMNNwaWk+em/RIs4PZ5bDRdx9D9/n5uazlYNAN1FoKMwlhOHvLsgvoBtuvIl6FRaYAEF/8JjuBWVtSmHKFKdSxOICQnwhL8rFhbkO7NtHu3bv5rKtSMcETdje2sqKELnMn322TIRWod4F1+fwsp/04ksvpVknn8JCCxXenAGCRp/bwEt0G2o9SwOpW8L6w1A3rlvPPtlAdzfXGgBVi2hupPLtP7CfGQz45Oeedx7PeWNTE1PtoEb/+D93U05ulpbmaJlIZwaBiEvgbtq0gVMY4TfGQNBqNzsnmyr27WNLt7GhgWMVoFQAZDKyMuma667jgkAALnaI8MUBgrgiB4bt2EH3P3AfZWdm0M033UTjJkyk9DQfvfnmG7Rk8Ses+OobmhhMgXkZOmw4By1qtR819aFH6KuPnZWKYMtEgSKMBcwJFFtjQz1t37qFli//jFpb2zhO5fx58xgQw8+PSo/PzZ9PfYr60KaNm2kuim6NHMXuBW69YVPqxj85BiFgutQ1ds0apGhdP+ZTCBeeSMcTra3BuOBPdW0tdwnNz4OfXFjS2IP4Abo+IhA0ryCff4arG1kMTOYoZRunFoIBEESdDbhLAD78gSCn0sKFVV1zmKl6VvCylw4YA1Q3xdx0tLdy8yNE/wPMg8ECgEDgHx5JPJ1Kz1QMgr0Gh/4u5bgjHiN40gCgcm727q1gFgPBiwiiRKtnuByvvfa7HOvV3dlB8198mdau28BjAPj0d3fyd8h8AgsjV6qxxhRwSUvL4PlOHbFnIAUQviar40gAghJTKDMK+m737l2sSETJYBFF7/cLa1OkfArfrog/EYVHgNKnHj+F04NQSU50kbMJbvscRll6EGJmu2cR9iWBg5LGkrUNR5Cx0UXLVq6ghW+9TevXrKbc3GwOTIKi5OI8shjXmDGj6OabbqEx4yewxepCTmK8ds/GsK2xCNEAQQcwkqyX/CTOhRLmSqMH9nML3I0bNrIvF/OLwE90XUQNDKSMPfDAg/TWW2/T7bf/hstaIw1TdJt0jofQCyUpsY/Yi1WrVrKA3L1nDwtMPCjAEdgeKEFQqggSHjZ8OA0pK5OR/KXUv6SE/bfmnMtn4/LEHXJGNKGdJIOgrQBWymAxUH4Zyg5K+Gc//xn9/nd3sqV822238XtDE5/yMlHSW601tQrM6yn/usMa0+dMRu+b7jSVXCfUORQ9aHpY5mBwMC4AFCg0xCM89sTjVFLcl849by5Nnnw8ByVC6YmUbBXjbzP+uY+Gih8xIa64nx6kqFBGdIEqfavYI7zUrChAIlxL0etEAAQ9iyFWHQQta8DWi8Hcgeoe5nwze8KtvMVMIAiUs2G4WZl6bg2UWJxEas4kQODT9WdwAOoWgGCVDezyBHN24AA11jfQpq2b6dmnn2FmTAS/B6muvoG6ugOUk51D3778cho3biwHpHq9Pgfpjuqs2H8hSvNlpHoxJNB/KYDwNQEIcGMgzRG52mKPWoOkhL61xiCoR1PWr/oZNnuYI+k9TNkz+ofS1cheDjZjARFmupUb8+kuBqf6+E5AQY1LujsUle+cJqEu4Ca0562prqHmhjoOfkObanQunD7tRO5AOXRoOf996tRp5E3zcsS68LwjQC5Bu2cj1VEUmVF1EJyKI1kfyaSMoRTB1mDuoKARIIjUP7g/nn36aU6BRJllxCegzPKVV11tuAq4WZNKc1RSWAZSqpKzViNW9HRApkdndxfXlYf1mZWdw+8MpYtRvhq16uEPzsrOlp0KVXdOuyoSQj4MF4Mh8OVfewgQlIIHQENHv9feeJNeffUVmnbCNLrp5pspEopw0yukXAoKXylf5zJAIs1R9WKIkRYnQ2kFGvSxm8EwrfU17BJldw8drKJXXn2FNm5cz4rmhGkn0ncuv4K8Hg/1HzCAcrgan0j7E778GPEPITRrwr6Jjh+xpzla3p+tsZNSu1aHlsxMsYFnrm5qcx9Y6iCoNMdEGUXSfyJiXKwQ3ZATso+lGjtXGjWYPgEkbA44c/WodWzEQGixJHpchHEzuSZl3wi9y6QJz8yRsJvM5eaASmQ5hMIRQlXc0aOGc4xCn75FlJbuo+KiflTYK5+jrp3eIqYhHO5mgykFEBIrvxRASDxHX4kznAGCvgVMK9C5aEv0Ywhcb7Ul9LPMjaqUh+xEyBter0XvoIA0FkEIGlj+yEgSvv5kD5VNg5LGba1trADReAfFWbJzsrixkz4LMZs16YI0CiCISoo9OewKXEX3+4N+Dk6EZY/gPBQWmzhxEmXniMhuBmugqY06CJrFpMUgWK8fhbyMBkyC1lVRBuKq6tBnWbfLlDKMGABB+8WRAAQegqDF29o7uGVwhi+NA+8ARvGOAEgBqFD5D8JZV8JWm9FWKMkpCNZmkfLa4hgNSd8rRYc0UC7i5KLm1lZ2S32hGExxAAAgAElEQVS0eDGdcuppnOcP4CvmOQYgsE07t3tWKaoWpQeg6DPcOIhbEYf2nPJe4nN5V0urctPhYrwNeRnBuGhv04UiYVy3UFZSVCm9CVYwz1u8fq1yLUkPCLOIaoxGxcb498B7EKyDNGIsQZPiM14GRjvvCLnCsv6Hy2wrpmbPXMzMEbJLC/sKFcwaG5qou7OLCgoLyJeWJkqRuzyyQ7vcaza4h/0CBiEFEJKTdimAkNw8/cPPigIIhhSx0XccYOUzewnoXdOUINSCGlmYsZmAIC38JVpQGQ/PwVGgNnX1lWyzJmxvWSjpSGbTqDWvhCXqEMhGP4bQZTUlCiU5HXrgoqYIBYMi0i+jD7tqtatfNR7l5ZeBVnJsEGhQkCzwWDBCuOsAQbujQ5CidTyJYIOz7Wt7W8L+NlwMtjK4rCNs86B6Mdg+d0o0MGMdhX2MlENjvbAHyBwN38Wum106g5CMwpPzb4DW+OATwbiowGeybeLdmKnIoNLNLAWTUgcpI7MYLJUd1UPEua8EL+Iewg0WM0vD8sjx37c1jVjfhzr976Co9XtY0pXVq1clnPVA32Q3rbx3lNyxuxbU9XAPLwkGQcFb2YJNPr4xC/wXOYdg/iJgQkUhNDOLQzSoYgbUtpI5CJKTsbD/Us2aknmjKYCQzCx9Bc5JDiAIYQw/OdC/EkjCCtdrW4hod2xIe40Gq/hWClgpY2Qx2CsuJgMQhKDBmJAOZuM9jmh2o/SKFAYcpKd3c9SvHgMgCGEtGg85+XzFJayWlzCaRa0QRcUKy1F+JgsxwS2DWvPidAXmZHVHu3aMIBYkzVL9U48hNi068fROiSM2W1MqP7Eu1LWELkUMggR7hpIQ2SVOAEEoTU3kmnmwcoaTsMJlSQ2Fw5zIAaFA5TxKQJLElcUYHFMjHX5tp+UtDYXkO5IKTuwPuZe434V0MeiKNS4DYQcOOkCI92SKEYwfx2DOV5xtZI930asv6mveWDx2gOA0Btu+jxFTY47KARhphgqyJKDwOYPCmM9Y4Fx5qlTwsHUeleGgZJllnXHHzBSDkKzQdQQIsRIbvhYJD9y4I74VkezkfJXO6wlAUALWEJgG6tY2kqPPUikuJfNNpShyrZ0Ems0ysFgk8j3oQYuCX5TCXHGo1up4RzbvukCNEc0t/fxCmUh6Vv1dWnZq6ShZKVWxw5CkwFPCTF9yhvVkCx5zaDokmu0o4ODAzFiUsmbhHdkkxXiOaMYgCn1IBYyMjV69+lBXdxcFA36uKoqATdQPcA68jC3kjWc3LHZbMSQduCj2wqQoLM+Cjo35+b2os6ODgRCPq62N6xuwErUHzjq9i7hzmiCQ0wJQTAXrdnmpV0EvCgS6yR8MkMft5TLipg5U716AOIO90J/T2DNqX2r7xZbiHOu9iV+qcbk44we0PFI/AYw7uzqpo6PddCkYz2PueaP6qJonXYZEAQQ7wNHWAReRkk2eNBHBpk1aOqdPIpYHZZ8xJhS9Snwo5kKe6agDrKZJKgYh8aw6AgQoI9HyGX4csbBUG1tjbfAXorQtryW2WNERUH5i8a/hDJl2F/V57EFaKWSTBtSBio1MI7fXw21UEX0vt0SUxxvFglCAA0JEFTZCBzpEMcc6ou4jW0vbz3eybOEvFArHDlzU/IqrGMjXRVERuMkBBIuWUjuFKW5Rk1+MAjXMTTov8SKJPkNmC0hr2aQ61dOL52KLPIqOFcPgcsGcrqi6ZZIclz7Tuj1s3dyGwDMGF0MgWSw9M5DTEJY88bIfiMvDhWBAWyKGAOVw/YEua/8L/X7GCos1h4YNI0+I9wwO4wfrgla38OEjmFT2LAlxup2uWI7wHfIGsRX9Uc9kVzzyXGS75OYWcDc9VbcCwZjchyFW4CzPsbk2jNEq95ahuDRfehSo1MapAwqxczhPv1dBIfn9CA7t5r3d3dXBwIVnLi5AiGdQKMVjW8uOAFttOZOaRxvkvNx8zszBHKFeCgez+qUbzAK6Hah9AyiI5zSXn5XpENMQIxbBzpy5iNc5WlxjTKiiGAj4Ob4C8yelkZP/R247TavH3AP21FRtL+vbWvu9mzxcVwHBuJindF8adXR2iLiPePOt7WFj7E7n22prpABCYrnhCBA6Ozs4Yj6pwxCu6GVuDRiz/F4KHFGARNGtSd2hRyeJYjHRdp8uAt55ZyFHwaPeuOq8uH0HmuwMtu4/la+stgr7qkXKD3KBEVEOpY/gLKX0hKXt4toDKNWLCmoiZ1lu8EQLXSqB3r37Wp7bMUjRIijtlJ8ZRJidlcs5+aJtNQqL1LFgUK4HK6VsKmj+noUraweFL0xLR43QLswdqHOzcJGgsdGOGKmL6EcPRZyenkaNjfVSGTuwAbogtSg1J1Yjzlzrlo7F0ifKzEDQo5ew/pEihZS41rYmLocbfdgFoP0MJew1FsESzW7OqwBT2jyrtYJOfmkAstk8Jrw7WFWYM1YwCWldp62jsTaxlEosRYMaiV4vFeQXUnd3B+fpYzzIrOns6tDAhsYEGMLbiTK3KWbdjRFrnzg+MwACLHWMq5vreaBsd2dHO1vupo5V/Tjs3mkHf42aGzvdHXdcar7NPQTGAMXGcASCfvJ6fJzdgqyUqMPettmi2OWa1t+Z3UcTBYJsIFJrDe31pHMdkXTZyRWWuj+gOkRiPqILijm7M7Qyz3bnoZ0FYTFiA2va+8T6zs7K4XcI2cPl+sNhwWwYIE+bB30CYzJC+j61AvT0tPRUN8cE2vWYAoRNmzZxtDACg2Ch44UEA0Hq3ac39eqNNq+IKBW95GG1iWp9SEOBNSICTdDqFClS+BxVx/AdqorhgL8ZSg/XBEWGxYT0FtCfSPvCAcAAawLXUX7YXr3ymWJTBxiFRYve4xr64t6GsS1KrboEJYcCPqjIZixRrvHjNha06sOAMaHxz5hxY8nn8R47gGA8gWblOAi2rKxcCgb9LETxDlARDRapeBBdgTnQndr1LBRjTwS4shQ1BZCVmSMUcGsLv38AmLb2NhmdreZfmhpRdKuDJRUtbZ2tjlgAIUKUkZnFlhWEN6yrjIxMamlt5PVroiPdEopheeqCO6pVsVw90s+uwJfVpW+CPaxbjKmjo42ZBDTu6erqoIABWmIBpBg73+7+UELbImxtlqiaMw6iBEjJYosYcyTmSykXeREekhbsyr9XPmhNieoshfrYriSjHkN159RCZTk7Bmme2VzVFAfWE8pSoxS1CYBtDI56B8aO1l1sNgCYiDEwHguxLGGZqYE6Ih6juRtAnWoAhaJN0UvWXs8gytSWezYBU2DMpdrPChQqFkTMF9ggrC+MC6yGJWI0aYAgb8bgRAcLMVwymjtNmB/KkBFJyshCQNO2YCjAzAbWmXinOtNlc0VZ5KAD6DRkmDbjERWkmGr3HENSiF3hVEkRnRyRb5rUEYdBeP3V17iSFV4yKnTBakR/eDS7QalcD7sBRDoKmrgoqxZ/Z7o9jIIgIepVCOrQzy1QsahL+pXwgsH53NnR5WJFA0GOz6DIcR7+jo6JeJ4hQ8qpf79+5E3zce8B1VwJ1126dCmPAeehEQ4KqqjgPbggcF2cj0ZUKKjC3/E6VHnT4u+KuTCIB7mmg2gvqoTQ0WIQgJgMqzqenxfWOrpPuplGzMzKpra2Fqb2xZBiJcbZhbrNKnRaHE40siF8NcVARBnpWayAYR3w2IJ+2S7YFgeh+2X1e1pcB3YlGSNwkn+v8sqllaQJDwgkdiv4/bzuYL13+0Gfy/K6mgVmJUl0ytVOSTtOlBW8xJw34Wry+SDE/bKZkI/BHtwMR3TEio/QL6ZZopxahrQ6zkiA71hzybhFcybrWGS9A/zCkNWa0LZ4jWy+dAMcxJgzscuM5EEPjAk31q/NNQjXjDxLVC2UiN8Yhk3xOiyfhJQ2D1FbqzJ9kwPtOPhXOGDNQwdINkCvTrKzZLH2WEIZYpUNrIYNdw58/zDEYPg4uH2MbaoYBPmcxlhiBSdyFLRGRjqcZ9uzqPbqRuAn4sbQKE7JIoMhVJaagyziYdneezxwaWNXcGVfWnqqUFICIXJMGQS0XeU0FPav4/+RQiSL8rhdIpc9W8QB2JscQdnWNdRTe2sbd85DP3W0dEV1Or3d8oYNG2j0qNFcjlQdaOizcxfyzydSVdUhqqio4LLBaAoExNzZ1c2UNhT9c889R0VFRdxxbu/evdxOFJXWUAGuo72dSgcNEvm1bjfntyN4BpamciVILWtkCdjztvDY3BxEKcqEm1v45xO6GAzh5Bx3gDQ2lVIGX7HX52MFDDCF1q4iH1+vZ8BvyUoTRy0eGz2tC7Yov7BF4/BmNgrDcNqcV1Z0DDJAgBK2ZvEbFxd/sQgX+8CSAAiGVa+EGLcgwtsRsRIsg/5/e98BHkd1rv2tii3ZKi5qrnLvNu4VjBvYxgXTSyCEBBJILiGkkJDkXlJuKqQXeksgf0gA29gU29jGBffeuyW5SbIlWcXq0v7P+545s2dmZ1crY5yQu/s8PMjS7MyZU776fu+nQ8+WYHIbISFrwU0lFAgve9TwOd/FMUWWt0eh1yiN4JnnrcA5rzAkMJzVRgtgfxwKKCya3jWfFh4lJKjNevcW/nopWbVQYuv9kjpxlpwpr5L5C95is54xY0ZrBFJAOVA5K8Vv45Msda0ATVYXMEeayNZKroX18gbV/F7YuFIaK85Li7oqSZh5B5sarVi+QqZdc42kpCRbQGWeUivU4I46mXlDrbDDYRG8JKlTEeNZdWsWS0ObNIk/dVziZtwu50vOy4L5C2TgoIEyavQoNTcap2UdOQcOxC0f3GkEfscoP/SSJw5cg5K3Navekfj2GVJWkCepU+ZJ5YUaWb1qFdMM066ZZmHN1H5TEVRD+YbjPHE9yxFp49hceAVDTqCHRt2aRZKQlS0VeUek1ZQbbEcQPT7Qd8E6ArJhw0bpmt2FctxAeLowNEbE0b1cDuNLpfSiBoLXnnb+7tIaCD4LgxDqnFmbTi2jXxITWir+c/CRx8ZSAMJ7U3nNBpm/cIH07NZDWrVuJUXFRVJdVc3e3jAYdGOklStXybhxYyUBuTTrg97h6L1+6223WtSpzpdev269rFq1mghndOebM2eOjB07RoYPH84e4jhQ+fn5snfvPtJ2woBYtWoVMQUwHsBA6E2uYobo1TPZfuaTiCAYYV83lWl8g18S6qpomdfFxkttbJxR4x8Yo6INRrTGpcyVRg6xe7wWVwss83sa5a/WOqGqXGL8jVIX20JqE1pbgsNqNCMiaJ2dmZlBXvfgT1OGS5A08LhHsBERA9bc4hNAbIk/JUMaLRrnajSsiYllmDqQbjIxBer2ZWXlAiMYrXh1iWP4+vYQB8MQmj5/rCSWn5WGGJ80xCZIfWKi1QQIESpFjx34GF6pK2XhDOmHWktLQwXligPRolYNVZLzvw9K1qAx0nrG7bLjzDn5zJ13y7wb5sljj32HXSu3bdsuWVkdJDExQdatW8fmSNWV1Ty3s2fPslpjo4RTOQJ2PtneLqGqWFyGl12e6JfCPz4ulbVV0u7EUUn97Zty9GiufPEL98vn7r1Hbrr5JqZgjh87JmnpadKpcycjp+4yNiMw2L0OglpJywii0aa2dMXPHpDMKTdJwd//LEm/mS85R4+zq+W0aVNl5qyZ0qN7T0lMSCTAswVkVpAX77FHrDFqf9qJ5/EAVhueNAiByPb5069JdddeUnNgs3T+8StScKZQfvmLJ7h30etk1MhR0qNnd0lslUDwsHo9IzJpp4k8QK1u50C3oHaAKt3Eaogw+eTCzx+UVmNnSMGKN6Ttd5+TBW/Ol8mTJ8uSpUukpKREkpKSKfOXLFkq8264XsaOG+ORCvFo7OVlIDhsdx+jhRof0rSq/L95xSUzEFDB4PNBEamJVEG+gGDiv60Nd/58qdTVVkvfvn0sRaHSDPDO8UEuHwbCjh07pFVioqxYuZItUWHton0nGnEAXIjvLF78Dg8fogrAMyDlgO8eOHiQ9xoxYkTQyiKigFbNuA6c43ge2sFiI5qfs2eL+Ey01z127BiNFwAbS0pKSf+rP/o97Q5wxnsHGQiOg+e96SKKIBi5PFtpWALUfypHWu5dL/FpmVLWGCu1/UdTkOO9kWIYPGSgvPTCi6QI7tuvHwU70j7AYWAOR48ZLeUVFUpGNDbKyJEjiRcI4BVMVLp+B3eaI6DU/ZUVUrPwRWmR2YENdeIm3yzLli1j2Pyqq65i2um1V1+TO+68nYoGQDi0bx49arSVy3VVH3hOmxbS4ZSh84stKyqlbNHz0nbEVeLLHiDLtmyTiooLMm3qFKmuqmHUBYDWqdOmyTuLF1O5qWodv4weM5atcsePG88eDImtW0mfPr2VnojIETXnK/Czr7FBGl79haRNukFyjxyR4+27k43xulnXkUFy1+7dcuTwYXp9773zntz92bvlmWefY0MiuIHYn2XlZVJ07hwjD9izw4YPJQNlwFM1JKUdJXFhUfwqgpHYUCfHfvqgJGV0lMzPfkN2nSqWR7/zLbn//vvl5MkTkpqaIkePHZehVwxlu+XysjKBAV5UXMwI3nXXzZThI0bIhnXr5a6773KcG+9lNPPwbgCcjmD5Je+FX0pMSb7ElxVJ1o//IseO5ch9n79PJkwYz2ggOhCeOnVa+vbrK5MmX20Acg2jiD8a+8WMGJkRjkiNCJ9fip/6nrRq30HOH9wjmd9/imv1wJe+LEOHDZU+fftKBtqR+/3sVDpqzKiQEbtARNwjXWZHEEL0YHBgYJSBfvaZn0oVCIKqKyXrqz+SFUtWymuv/Y2RDcjO9u3aSbdu3SSzQwb7eTgMBIesUYaRIfwsfIDx+5DYEmvuDRlY+uqTIq1SpercKUn7/HdlzZqPZP++fZKakiqHDh+W8yUl7C2CHiS3336bjJ8wzq5QU2PUwNMwUaAQqZuogeCtf8zfXnoMgnGmzXPFPU3meDBZoT+6n0q+oLCA3PHwzhECh6d+9dVXUxgj94+/P//ii5KZls4NDEXVrl07GTigv1TX1FBxo2kNIgrr1n4kldVVMmjgQElJTSVQENGA8ePH025Be+CKCxdoNUIJ6Q9SEji02dldraZF6gyAXx/88r1792LXLwAh0ev84OEjxFboD8aKFAdK4xR4LHCAnAaCSziFWB/cr127NMdfm6RaNnLLdYd2SdzaRdK6S0/Jv1ArVaOnU7E988wz7HZ28y03yYzpM2Tw4CHyXw99RRYtXiybNm2mF481gbEAKx4HEzXcnTt3VPPiADQ2ReCikdCN0lB2Xs4/+7h0GjlRinOPSevPflv+9rfXGKEZPGgwvc6jR4/JPfd8Vm688QZ2lty8aTMNlfiW8Ub1BO5pzW2QEg6g5IM4fIyZNP+WWFom+c8+LilDxknq1XPkuQWLpOhcsTz00H8RuLV27Udy8OABGX/lBPneY99j/TpK1qZMnSz9+veXnj16SPdu3eXll1+WtIx0mTX7Olce1lxvN8eEu2pBDdLnr5Pyx++V7rd8UXbv2C67MwfJ5o2b5RuPflOqKytl/vyFcurkCZk6dark5ubJsmVLZcbM62Tw4IHSrm07GugHDx6WpNatuf8Bqp07b64RmdGCNEz+1lJAyAvHSKNU5R4AclhaZfeW8hq/5Jw4RiV86uRpadUqkeuVnJTEyp2WLRPo+QHvktomVZJaJ0tySrKcLSyQHj16RSCRmuaOwPCq8s9ITE0Zq+kTs/tKVXW1HD50mM+Co4FIIBqSIYXZrn270OtihutNrWeC9LwUnuNNlNBDWq82/7g01NUxbdWySw+prKqSw4eOsPMmopxMpzU0KqXcvr1e9IDM0ARNBDrqh4TJ53saOc4mTbikNv+E+OvQo6SltOjYQQryz3K94Py0SmrNSBgwOFjP5NRkZ8TFCo8oplVLutlGg9eSehk17nVVlMs1RYUSW1sjDTFx0iKzI8ssYQyQCjsmhpUycNIg6zPS0yUlNcVpgHuV4wYG6T2/lsEQLXOM4Dh+bJCitUFVBEEh/lUoTAmi1omtCP5TEdAYKSk5LydP5Eqnjh2JWkdOCYcFxgCuXQKBN2OGLF36vgwcOJibBHgA/B3ARuAQCgsLpTA/n7n0MWPHyvp162T2nDlsvXs8J4fPQJ02Ig1QbFAKAwcMZAMgGCFA8zN6YKGdG6ycPHJS8GpLS8+zrKxL5670vHCoi4rOyuLFi+UrX/4KD3012qJaHxgpeHZqaiq7+4GDAWPDTCA6UV5+XkaPHiNZHTKbrudFWiI2Rtq3a6LM0RYMboHvl9iaGkmoLJKYuBZSJTFSk4jDFiuFZwsJDExOTmY0Ac19MrMyBVUcAGDiTmw/Gxcr7du1J15DdbizoiVmLjLifLdffA0N0qrolMS2TpULtTXS2KYDW9uiWgDPQHUKPjBO4MlA4QDvkZqarMKdYfEN5ia3g7BN73x/jMTW10ljyVmRloniT06W0rIKqa9vIFAVhiXGoAGqMC7V3omVNm3a8P+aR6O4qIgGZ2obVNe41sMBjnKj5C0DwhC24LKPOZMjLVPaS0VdlVTGJUl1ZZWkZWRwz2J/QfEhDYd9nZ9/Sjp27CQtWrZgCR3+Vltbw32P3hVYyxQI/KD1MvAkpodophuCZhHqWFFmM7gelH82Ij2Ret16H3tFMtzPdyglvdZKGXGbsILWDGXrFLgT9c6+DXx9Q5EFKbwQnrsek9v7wfw6MCqB+WUslf/E3lDdIleuWEFDvGuXLnIi74R07NKRcvMfr/9T7rjjDsXYaH9c4/R6dtC7BL6typWdVSVQ9qpjq4JS6n4PGj+ivu2KxsEAqqtldA2Ro927d7OctE/vPs6S2yYNKi8chVpP9s6wGHYCMWh31YKqf3B2bjDHG2rtrDwQL42mGJoWkiGqGJrFg2A9BaWI5eUXWPoEBZ6ekc5cGxQ8Np82EKBsElrGUcAiHYD/79y5k7l9dFpDeAsRgid//St55OGvqW3KEkg/W+quXr2aRsWgQYPkvSVL5OabbpJ3Fy2Sz993HxVOfGys1DU0sJIBArR9+3by0UfrGHlAH3plfgZy37T8fT4KXygB1E4PGTyY49L4iMrKaomLi2G4FkoMz8E9h48YKTWWQQGPE4odYDslC9ThYhlmfTUrMSDUI0FHR5RiCGEgQGgDexCLfup+VUSkDpKJStbC0StVYAgynidTSESYy3YJFkwFSFDgkTbG1EfUrMnB0WDn13V518dkXrS8w7iGGGkkEtCCR0aUGjCOlWeoIpyBEKpqxDmvhJeCZ94BmrTkddAYXZgEz1NvhoRdXABB+APrBiEUfG5urvzw8R/I1ZMmSu9evWXs2HF0DFB6CeBvdTUwRAk8CxDiUCg0rOLjaXx6kvmYRlSkSHRToftjBON65OFH5PY7bpMpU6YwAoSSQhjBuSfyKF8QYSkpKZZdO3fJoCGD2Q66U8cOcuLkKUlNSWHnx569ewYbeXpOHQaya54ckYhACqcgv1Cef/ZZ4pySk1Nlw8YN9IRB4ARDE8YoyrZRHQU5iLMPoDRSoDTeS4rp3ARsBSOU7jaYPA0HIwzPY688+eKzxfKrX/2KzhQiZpB3x44dl1WrV8v0a6czVZWRkSYbN26UMWPHyLKlS2XQoMFM+yItiKquPXv3cC4hE6+8cgLTusAIJCSo7pj8mOmOcP8WoVz9yyuvyT2fvUsOI7127Jig1TlkOSIwiJrt3LVLVn34oUybNo2RKswTnBkY8+MnTGDaBvuwKfAtxhWNIDRtIlyyFIMPqHTyaSvlqFkBsWe1gr9QUS1HjxyWsWNHMwy4efNmpgjiYmLlbNE5ufvuz0qHDlm8/umnn5YHHnjAyh2aTXmsngISI7/+7W/k9ttulXfffVfu+8IXpR5tfkVIRLJ9+w7Jzy+Q2267Vfbs2UvQGcoXw32OHDki+WfOyJw5s+0wFsYC7xrhWhwMzXWA8cMgwoVaHOiGqCb2Itbno4EQwOuEK8FTo4vIQAgDUgwg/pUweP3/vU7Da8TI4Q4GPnoQtJVUdYO2rxX2W4fAtSA0FUuIWXTkA4NBffpbjQ1+2bd3HxVHv/792KY13Aeh7NLSMuk/YID85Mc/lgnjx8vkaZOb3t3uK9zjM/9ulXHTrrPq6pVP4wYGhn8sDKFGq8ytWdTkXnXnfh/R27//7e/kxptvlFtuvVn8jT5Gqzp17swIxt59e6W2ukZGjhgpDQQx6gpcxS3yu9/8nuv+8kuvyPe+9xijagHP31Wr7iBy8gK/KQNt/Ufr5Otf/7rcddfdTAdu3rKF6albbr5J1q9fLzfeeCNTDH/845/lvffele7du8vPfv4zye7e1em12wojBMWyqWS8DBbjDECO3HTDzTJgQH+ZNWuW9OjRTdat2yBvvvGm/Po3v5YhVwymw7J5y2b5+iPflNVrV0ltdS1TSCXnS5iugdL+4gP3BxM+OQyYEGyP5rsEtCPn5atf+ZqcPn2KxsuECRPoePzzH28wvH/kyDHpkt1ZvvvYY1JRWSmTJ06WrKxM+cY3HpH8gkI5feaUPProtwz5Yebdw6X5PIC9VoQDexwGwqJFi8jV8tyzzzFqOnfuXEZr+/TuK7NnzZaKqkqZ/9Yb0qN7D3n++efl8ccfJ7DxD3/6vVReqJQXXnxJ3n77bcr7Bx/8srz5xhvy9HNP09hxGAjholLG3MJhfOOfb0i37G4ydtw4mb9gvpw6fZpO38svvUxuhFf+8oq88Y835bvffUy+851vy9qPPpI+ffrIT3/6U/lo7Udy7fRrJS3DSt14YiEC6xfFIDQtQi+tgRATyOu7Hw1hFSNxktQ6URGr1NYydI3w8rq162i53nff/TJo8EBa+X/84x+VMPOLNNQ3kIYXjHZQzPgPod/yigvy8MNfZeRh8KAhZAJDhEF7/sAzQKljw8W3TJD27dPoJcB4Uf0alGrXnAe4L36L8ImnWBEAACAASURBVBn+TMS13y8rVqyQl19+hXlyLfQ7d+4kDz/8NRk0eLDrVZ255gAGoWnDwJaHPp+kpWU47utJtewIX2tr3elRAmT429/+Tq4YcoV079ZDcvNyZeCAAVTOjz76KHEAYMJLbJUoScR3tOU6ALfxxBNPyNhxY2XylMlE/Dr6F2iBaJVsIQKjW/sGew3Bguy5Z56XF194UeLiUW4qBLcp+mWfdO7UWf7xj39QYEOIbty0SUC6lZyULAsWLCB2olOnjsyvnzh5UmZedx09MaQk+PbucLUDVBWCIU78snD+Qjl+PEdmTJ8u6RmZknciT1avWUNO/29+4xsUUitXriSwC/iM2poaAjjPnT0nGzZskNFjR0lCy0Tp3qMHvcLPffYeGTR4ENNS8KhtwRWx4eKTpUuWyXPPPCdfe+RhCk1gAQ4dPsI0EZ7/uc/dIz//+S/kyiuvJP5l+QfL5de/+a2UV5TLDddfL/kF+bJ8xQqBUTZi+DAqqHvu/ZxqTRVvpG/saFGYferzS21NHYV2u7ZtSUhWXlrGsRw8eEh69+olmR2y5HjOcamrqZHysnKJt1JIE6+6ygr/hwjrmxwT2lQ1QYOcMw9DgmfAL7W19QIsEaIEWDfkHOKsNBCYFRGVVDk0n9RV17KCABFD4ADgpaLiAtG/tu3aehgIRtrCsb8CykbZlRqAFTC1FUW2MraATUAKKCExQTkWkIng0gZnQkODlF+4IG1ALNdQL3UN9cRVeYf8I0mlmQaCNvIDDbd41gTcKAoYjlQU7orSblZZ4Nk+v1wovyAJiYkkjIPRBz6bpOQkK1vik189+SsZPHiQTJk6RVGng2jOIYL0HDk5I/QR0K3g9b+xVvgozJOP5waGHNKOwCJgkBgLZDaiU7iODZ4YuVW8NEFxTkdkJbCW0QjCZTQQ0JQEUQSzssV8PLhmykoRLiqTxx57jIL1+uuvZ/howYKFtFj/+eYbMnXKVDl45KB879HvOKJEusrh0MFDVBrZ3brJkSNHWUKFkCYiDgh1zZs3T9566y1ZuHARjQ8o8jGjR8u0addKi4REyTl+VDp36Szt2rdXDI6NjQQXgvQeGwzYhpycYwRODhjYn1UUMFIAesKhMj9gQ6u4UGlYy5YQC1fFEEFuFiFbKDzns2pJfw1lrqwalyejBZcDsSvM9eNA4X2eefoZGTZsmPz1L3+R7z72XXnxpRcZsoOxBaMBKPzcEyfkjttup+DIy8uTsvJymTFzOvEVtoD2CUFNKAXFHAK8eezoUQIgIYhT27QhFbX9cdOg+n3y+t9fp6A5X1oqo0ePkqf+/AzXE6HCP/zhd6SA7dunjxQXl8jpU6ekY+dOJA169tlnGX24+667ZPz4cdIyIUEOHjxIY5JcGm7mQnovel28DkQA3Hjo4GGC3ZAKKiwolFOnT8qHH65iKPgnP/qRPPDAl+WH//sjAqneXrhI7rr7bsk/k0+jKz0tnViOlR+ulHnXz5Xde/bKkMFDZMyYMXLy5EmGwIHAVh+PVE0I5jqkshC9uvfeewnCg0LDvkPZLzyrn//s5/LnZ55SBF6NIrv37JIXXnpJsjKzZNjwYbJ8+XKGYRFlAKbnO9/+lsS1bCG5x47LoCGDVGWRJ1mWR1rCPX3ukLsDK+Kuagkx9+75cHFNgIEVoD5SAus9rve/nfd38QKEa8QUVN8fKKU0XAZnaBz3AzCyukYSE3U5tbvE1COvHgTqNfJDISIiCAKh/DohwTg/oGmuraeyZL8Yx14JlxczUnJ6+r3SJOa82teZcwp2WowpwY4Gq6iw0Aiz5ZG5xPYYNS7FcBKCInnOeUEHVMhlNAbDNJE4j63iAyWWYM+Ng8HgiSMJNnJLS0sIXIexn5QMTI5EUwxeR9L1O+8IQlWlXLioXgxqQb22LARRalKyoOsaFh8IWpTegWMA3pYqIVPf/O8fPC5fvv+LLInKzAJrospPgSwJITsoK4SVTp48JV27dlG5fQurAKX1wx/+UNLTM6SgoFB69erJa64YOkz27d8n48aMscg21EwcOnSIGx/NXgD0Old4li+APCAiFmvWrOEGHTdmLMdpnmt49aWl5RIDK9Y4WPAkoJQBigzmQdCefmhh0WwDwVxUT1BcQFjDCHr6qWfkvvvvl9g4/Xt3iaD6vS0wHR65+svGjZsZVgQ7JUhNYGCgLv6D5cvl9ttuZ2WJuokmHzIAQraHGMjV8q8+kYce+qr84Q9/UDAli1Mn8HoewDqbWyNMt0m1O0Ich4CB4HiOrezUV7GmhQVnJR3VK75GKq36hkZpQa/G7a2F6UVge5n6ada8eAIx3Uo2PKhOAbfc0ZoAmO/Xv/qNfPH++yQpJcl6uL6f1UxMA/fCzBc8yJxjOTxzGZnpNNoUs6iPPCXgaoBxiUohnBtgdy5UVjIkjXOGSBW8VKDTidtBX5PEloxcnThxUrp2zZby8lJ2iIQRWlxUTI96wMCBynN1KCFrl/oapb4OAM5ySW6N/h7lEhsfR/wBvEw8u03bNnKhAt0K1Q0gT+ARw+A6V3RO0gDKpRyIk4KCfIJBwb4KPFWXLp3kbMFZ2bd/PzlXkPumXLKXx/rBxCHYhlfAkMD6IFJ2Jv8M9w4iZXCQYFTjfcFeC8IngLqHDBnM6A++k56eJigNx3x27NhBiopKyF8AvonM9Cw5euyogLsDQFlEc5B6QpQCFQnqY0Ze1HnkrmhoZFoDKVmsIb4H4xNAZuDQ4IjBSUAkY+++fTJiOMqdWzNSW1VZZTN7JiW35jUwlskdIkK5bjNcusGsXANX8y1+q1FA8ArQb9n5UkYTcZ+62ho5d66I8hlVDHX19bJv3z7JzMwk/gD6AHsORgtktmJorZJWiQm8F8a2fv1GuXbGNbLgrYVy1113CiDq0QhCCJFo/PqS8SDoCIK99raKUU9DeC09LS0i7PvatWtJq4wDcdutt1EpA3UP2mQYBsAuwGMEZmDUqFH08NwffDcnJ5cbGWkLbB5sKvApQNEzFCYiTz31lDz44INMecBggecOZD28aoS4gTnAf6jVx79xmFXvgBYqzVFeQZGsjpxS/ogz4B7VtTV09OsbVPMRbQDZYw0RTcB1XikGVGZ4Nw4y396knlUAvDNn8hlCReok0GXRW2GqeQEqXL2PSqmo2n+FhlaaHIbVa6/+jeVuWJfbb7+dPBIQnhAimsjKQepCa18JrMLCs5w/pWR0akqFXQ8eOCD9+vU3BLA1VkMgg/USYFXbs3RtAMVx0ai8DNvA8TgQQekIay0t7AzQ3ghvxsT6ZPPGTTISbHiWIjUDvRqzASMWIDQIMzVVSgkD1wEFBYUA717vFTslAkIbW8EHjEdEVMDGB8Aa+4mEsHPsNtWB6Db3ogpvK29QGWFOI6KivJxGd+8+fZQhBBS5HaYNGHB65s6czpdf/uIXBLHNnDGT+wqcGW1SUxmqR7QEEQtwIAB7UFp2XiqrquXM6TNMS4C4CLwOO7bvYL4b7zVs+HC58qoJ8tzTz8no0aMlIbElBTqciH59+0rHTp3Yv6VPXxid1pjIzInXUv8uL6uQPbt2kWsA9fOoPkKFAM4toltQnDBgYKDguVu3buV8z54zm2MZcsUQRmGwJ5HeAo/DDdfPk8OHD8kXvnCfrP1oLSOISHMhhTJv3lwS/Tg+7ly7rRj9xPrAiEHFFVKWaLU8b971LOdNQ/lem1Q5ladSWjffcgvnbuGCBayqAdkUymmRZsPvARxE2m/J+0tk5swZ8qUvPUADA38DWyPOJDAqYIFVXVtNIjPhOx7cf4BVLzAuElomsAQTyhhOVY9ePWTP7t1cU5T6Ip127lyh1Nc1yu133M40bU11NdO0B3BW+/eTyupqYlM6ZHWQk6dOyufuuYdpnmBQqrGnXOBUiBoYoDt37JQd27bLgYMH5K677mL757cXLaLMxfsdOXpUtm7eLK2TkohHAlgWEToYRIhIDh06lFFFpLCxztgHwKWgZP6tN9+Sbz36Le6iKAbhIg2E5vViUEpIGQjx1vE1vUUlcJOTWhmKIHhgqiGOlXsSoSD9YNkyUrqCIwHKOzklhZY/PJGszA7y5ltvEiSVlmaBUozbKqxCPT0dfY7xXthkmmMBVRE4bNdccw2fAcEGtLOyfl1n3++X995/XyZPmkTjAkoQHwiSgoKzrLVGHbFKKfql6FwRKxzQ5Ck5pZXUoiyS0RUfS4PAKuew7I3HATyYlhZc5hiJgaAooHUeXv38zuJ3pWt2V+bDoYDhqaEEDl4/xq88mArmZCGUEX2BMVdQWMg0Qmt4FnW1nHu8f4PfT08I+VV4WMzvIn9ZVSUdMrOUIjNlp6OMTr0oSqQwBoDHcJDhseB+p8+clqXvL5VvfvOb6ITFuVS00X45npsjOcdzOK/wFq+cMIHKDQIRRiKMAfT9QPQmNy+PRiaEes8ePSUzM0vOniukkQcyJhowrjSNGjKMIR/TBdg7rRLQPbFcauvq5OWXXpKv/Nd/sR0t9hc8GLIp1tRwjqCUPly1igA5jAH7BHl5RM/wfnhnGC5grWPlTGMDCaH69O0nbdq2lZ07dsgVQ4eoCbIMFyjcnOPHpXPXLhSU8IjyTpzg2OCBT5o0iWuMtcO8Yy2wVsBSQOhnd82mgQEB2qNnDwIK4Tlfc821fMz+vftk/4EDcvMtAEAil1/LKJ8K3waUsTZo0EoZCj4zI4O5aqaiTpyQzp068RwCiY/3xB4GQBjnC9E7nBfMW1mpoivfvWe3lBQXS+/efchgCgY/RATfBfnTPXfLvr17qbgwZpI8cSzOtIfDQOM/kDL000hFCXWHjh25zsBqvP/+Ehk5YgR/ByUNZQveEygXcJrAyMW8YT/l5eaR2AjpzIkTJ1IeIJqJvQNyLPCigM7ZYSAE4SUMLIz4udYoDwQIGgZxZ1C7HztGnMaaj9bKF+77Aup85PCRw9I+LY1l4KVlCsGflZWl8FCNfjo8aGkPAxQkQth3L7/yCnFWKAOHMrTHxQ1tzJsVbcN+hfGByATOy6TJk4md0U4Q9iLGtnPXDpl09WQynCI0//aixXQEiDeKieF8IOUBI33Hzp3SPbs7IzXA44CZ1i5DdFdXmHPlik7CkAK4HODW9IwMEt3l5uQyioR3hJzG/gLPB3rykAK/tJQ0+Sj3xd4eNHgI9QUcSTiDAKdjf0JWYX9eB74SlqC3JL9N9BN6BpoXQQiJ5kVzEoBFvNHo5+j593J40LqxkgaZQDBBaLLLos8nubknZMf2rcztQnkhTDlq9GgKMAgbELIgqoDDitCY+YGigqLDITN7PADpjOdi82Djbdq0icIOUYmBAwfS+wGmAd4GhDvBjBbuAGdtHTb+mDGO90Do60x+vrRPS6fxoS73S/7pM8zNo+yzXfs2FFIa4AiBR8CNDrUbCgE/hkoxRGIguMwajh9kT8nJKZLWHhEc5aEXnyuS8RPGM7oAAVRaVsaKksKCAttIwvzCI6aBUFsrFyovyG233cYyUihQAK5O5OXZ1SHwduHFmL0y7PEYeWEA5mC8gXMigb0xqmmIQKHl5OXRSxsyZEhg7ay48Lbt22T3nj3EjEyfMYMKc9PGjWSDhPfHSE9ZGe+Jdc3NzaEShYcKzMqJE3ly4UKl9OrRQ+JbBqIWgTlTrjMU7unTZ5izTGJzq3J6yRA2WDcoYwjHrtnZLBOD4QmBhfAnBDgah+F6gGvBMAjzBh4elDQUAxuFxYCCu0E+WLqUHBnpmRmyYvlymTp1iiNIoF4d6Y0CqatvoCcO5D3KdjFvENi4/5Gjx6R1q0QqQHh3mCesG1JlSI3sP7CPntWS997nvvzcvZ/na8OIAmYE4XjsDbwXct0tzcqSILa6QJWS5cYTwwNvVXMMBNJDOv1iKStHQx8PweQAK+rv8FS4kPwu79321n3ErNRUV0n3niYzqjs9o1NHVhWSu4LDrpDQkUE1Vq1zVeTCSHmZr+LCAen0mTb6tGJFFK5b127SOgXOBiJMVSznszeABzdD+fky8cXGKEp4q9mdPTK7HFgPxgw3eYw1FFZD900x3kMZ6fpjpFQCgzVmwPVcN84lqLrAq4umCxjq3ipB98SYAiBMx+VmZMdeN0SBYSBEuzmGM5AiNxDceSRtnBI56pe4OCBzVT8F80OhU1nJ3BmUDAwC/IfrVI5S9WKA8oRlu2XzFhk6bBiFMCzcE7m5csgCZ8FLhxLasWMnhffkyZMYZjbBg7gPvguLEoht8wOjAcBFWJLwbEBUAkUAITp0KBo7nWGYHEaFNhDY4Mgia/rQqr91l0uePXuOFRUq1WHSw6poQoNVfhm8EEa4zZFuQN4xuIohrIHgrmjgw/wUInbJqW6cxT8pTUiuPJjtpBDGrzUZDjpn63ZP1mIzNIH/zKZG9kawAEMaYxF0ou1fwEDQ+0RFUnw0AFu3tvoOEJiOJkVW90CycPrZ1hs/wbuFhxowsKwQOnKQDXXMiwMVDmQz8rJOcKkm8vIi1AmM2YuIRXmses3UMxXZjCkQXTkAnR2xozqBsLhaIt28SAMuvHIIag3V8w2/mfMSUKJ2msFKeZHMyKrbVGdMrS17OhCUq6PPCIGrO6nKHVczKEOgw0hEmSWqd7h2dvZHGQj8WCkYIuJbg+LZAphYF9tvYP0+oOr9snbNWhk8ZAiBqKigMVfEsaMcStg0FvSAdFg9MF863cI+Zda8wXBDGTOqYgilsEBv8FgRNbDvbG17HYW0AXKe0tWeFLVHjNSRGVvFmlZVVrI8Ff+HkaswJD5iL+CwAIuAiBny+5AvSBMqqeJjbl6VCHu8v14IezvpeTCVu9pTiFLAcQLzpR3VRHpKD9aaL2AVkJ4BGDmw0MqoRNtv1WcD0eQAiRH3nJ2KsW5oyzo3lbbFRllXxy6vqW2gvNUL6LOHNYSsAHicDcE4v2rd9JoisgLjGRw4iNyCXh5YGD6d2wJATz+B1CmpUQPBcwvrFfZiUvQkSjKsWQCLWLbILnxqA8TFIecay3yt/iBfjrDpNddM468QWvTq3KjkpJ+I69TUtjJ40EDuCAi1XTt3yurVa5ivq7xQwU2DMi8gu2+44Qbp6fAS1H0ASoIggycFzxS0uDoqwM3m88nSpUt5IAGWWrJkCaMNaIt85513EBwEDxnhLIQrEVXAfffu3cvDMHPmTDsagPsBh3ChskrlnV3ynQZCo273bG11N9rbA4uQnh6gcsa36MGHwiB4GQdeJZCm90ZPzdIQjh0SrKAa6/3MwVN2Wl6KOvRaMLmtfS8lF24bIvdYR8AfcqIw3EIqBusPSJNkZgRy/UB2w+hAWBZhdpRLYW82xbHgFq7btm5nCghNutyLiWjEq6++Jvd+/l5n9MdSNkHTaMlkeP4qMqbFqvrBs3tlEHVs+LnUXBZYDkQvkP9FZAP4C5zRxAQY7n4pK62QVq0TmXfWVQtIFxw/liP9B/R1LY5eV8OA5YB9PA8IT8ODhbGNMwQOBoSD8X7bkPPN7iqZ6ZkMCyNNtH3bdlKcT50yhakpKKOkpNaybNkHLB3+zJ13Svv0NKmtria2JatDB4KDUZGED7BGMGB69cG+8PBeOWcwOhupECA3CgsRkUqQjIxMPg9yB78vLilmKhDRnNWrV7EZEFJOaFiECFbf3n0oH955910pKCiQ4pIS+dojj7BF8qYNm7k/0Sfgmmuv4T6xPyHOIBQaCJnADwFyH6RJ8WF5o98vpeVlpJdvk5IqxSXnpE2btiQd2rhhk/z99dflM3ffJcOHDZfcnByG1gGSzMzqQPmDCNzChQsYEQWOCvwbzj3ozWUBgC1SKVCiZ06pFB3mHY4TMFhwkrKzsxlVAlgTHBFnCvLl6olXMTIHsCZAgL169mRaA3sBBg0MDETx1q1bLwcO7Je2bdvJlCmTmD7z9O65vQKkZzXVtTL/zbdk0pQp3Avbd+zk84F3wbiwDxAdwlsCHD19+nSmDLB+W7ZsIZ9FanIyo56IssycMZ24D+yB1LYpcrbwHEGpiJpu3LhBbrnlVmnbLjg9HV5S/d/6a+QRBK4lVtRPIUOPDw2SGpWXgjwy4HkAmUAYoq4WfwMIKju7C2c1CKRnzDXu8dvf/V7mzJ4t3bpl2+FlCCGEvmFNA3hy6y23MIz6+uv/JMNXzx7dQ64Yog3wYsBiCLAPlGxhYYE9DuSQEcEAeBHCAGFveBIs3auqooGAa3Bokd9FfgtRCKBmIXQQctbvBCAWDpwNVrRGBXHW0FjlrfBCljzGOMlGmmsguITVmtVrZN36dTzAfXr3lglXTpBNGzYxzYKOmdfNnCEfrlrNMHlL8B2I8L0h1MBlf93M66R1cjJzi2gK9Iff/Z7ES6zTjokhGx0ETHZ2N9ZEA3iVd+qk3HHH7SqV4ipdg1DA9cePHWd4GzwWECYw6q4YPETOl5bQkxw5chSVBbwJguFKy4kAhwB799335NbbbpG3FywkLwLSCB+t+0g6ZXWUVatXMRo0YuQImTR5EpWR/QkT3kQofvE777DnB4CGJcUlZOyEoYsSzGPHjzOCdf8Xvyh5eblUkDA8IeBPnjgpKcnJxMyMQ++PGB/TTDBkgQBHeH/kqJGydMlSKm2kYiCk4QmNmzBelV5pF8dSxjAuwTlwtrBQSs6fJ5IbLIGHDh2UAf0HyHvvvSfxLVtwb06ZPEUWzl9A4iQYSGDuQwkrDOQbb7iBghQe+ZbNW2XSpKuZ4wUg8Nlnn5P/fvz7wQaC7T1qhaw8WzSMOnX6DJUecDb9B/Qnol/3GcA5wj659tprWXZcXFxEJYvoD/p6oGIA16Jq4G9/+7tkd+tKpTlgwAAqGhh2SG3h3uAkgANw7Ohx5rl79wFI0dtAQI4fmBY4IZA/B/bvo9HSvUdPOgpA18fGxVOR9O/fj+WhqIyAgQPckW7pjhw+Igdr16xhaR/OOuYJHAs/+d+fMO89fcZ06d+vn9V4yhiP+zzDw20U5vaBPcC7wIlAs7eS4iLJysyU6rpayTmeSycEZEUwjNCTBIYbFB3SZwD+wXtniqpzZ86XdswguwDCnHDlldK2HSIA5sdV7mfJb/gJaEoG0CbOieqrcYrnDJFLeNtQqjCwoEwRLYGBl96+PdNPBw8d4jxjXG3btFHGYlk5QYKo6MJ4QGyGDd0hK4slyirK5oogGCBObeBDxuP8KaxUHvcNStLxVTQhg4GKtcKZxp7B/oYcRmMulGSjVw5SzJBNuA+iGcDroKdLZUUlOR0YRc7Pl4EDB0kq+pdEPyFnIDIDwVxIy/olUEXXwBKhDw8pzt64UJxAwo4bN07i471a+LqMXb9fXv7LX2X2dTMJkIMCXrHyQ25EIHVhJSO8B8AQNu77Sz+QwQMHUKFTnurweYhWeqVl5cy9woDRtU4QrHgHfBfGA/KxxUXnmEOHQYIKCRyeBQvelpqaKnKk6/QIDig2IcaHnxGqRH8GlNi4jqjLQNB/DU1I02wMgle0wHoM6vnff+99KgsoOygYlG3t2rGbQKxTZ05JbEwckdUgR0pNTpGT6H3RUE8sADwXWPGz5syRp55+mvXZ7VLbkU9h165dsnrtGunWNVuumniV9LJCj+AFAMK4e49uqhrCw0AoKT4vb82fT2Q7PF+AswAWHTMKnSeL5J9v/FNmzriOIeoilHNlZcm5s0Wyb99eOZ1/huAyEBb94qc/k//5n8elfUa6XR61aPEi6de3j2RkZsngK4ZYgFDuElcTGr0WylMG2BSRI+BeoGSg7CC4AZaFwOzWozv3HkCLi95exEgSeA+QFkNZ59UTJ5J1rm37djSuUPWA/2d17EBlgPkESh1IetAOz50zV8ZfOZ5gvNbJmmcjIEQVdqGSghzxbxitqAI4W1BIljlU8iDUD8GICNjf//b/aEj179efSvmNt96Ugf37c2yLFy2Wx773XakoK2OFyOo1q8gyePWkSXLLbTcHCwhdx26CyKzcNCITOJ8wuvEual4xboVaB+APRgrBwCAfY58WPzEZtfV1ZE6FFw/8BporsQlaq0T+DmcJypCOh/iJM4Hhjn3EaJBZX2+AKHEt7s9R+IRpzbgW8cQq4V7EBvlAB19OQzgnJ0/SM9JYx4+UlNodfolna3RwHiiUvgLcgg21nmA5NKVCtANnxnnQQ/CS6JbQhoMEpQd5A0pgvmWjsNkbPvBy09LbW9wsvgDPgN9K+VkpQ522QWQFhgzew1E55IUNcOTtfYzKYA2RKgKuB0YtUnL4OSYGoHPwL9Sy4gIfzK/uY4N0EuU/M2NW+spKLZG0iCDcRkay0ONGGQdeBoI7SqVmlb+lXlH/RnQIP2Pv4UMiOzqluvoHHGJWCs36HdOrvFrtS7yvrtBBgi2+RUK03XNI00D9ITIDQV1phFzNnJeVGaUQMECKPpFDB/bTi8Ah03gD7XHb4D8LCAgULLyzG+bNI3cA8mIHDx2kBa2v1UYA0wjVNdISXoGFX1CbxkeFzZCkq6wQnoIO7x08cEg2bFgnVTW1tmGRkpwkQwYNkYlXXyX+xgYimDOysqg4AWLE9+FN6PHrsej5hQDBQUEuzmw3piII1RIXo0k/FFOYI7Tt8jyaXcWgDTh3yZ4fQLh6qa6q5LwgJKo4H8CgVi8t4lF1AsHaSCFDDn30joDR4/dTYEOQoTYatc7wovCBEQSAT3VNFY02EJrAokd7ZIQvmftH/tYqlXQbCAcOHGSIEkpeGZloMKTApwhRQmDC4GJvegoHhVWBwAHYExUF8ArwDLLnWV3xcC2+BxR0585dqFQUGNRKh7gMXXsdLMHZ0KCSrYqQBex2Cn+C1E5FRSVL8iBgMJd4DpQFPCukHuDhIhqgu4TC6AHTIMYLAakMJeBsajkvEJzwfKAYkZVTUwVB5mbts7DgCiDCIWNt8N4Au+JsAdMR4/NzLBDgUIrA8+DfiQnq2Yj4tWurwqmYy5raKlY3AMuDdQ/+uEB9oaJdJpjPnbJi/sIQeQAAIABJREFU8yQoFsyjYsXTSiIG2Be8OBP/AdmieEPgfOjwuClrVJojVD8Hh51s6R2qJOAt/I1SfL5E2raxPEZXiZ3uVGijE1yPVfk1G8Xg6CeCKGV8iziJj7dSDo6qHXUjSkn790gvaDGg3p25dHVRMHGVo0LCSDk5jCXru7ytIavN9/Aw1J2so8YuMMmYbJCq7sio96RLjlkGOFJnKGuHwWJXVHjtH3vveNG4q/lWc6J4OhxQC2P6OCr7PU1OEhfzpmmgRHsxNGEahDEQKt1ESZ4AOOcGd1cxQJEmWU1bCIazVlCHxtzpBihYhI8SUZPbCmA1H4k80KMBQERakxYQRYPCAIBRUCtkCIGMryO/OEofdemdngVSi+oxAMAGRWbAy3AXXAOlAwwDDhm8YKQ3gPJ3V0p4zS7Ak8jboX2qpifVBkKMP4Z6EsYHFacFvFPn2ZkrbDYPgqeBYIulCDaCF1mQNS699kZ4Ut3ZVGZNPMLFXoe5x4EPVJgoVjbHIbcFnce9rfthnhr98FZMwWb16tC9JUzB4QaIaNFNhLYFprLxIQFlpIzNCKbR85IQc2tea3jrahyhn2WCseyr6Nm72wNb628a9tiD2nB2syc6cDHWnYPwEKjlxzk9T0MTHjaMOpQuEuSWmsoSPERefvTDH8rDX/0q1xXAUZSaAgMBwB3WvupCleqcWl7Os4jW2TV1tUxJIhUBLEVmRibDykgzeTKH8uyoyQJ9e17OCZIpwblAFAsGMM5tdrfucvrUSRq6qW3bMj0A4233jl3SvUd32Xdgn/z5j08R54TIGNJLyPeDWZQ+KbAcrRKYQt21Y4dMmDCeURHsXzgxAFSiSRD4GhwpRkNuKjdKO1qmMjfW2j5rJpYgdKRRbV91rc1v4jg3xkYyxgKmQpBdzZ+/QIaPGC79+w9gxHTjhg0kd0tJbi1zZs9lpczixYtYcj1pymRWPq1b9xFTeu3T2pFIafnyFXK+pFQmT50i/3zjDWJMEDEePWoM575Tx07EBqCqBq3cNWhWjd2IKlhriSgZaPcRXRk7ZizZQ2F4nzp1kmlFOCJoyoTUAui7kT5GafHM6dNl67Ztsn7DBpk7Z4706NFdGWRu1kbj31GipKZl2sfvxWBtUreBgLAw6ozpEXqRBDkEpF/eX7JEBvTvz9AecoIQQPDCnn7mWVm6dIk88MCXbNBSqNeC14QeDijFQ66uuR9FH+pn7hlsatt37OAeBm87wsma+yDUffFdUC/X1tVbQG6fnC8ultTU1vTmUM+OP+DdkK9DYyp1noPBRBcNUnSVLkGJwvvFpxW8yVhVaYLKBXhWCJXCaGML6+pqSWvf3grDmRGjUG+sBZAXkM74mxmutsYHQYrnqlCiivwgpAlPExEJKB+UU0LysW+G3QZW8daD+VIZCH5hpJPhUoQ9ERatk9KSMqmqqeYetOHYjnrsYMZB2wGGweATOV9SLEnJClT2zqLFcv31c9CL264KwZgQCYDHG2tFHXAtK1/QUTM2XupqaiWuhWYJjSELnAqPquoHZWi559pUClbYFINr9DNaANQ7jNmVy1fIlGmTeS8oaEQGauvrJT6uhUp98TrVd6RFfEvO1YXyCklMSuD1iHYhWsOKEitiokCdHqFga+5Kz5fIX//yKnE7KJNFFAi178CFsGtjXJw89NBDFN4dO3QkRgFpQeS4wZcwbvw4O3wOwwBYpdUfrpJXX32VDYEQOSjIL5CHv/ZV7k8A0T4L0h39MY1hQ8GgKSf2OVJQmzZvpvFx7YxrpUvXbHnh+Rfkxptuki5dOtMY+WjNWnnv/feIQ8BiIEKElsuIsHXq3IkhdYDYMtPTSRIEEDIiVmgKd2DffuIrwM6K6A1wIMDewJEYN2EcmSC9xxqisZKDNtnrnFmmBeffpfDNNEIorgGtiI3IC+QUemi0aZNKwwK4FeBoAJzs268vS4zRNGn27NmkqsccgeK9qLiEkVQ4cijlBY/M6ZOned2f/vQn4nKmT5/BVGW37t1oDCINCeAq+qag4ZiOxHhFgcCg+a1vPip//NOfiBUDWHzo0OFSdO6czJ8/n9Fd9ALZum2rbPhoPcmP5sybyxQSDBOk1yBbwcKIMSPq6UwrGumMaLvniNRj5CmGcLfzOXkQIATbpCQzvAtBhpwk0KPuXgZamCJPDnYycBFAYL6/5D256aabCNL55je+JU88+UuiasOBHHEvhJ4XLXpHriVa2EXLGsF0wMDAf+BtWPXhKikqOicTrryKoEmEYr0MBITGIYwVIROYxQ4ScAbrm2eTIfIai45WxVzVNvXIyQUkS/PKHF3hUl0UpA6jyF/++qp8uHKlPPjAA6R3Xb5iORnGRo8aTYQwvKkPV6/mO4B8CH0y1OD1gQphAIQKfZpGD3nsDUY17BUrXLt1y1YqSQhgCGx4CmAb/O/H/4dcBps2biKdLAQWDj9y8WfPnWO1yy033yLdu3WTXXt2yxVDB9Mg+NGPfiQ//slPmGO2XCoVIwoX3rRXyYpFWboR+4Apk8ZGefLJJ6Wy4oJkd8uW+75wnyXjlK+I5k3oYgdAJqh6P1j2AfctkP33fO4egjjxXQgueJvvLH5HBg4aQG8T+Xc00Aqe54CBAPwH5gSgURD4LPtgGTEPwB+gQdOwkcMkuVWyaldekC/vv/seq3ugtJF4/+srr0jfPn2Jp0Eeg7EGX6M88sjX5Te/+a0c2L+fHfm+/e1vW96dNQHmeXF5wmrKAh1W7Xwxgfl+eqOdOyHFo4yggvwzsuKDlXLHnXfwe0cOH2Y1ADgikLZhkZp1P/6fZF8q3aMNSNuICsXjb12ry1NVWahSruoe6oUczYEsagVHmaoVy0baAIyOMPLsdCLt1MD8qN+jYqKAsgH/qbI+a/I8IjBBYsiMWNl/NNbAqhoKiq/bZ1M/y208eKRjPOSEjmygvTiiETa5kTZHYIQ3oFzaMYnahLQlGYxQgHFR2YBUCzJENP9ZyaiMG7uLaKg0kY4Fa5vIar6kVy4g1zycKjM155BLxjw4IogwmhMkJcUN7PRWFE3pngjUy6fyksgMBHeuyPGqiuTCjCCAPAdKFeAXKB0vw8C8BYQbeAmAV4DAhXGAyAN+Rv/xL33pS0SkNvWBov5gxUq5cvx4hr+a+0EZIxDYs2bNZpkNvH6A5yBcUWajWz173Rfetyr3jJPyikrmy7XNH6hicMeOXZ6afeNmVjF4CXOjUYze3OijDuNl6FAA9xTrJULGyJ8SBGQJVPU/LaScOeKI57QJzwieHAB4UMIAGwGohgoK5MM1Xz6ki1IcAeHEqANwAgwbgPcAWArwIsSymyHuFXC0LK/Nq3TQMT6tkA0PQ8tdHfK37qFBUcQRsKDe2TBCOfo6HaZSE7qbn34LhKz5s2mAec6XVUNvUCDr+ScPBIaNqAK5OizD03wFK43FCB7Tc8ooJcDOihio99FJcqsu3SOiZa97UBjc2tOmULYUQCA1EyLSFOKdAwl6+21tump1Jy8ef/ze6ilhdU/UigUpEZzlDh0yWYGFccHbRQUFsDjsUJhkka0FeepcUWdUxT5bNrggOFyuFjhwXMKlad2HykzrNfcekT7HjsTYi2+/I1Ixmp+Gf7V7PpkNl5yyjLvL/BW68CKyhvJe+w96f7nkoBEVqqtHx8gaAiJhQKNsFXgfpBaArwFYHWRSMJpREQIuA91hEngfVGeoI6lI7lq0iGMpO3sztFIYK0SI2LuhEZT4iOaqtcczMWaFf0okDw+q87DfPMnfIhaGn94LQxsIF1SZiuNj1RsHSo0CG8YnimoZOSS0dEb5V1OGgXlvCDk06YGndeeddzKch7AdwkjwICP5IGy6fsNGGTrkiouKIOAZ6AOxZ/cemTXrOhKTHD12jIA3hMhMVsZQ48H7owMh2qUCpAOPTRkI7lyiB3uYcRrdKQZsaDD6NdmLweH1OwWzcsrMkHao/LjrpBsv69KHxl9c3wlpIAQrC+Sw0W2SneHcNpT9C+derLwAym3ktNF90Q2yc71XKANBz7cW5laOAbXWEAj0wl0fKGQIJHiXgcGaXrcxTgcoLEQu2TS+g1INWnhrP88dyQmheB2T6BH98ZoPxzyHzns3NNZLRfkFGj6IbmAN0EYdAhm03fn5pyXGF0tiNHjUOA8Ixat24WYqxWr4YM25mmZz3YyNYCoY9wYxc+uNDWSwrK2toTKBIZCSnCJ///vrsnX7NvnqQ1+RLp27skvn8y+8KD/4weNyYP8BltsiHYG1RRULxoFQOs4vlBUMaKQsECGyQZLmvjDxG+GMK3u/ufaIa4/ZytYd+XIp/1CrH1ZWWp0p6+oaGJZHt1dgRyB/oSyhIHfv3CU9e/WUjp06snw3Iz2DWBBgScABAYwJSr9R4khQc0M9yzjTwEvSogWVOJooAQuCOWOViF7nUGBX+iR+KS4pkjOnzvC7oOBGGeb+/fuoA8BTg+jhoIGDGK3IysokPgzlwuj9gWtBoU3DBGDdFi1YqQLQOvg2ADYHtgEVSShXLykppjGB30MyosIFDtOevXuZWrrhxnnSsgVYT2Mkrb2T+j4SffSfcE34CIIjjKWEoPJGAqhT5UQpHgSfxFsdGtOs9sCOoFAIUW9No+Ulqk0CznZ0U+vuAGyZoUKX5cLQJZTo6tWrZdSo0ZIKQpIgZRPZkq1YvoIYhKFDh8kHH3wgs2bPUjW1Zrtnj0isvjt53esbaOygjCg2xmrRbAkS1QNe9TD3zpHFSnqak0kxrIHgCB26jTrD27JQxsE5bz1yD28wKJgYYg615+Wp5Mzv2J2A+Ev0v9izdw+FAXLWmHeUFqJpDKotQNKi8p7FzEmDPwACCmkpGKEQCv3695V27dqrfgM9ulu9Lly9BLzGZYaruZ6qKdXfXn2New8NfJBvRcgcig7PBjcGhAtqw7PRDMd2v/U7hjAWzM3o9grtNIibKtYvII+Bl1tUfI58CBCIeP8unbsIiI4QgUEJLuYMwLoOHTpyTDC6kIYgsYwfTKfoU1FDfA/IbsA7gXK6oqJiycyE8DPR37SY1Au5FB5q+j9csYIGAQTv8OEjyFgK42D5yuU0rlHGCIGN8kpE8hAp6tO3j1KwpufqMA6MZ5k4g1BH1qUsUZqHtUIlFJo1+RsapHVSsowcOYL562M5x2X2dbN4hkGSNmPmTOnRvZu8/fYiNnWbOPEq/m39uvVUMKCwbpfWnj0jALRDJBRrDyMWGBCcXc0CGjAa3F089Ry6IgnmmfJQmNocjExahbjKwGc4SgCQRgCnQGmZ7Ny+k9gDpBRBjgcwIrxnKGGs1913fUaeeuppprJ27dpNfMjUqVMFjLJjRo9mgy+UA6PvBxwrEDyh8dSypctk3o03UB6jJBdNksAf0aFjB+90n/EKiCCg3wi8fsgAANSBYcG40OIcXj6qf0DqRHIuv5+6ZsvmTSRkQsoAY4D8V+lFaw0slkydTvIG+7rn0opXRQ0E58QoJsUyChYoOBBogDBHlXalsJkL5p2kJPFxBGrFxrWQ+jq00ETtsVXqZ9LI0nq2gtiUocYxCMSUPXHmjpJC41qHSLYMhK1bt8jIEaOstqPOo6ZKbiwKUSMCaIctta0C1sQ9exniAnEKLEgHJW7QmbTeC7W2lmwFWIz8ChTiiloYYDLIYVi3CImjnFB13Avkc9UcBXdzbJaB4Aj3Wp6ZKTCU5PeQLKbnqGlQg1vFeoqkIKUX7hlCYQ7vbcuWrSTEAdFR9+xu9BaGjRgmKEUFwQ2UEMB0WzZvZqe+4cOHkUsAuU4oKXgraOndqlWSLHx7oUy86kqSFamWxm4L0ZVCcAlnlAJWlJdJXh6Im9pSua7fuIFKb/CgwXw2fr9r924qDADuCIK0P8b9ucfNOTYUsOvXISN1PpG83FzOEUiSEMFCd8PFi98h78EVQ68gtgfeFtJz69atIwkWXrvgTCFTY28vXMhICMBmZ88WEQ8Eut7uPXtK9+7ZNMBAnuXAapjGlCvaAC9r3dp1BEBiT8OzAxnO8Zxcdj6Ed4Z9D48SIDiQmWH++vbtp9YkKOfuERXhr0JFsbzD9vDw4Uki6ocmYygDBb4BzarQcTA3L0cmTrya2BsYfFB6iHzs3buH1+N8A/cCgwmgUzRpgszbt/8Agbs9evZUNf3x8Wy8BNCenXK0bUKXgRChceOllrxOZ1MGg0PamXvPnE8rggC5jr4eeH+QIwFLBQ8dZHA4U1jnmdfNIBYLhhboi9GSG8YEOiZCcQMciHkD6Rm+D2pjRJQAXgSAFZgwGAjbt2+Xnr17yYAB/XUpR4hXAadDteTl5EpZeQXTu2go16NHT1ZCIHUNADLwODAC0cgLawLj+B+v/4NjwprDmQO7orsUPVhsO52VkMtFAyGtqen/j/x7yAhCOQwEILTrGyiAEC5ERy9wCdTV1TAEi8VSbW0VBgEGAixrxcUdaK5iG3F6BxteV4DowsqF6pId8xrDKNC/NvObOkcNgXX40EG5YshQormxedVBs5SwOyZn/duOfllX2/lay5BRww6UWdr3s7aEAiWpm2mrFYhoDZNqaKiiUFGEImCiRA5YGR0qlQw0vnpxDdZyt3u+KAOBCCGz1WsTYkcbbtrKsefLqFPm34yqi1A5z7CRBB+Z8oBwxj5CLwzU9NM7a2hg1z+8f1l5Kbutbd++jZEGUNViHsAuCFImdNRTaPx4Kj4AXREmhRJtmYB96VpwLcgdkYOAWMU+R7MnlNnBO0S4Eqx++Jp+Ngwb/B4lcBCoIEYKHZExZUYohechV+z0jE/Oni1kO2JQAqOtLvYHjFdEEaZOmyYpVLrCqADCviBS0k/CXCKiBiUJYQoDCGXA866/3gqXqwlR5DFuoh9nBEGFbZECUsAzcPJjzkG25SwDNWv8dc8ObXlrohvVZ0PxTKgKFf1RHUIL2BKb/SG0UW8Z6YH4jLehENjvPFAhhLZWDF74GiOK5lCybmPTMoAdRqAHeO4yqo0gA8ErRaGjF1YPgwAOxgTzmYN2lQp6YE0cRp/9d2PtHRiEMEaUFd1gNYwm4QuKO2tcDvaGqycMQAX8YCa81ivwV0qxuDh2sYzkE0mZeyT3+bRdExaDoKn7lb5QHiX+V1tTLQmuvK9q96yiCapc0KJWtpW0+re26rRMcAQENKqYjFcBweG2BAMHAdcpZQUBB6/m3NlzDFWjntd+lr0qljC0FSBqnNUfFW+b3lbWE1wOJ/VtgK/GDi/rrcjtaaGp49m4RF2CKgb9BHI3WMAXbmPTiLW+gDlJT3P2YogYg6Df1R2mbUJh27LUUgB26DwoBIq39OB4d+hCDT83SF8s4wNGJXKWCjfgY7tkUO+CChd0qR07oG66iAxnUMYAhyJXCiInMGwqgJpugKOeg/4LqanJNLTgtYDHAmFHw0Z1qgo3aEovmmHoBV5HbxBL6Ljz6PaFLmVkg91MrEko8eAVuQlxrQMB7sKxcP9pq1cJT3h+CO0j4uEYKt/DQ4ia+XRb2Iq88PyLTFPAs4axdvrMGYaXb7zpRtVqukULepGoMoEXjhD2nLmzZMH8BYpGuKyMaREYV+AeAPU0IiMoMcQ4rpk2jblfUDgjwgEaXaQm0PaZHToTE5nmGTF8GFM9iMKp4RnrExQl02/sFaXQ86QNaLdBEcKbCFoW895NcBZcTu3gTjuGqRxwzKMlDZ1DNeZCRyM87SUTsKuFmZni1AKyCfnxCc+THjpwMSmp0XbP4abb20CoRoqhXBngTeaU1e1tAyEI2Gg9PtR5C+fUur/j9Sb6nFtod4T+QJdqVdgHfSOA5oaaUwRLEX9CyFTKKdpQKnJinp2AgYCLQtRCe4wyPc3iSLD+1nwDQbOeGYIwrEcV2uJ2DC9UxMC8yHUNPPMXX3pRhl5xBUFjKAMEAyMEPkLnaOYFTgjU6qM6ANGq73//+4xgIV0wY8YM2bd/H8OKAJTd+ZnPkFDn6JEjcjwnRwYOGiSdOnRg+B95UmBIENJEyBjeM3KW8IDRZ2H2nFnSxuzgZnshlvCydYqLn8BF9tTknnGD1cKdo6BrDfIbbUG6FbojpWN2pjQNhFCjdPiargPqrVSffOLXMmny1YyYoPQUxndS6yRWxaAHAqI5qNxBaBprC7wDKJ/37tnDEmFU+SCCsX/fPhoZMBrAi4DUwHPPPssGXXOuv55RSpCc4b5IwYEQR7VHjmW0CHsDOAodubSElDVoDyON0xHCQHB7/03KAhdLn3t6mwIoNrlpLvEFlrGPt889nsueODGxcYqpks6Jj7wcdOiYJlaVQGSDpUwHh0YMqa8BvEZPBWU/KEG4dcsWppgRTfPFxHItgYlBlQBI7vDB+oGThvTLMYoHBOXLwNIgqkU81r/og6qpqIEQfvIjK3PU99BCzj4IAQ+GfOsOfvIQITney0tAfbxdAmUPmRmIejRD8X+8R1uHRr+X871pIDi6OXoJLPcAYi5BBMEwEGxBGCbkymFFaCREMl+GkcBmR0ePEPWMdADAdejFgIgPIgfIKQK3kpgI3v06Rg5Wr1pFzAFy68i3w4sEAA0ELfBAoSxgJAC13q5tO1IdA/8CzxLhd/AmAPMBPgpSvqI+/9RJCisYIvYnlIHgEdp0vLZtPFvrbntoeh9EMkkhrnGzHCqpbF3c1LnS92zO/ncDFI3nWWf9tVdfZXQm70SedMvuRnwBkO5IfSBygLw+WETRBTM3L4/5bUQcJl19NdcIgF0Yhsj3o3wMEQasS+HZs7J92zb+/d5772W+WrUPjmdOGZgCGIGaDAqVTe3T0uSqK69UURGjnDdoNh3RsBChbTe1tXkOguSd5TCZOIpLeWY+xpbx/Kp9BtGJdh9TZx06dWSnRaT4oKSBK0MvD/REAYgQZYUw0gECPHzgMHlSMrIyqOjBRYPziaoUAHXxu7y8PJ4pYGFYOihCAw9slPgcP36c0TwYdip9eJ4Nu0Dj3qt3L0l09a651FMQ7n6IICBSGf2EnoHmGQhe99HMeOzFEGhpe7knXRkIVq23B5DxEx9PCPmtuOV1u+fIQpBeVMuK/x/d6moje5UQgtNBFGPeKZLIQGRPVlcZ9ystOy+/fuJXMmfOXLbVRf4ZShwCZuzYMSyJAvDu1JnT7LC3bu1aepmdu3aVJ594gkAlEDxt3rKZ34OhAMwCmjstW7qUQgxzhgjC3Llz2RWyS9cuoSmLmxsNCNY8Ls58E4B4CYyscJGmJpn3QixSEMGQY/GNf7i9cOXhlZ0/T1wPFAq8QBh7SA2hmgMtdXUrd3j2MAhVbxKfHb3RPT7gveL3UBb4P6IE4OAAFgFVKYgyKGIen+rAGIvqi1qLxcFPJj14umh8ZVcVmUaeF2+Al6LXb+xlIGgjIZyB4NrjzTkal+1a6wwiCAVWWABF0UkUa1NVXUkljYgBHDb8TM/fDxyZasRVW1UjTz/9tDz62KNc37g4jTcDQL2eGJEaq6QUxqDCfCmMFSIJOAm1dbUWY6vCX5G10yppRIOqf2UEIWogNL0TwxoIZCMz+ijwTBA8oISgjS2yrmEHMOOZ7u/q7ztYqazKBo05cH/fIcbMMkPXuylgpKLhRZjTZD8zI4cmDiLk9BgBjlAMWvr35t/tn62J4Uyxq5kSlhrMaM2eBRALnmOMy5EzFt0gqDkGQggGwab3xCW/ghS/FpugAqWBMhilYuj0BlpltAkHNkG16oWnipw2yJCQnsDv8DNCmPgOiYisTntkPIRwsnppoDMi7ENPzgovIyiStI+tXN1RGcMqvJSeZNCYXAZIhGk/B0jTi4GQnnATaS/re2+88YbMvf56lqDl5OaQhhqkQ2j7TcByXR29f6SEOnfpLLGxGPNlDB+HiyREtKONqh1qMA3MNTEo1o3c4MVLbVxHNN4IL2KVlMi2bbtoGAwc2J/AVVR8AO0PQiAobZwbpOJQKguwL9JHY8eOZbM6UGejlwK6844ZM1q2bdsqd9x556WNOEb4OpfysqiB0PRsehoITX8tesXlnoHmRxD+fQyEoLlyh/VDMeo5lG4kYD+aoKEFV0QGguv7+jsmAM5WrJc4cqAnqrkGgsOAcZjU1j/CdbXzaAxkGiCeSl7loAN2tFEtwyWwnnc5FefHNhCacaLd73U537MZw7zYSwNQK7033Iae1YWzKeDjxQ7gMn0vaiA0PdFRA6HpOfq3uKLZBsK/xaibMQgv1LXj64aBEAkVcDMefdGXflKKIQgXEVlqyvkeIWhtbSPEZUB6Gk/hjcxLjyS66JWIfvGTmoFQe/yT2vuf1Ht43DdqIDQ92VEDoek5+re4ImoguEraQq3K5RRcn9Sz3MYS3vWiUhjhym4+voHwb3EwooP4ZGcgaiB8svP7b373qIHwb75Aenj/8QbCp2QdosP89MxAJFXSn563+deM9D82SuQTNodLSYlWMYTbWVED4V9z7pr91KiB0Owpi37hUs8AaMLRc8XqJOl1+wAA91I/PML7GShnjSVsKvhyCepOjMGFuVszHxTq8qaoY5ooZo5wIi/usqbG5nXXi/nOxY3O/JbqvNuqVeuPf6v/4DtEDYRPyeICaVxTU22XCTmGHa40PtT7NVNY/cunqTll/U450LyhX47nREJpEFr7Bv/lYjRCs97TutgnEh/Xwuol4t5A4V6qeUugrw5VQRTW4zFomy/uqR/vWxczZs+lbuI9vPoM6GeH6kFwqcYWboYu5tkX852Pt0rRb0c6A1EDIdKZ+je4rrkHKVyzksshLC71lDXZfMX1wIt9x8v1HE9vKgSHR7h3CacsQq1Bc98R97nY+bzU+yB6v+gMRGfg8sxA1EC4PPMcfUp0BqIzEJ2B6AxEZ+BTNQNRA+FTtVzRwUZnIDoD0RmIzkB0Bi7PDEQNhMszz9GnRGcgOgPRGYjOQHQGPlUzEDUQPlXLFR1sdAaiMxCdgegMRGfg8sxA1EC4PPMcfUp0BqIzEJ2B6AxEZ+AdRjfiAAAAIElEQVRTNQNRA+FTtVzRwUZnIDoD0RmIzkB0Bi7PDPx/K45EwbNmgCgAAAAASUVORK5CYII=;" vertex="1" parent="1">
                    <mxGeometry x="20" y="520" width="325" height="210" as="geometry"/>
                </mxCell>
            </root>
        </mxGraphModel>
    </diagram>
</mxfile>